<?xml version="1.0" encoding="UTF-8"?>
<svg version="1.1" xmlns="http://www.w3.org/2000/svg" width="512" height="512">
<path d="M0 0 C1.89379118 -0.00967334 1.89379118 -0.00967334 3.82584077 -0.0195421 C5.22443832 -0.0165999 6.62303547 -0.01346447 8.02163219 -0.01015663 C9.50930121 -0.01389318 10.99696826 -0.01849472 12.48463219 -0.02388728 C16.57388118 -0.03613212 20.66304845 -0.03585507 24.75231159 -0.03349853 C29.16211039 -0.03309073 33.57188286 -0.04412591 37.98166943 -0.05361366 C46.62178943 -0.07023278 55.26188215 -0.07572362 63.9020168 -0.07683842 C70.92462151 -0.07778846 77.94721721 -0.08189657 84.96981907 -0.08823967 C104.87660535 -0.10585457 124.78337006 -0.11507815 144.69016419 -0.11357872 C146.30022909 -0.11345885 146.30022909 -0.11345885 147.94282055 -0.11333656 C149.01750649 -0.1132548 150.09219243 -0.11317304 151.19944461 -0.1130888 C168.61781491 -0.11227583 186.03609874 -0.13141561 203.45444403 -0.1596133 C221.33596335 -0.18833257 239.21744049 -0.20215412 257.09898347 -0.20042574 C267.1395242 -0.19976151 277.1799743 -0.20526838 287.22049427 -0.22678185 C295.76906515 -0.24498104 304.31750431 -0.24935136 312.86608616 -0.235763 C317.22760312 -0.22922697 321.58886729 -0.22913897 325.9503603 -0.2464695 C329.94456384 -0.26217734 333.93831367 -0.25936025 337.93250599 -0.24190123 C339.37596374 -0.23882627 340.81945516 -0.2424825 342.26287321 -0.25362138 C351.36903547 -0.319229 357.80605794 0.07590072 364.97626781 6.11664391 C370.80297811 12.97826868 372.93240572 17.94816295 372.83564281 27.02680016 C372.82126171 28.77827354 372.82126171 28.77827354 372.80659008 30.56513023 C372.79426342 31.453536 372.78193676 32.34194176 372.76923656 33.25726891 C373.54882732 33.24616585 374.32841808 33.23506279 375.1316328 33.22362328 C382.51596664 33.12300508 389.89996326 33.04709486 397.28480625 32.99820805 C401.08053485 32.97222875 404.87569214 32.93704884 408.67109203 32.88007164 C412.34105617 32.82532882 416.01047445 32.79576086 419.6808157 32.78288269 C421.0737634 32.77371775 422.46668474 32.75582229 423.85939693 32.72861862 C432.49438326 32.5668202 439.62111599 33.02064728 446.76923656 38.25726891 C452.38955748 44.21238933 455.01333709 49.73213834 455.0366621 57.99281883 C455.04119321 58.65706546 455.04572433 59.3213121 455.05039275 60.00568742 C455.06301959 62.22414078 455.06141752 64.44234811 455.05976391 66.66083336 C455.06575027 68.25448483 455.07255607 69.84813341 455.08011913 71.44177818 C455.0977762 75.76627703 455.10247441 80.09069672 455.10375071 84.41522813 C455.10517313 87.11876513 455.10944447 89.82228205 455.11474514 92.52581406 C455.13324504 101.96259779 455.14141588 111.39932506 455.13984203 120.83612633 C455.13864091 129.62427811 455.15973752 138.41218419 455.19132936 147.20027381 C455.21750667 154.75204124 455.22820871 162.30372849 455.22693121 169.85554093 C455.22642197 174.36288829 455.23208411 178.87001728 455.25328732 183.37731934 C455.27269407 187.61849618 455.27277768 191.85924694 455.25825405 196.10043907 C455.25616781 197.65320714 455.2608559 199.20600204 455.27297497 200.75872421 C455.34081892 210.05646123 455.09915803 217.01871296 448.94501781 224.46430016 C448.330135 224.99410484 447.71525219 225.52390953 447.08173656 226.06976891 C446.17874828 226.88381187 446.17874828 226.88381187 445.25751781 227.71430016 C437.15280837 232.73998341 428.84931784 232.66208482 419.54658031 232.55023766 C418.1918132 232.5446305 416.83703993 232.5403657 415.48226452 232.5373745 C411.94599131 232.52601357 408.41009783 232.49662412 404.87397289 232.46326256 C401.25382749 232.43237081 397.63361788 232.41866335 394.01337719 232.40375328 C386.93166349 232.37334226 379.85098752 232.31460242 372.76923656 232.25726891 C373.09923656 249.74726891 373.42923656 267.23726891 373.76923656 285.25726891 C378.71923656 287.23726891 383.66923656 289.21726891 388.76923656 291.25726891 C416.19324394 304.84112303 438.0516869 327.29539135 448.76923656 356.25726891 C456.21666883 379.64663976 458.47802515 406.6110768 450.76923656 430.25726891 C450.45575268 431.26152916 450.45575268 431.26152916 450.13593578 432.2860775 C445.23089691 447.67724442 437.47257915 461.16645598 426.76923656 473.25726891 C426.19689281 473.96109703 425.62454906 474.66492516 425.03486156 475.39008141 C408.23757888 495.78678181 380.70086115 508.97963549 354.76923656 512.25726891 C349.7660655 512.57484134 344.78165487 512.63904244 339.76923656 512.63226891 C339.08836987 512.63172508 338.40750317 512.63118126 337.70600414 512.63062096 C305.7126598 512.51345325 277.52593625 499.97749952 254.76923656 477.25726891 C234.50914143 455.29853774 222.76923656 427.21192341 222.76923656 397.25726891 C212.20923656 397.25726891 201.64923656 397.25726891 190.76923656 397.25726891 C190.79280224 401.55661461 190.79280224 401.55661461 190.81684399 405.94281578 C190.86661413 415.4262794 190.89971525 424.90974888 190.92467308 434.39330864 C190.94031066 440.14165229 190.96151429 445.88986181 190.99555492 451.63812828 C191.0282161 457.18835832 191.04610393 462.73845956 191.05386829 468.28877831 C191.05939965 470.40341277 191.07020102 472.51804041 191.08642673 474.63261986 C191.1082906 477.60075528 191.11119972 480.56836243 191.10981274 483.53656578 C191.12059856 484.40547447 191.13138439 485.27438316 191.14249706 486.16962242 C191.10373898 493.86445134 189.3834075 500.64309797 183.76923656 506.25726891 C177.27316086 510.89920154 172.43653275 512.40624321 164.42742443 512.41116905 C163.56620371 512.41555131 162.704983 512.41993356 161.81766468 512.42444861 C158.92057903 512.43784459 156.02352381 512.44401733 153.1264143 512.45014 C151.05355218 512.45804046 148.98069144 512.46630937 146.90783215 512.47492027 C140.08951158 512.50115114 133.27118485 512.51645092 126.45283031 512.53070641 C124.10568837 512.53606601 121.75854647 512.54144352 119.41140461 512.54683876 C109.64656227 512.56847077 99.88172159 512.58720669 90.11686134 512.59846115 C76.12425553 512.61469418 62.13192768 512.64785291 48.13942665 512.704862 C38.30065007 512.74357988 28.46194776 512.76309617 18.623097 512.76838171 C12.74739736 512.77203315 6.87199412 512.78403255 0.99637699 512.81648445 C-4.53503917 512.84659652 -10.06598007 512.85286545 -15.59746075 512.84110069 C-17.62349057 512.84088021 -19.64954263 512.84916415 -21.6754961 512.86675453 C-42.88297086 513.0408079 -42.88297086 513.0408079 -50.81431389 505.81447983 C-55.77335048 500.33988429 -57.60442215 495.05342089 -57.62517262 487.76953697 C-57.63126372 487.03642666 -57.63735482 486.30331634 -57.6436305 485.54799056 C-57.66022056 483.10229105 -57.6554905 480.65711447 -57.65068531 478.21137047 C-57.65802812 476.45332869 -57.66661496 474.69529174 -57.67635059 472.93726158 C-57.69855666 468.16845974 -57.70149761 463.39983075 -57.69960308 458.63098431 C-57.6994833 454.64514376 -57.70805077 450.65933973 -57.7163806 446.67350936 C-57.73561262 437.265532 -57.73849973 427.85764335 -57.73174 418.44965172 C-57.72510404 408.75772148 -57.74794615 399.06617229 -57.78505373 389.37431931 C-57.81579034 381.04287855 -57.82710632 372.71156008 -57.82321692 364.38006377 C-57.82115296 359.40874045 -57.8265735 354.43771346 -57.8511095 349.46644402 C-57.87343866 344.78770647 -57.8714477 340.1095861 -57.85118198 335.43084526 C-57.84778247 333.71927469 -57.85281519 332.00766209 -57.86716557 330.2961483 C-58.00340902 312.83381899 -58.00340902 312.83381899 -52.23076344 305.25726891 C-45.83292091 299.1620393 -39.74573147 296.96453366 -30.85576344 297.13226891 C-29.61052906 297.15031578 -28.36529469 297.16836266 -27.08232594 297.18695641 C-25.6708025 297.22176109 -25.6708025 297.22176109 -24.23076344 297.25726891 C-24.23266204 296.67071057 -24.23456064 296.08415224 -24.23651677 295.47981942 C-24.34845756 260.69960451 -24.43422163 225.91942563 -24.48609008 191.13906879 C-24.49234346 186.96102061 -24.49881509 182.78297279 -24.50542164 178.60492516 C-24.50673319 177.77316674 -24.50804474 176.94140832 -24.50939604 176.0844451 C-24.53114031 162.6246026 -24.57055642 149.1648671 -24.61652742 135.70508803 C-24.66331934 121.88951481 -24.69106461 108.07399755 -24.70120591 94.25834835 C-24.70805942 85.73636889 -24.72968913 77.2146919 -24.77034577 68.69280557 C-24.79681795 62.84547391 -24.80475434 56.99829814 -24.79827032 51.15091093 C-24.7950742 47.77930376 -24.80265177 44.40864884 -24.82679081 41.0370636 C-24.85172263 37.37486804 -24.84566621 33.71395928 -24.83203602 30.05173302 C-24.84660023 28.99528686 -24.86116443 27.9388407 -24.87616998 26.85038102 C-24.80465827 19.72612131 -23.32238872 14.1704252 -19.23076344 8.25726891 C-13.50508422 2.81758163 -7.98122217 0.01031216 0 0 Z M-6.23076344 21.25726891 C-12.94062351 34.67698906 -7.23076344 51.25356566 -7.23076344 66.25726891 C63.38923656 66.25726891 134.00923656 66.25726891 206.76923656 66.25726891 C207.09923656 61.30726891 207.42923656 56.35726891 207.76923656 51.25726891 C210.6655025 43.60285178 214.77484147 38.75125551 222.29586315 35.10479546 C227.26197502 33.40310673 232.41412068 33.68934349 237.61103344 33.71137047 C239.51473202 33.69586395 239.51473202 33.69586395 241.45688915 33.68004417 C244.91507069 33.65231884 248.37289357 33.64877647 251.83117008 33.64976406 C255.45338772 33.64662327 259.07544657 33.62098096 262.69758129 33.59778404 C269.54676091 33.55730936 276.39584552 33.53690351 283.24512625 33.52381015 C291.04694113 33.50791107 298.848595 33.46948331 306.65031624 33.42921686 C322.68990997 33.34693481 338.72946959 33.29276981 354.76923656 33.25726891 C354.9053357 31.53032215 355.00172884 29.80022168 355.08173656 28.06976891 C355.13974438 27.10683922 355.19775219 26.14390953 355.25751781 25.15180016 C354.92521669 22.14239679 354.92521669 22.14239679 353.12080765 19.43324947 C347.72863457 15.93242448 342.09101327 16.57229118 335.83159924 16.62907982 C334.37819609 16.62403487 332.92479916 16.61680643 331.47141653 16.60758168 C327.47687307 16.58862489 323.48294047 16.60091201 319.48841226 16.61830461 C315.18092014 16.63165736 310.87351865 16.61624912 306.56603527 16.60448265 C298.12771119 16.58608648 289.68961838 16.59463132 281.25130146 16.61257087 C274.39503035 16.62658551 267.5388221 16.63049213 260.68253803 16.6271286 C259.70744322 16.62665116 258.7323484 16.62617372 257.72770526 16.62568181 C255.74695184 16.6246555 253.76619843 16.62360014 251.78544504 16.62251604 C234.26396397 16.6139451 216.74259472 16.63063728 199.22114086 16.66034508 C182.20969986 16.68918785 165.19841992 16.69626444 148.18696117 16.68085289 C129.67189564 16.66410217 111.1569066 16.66004464 92.64183909 16.67756325 C90.66859918 16.67940768 88.69535926 16.68124241 86.72211933 16.68306732 C85.7511903 16.68397941 84.78026128 16.6848915 83.77991016 16.68583123 C76.92935879 16.69144332 70.07884469 16.68812323 63.22829533 16.68152237 C54.88343649 16.67380103 46.53873636 16.68049853 38.19390958 16.70569741 C33.93416449 16.7182199 29.67466683 16.72430584 25.41491222 16.71315575 C21.51834364 16.70314867 17.62226953 16.71149672 13.72576136 16.73473693 C12.31334051 16.73991586 10.90087571 16.73829917 9.48847377 16.72934227 C7.5739264 16.71820744 5.65927843 16.73392971 3.74477577 16.75111103 C2.67971257 16.75230251 1.61464936 16.75349399 0.51731151 16.75472158 C-2.91436328 17.38228052 -4.0700116 18.57925503 -6.23076344 21.25726891 Z M224.76923656 54.25726891 C223.40091198 56.99391807 223.63698847 59.17005205 223.62879467 62.23464012 C223.62308453 63.50911507 223.61737438 64.78359001 223.6114912 66.09668541 C223.61024578 67.5171565 223.6091207 68.93762771 223.60810375 70.35809898 C223.60347656 71.84780056 223.59845204 73.33750094 223.59305859 74.82719994 C223.57992232 78.88100649 223.57348715 82.93479648 223.56904793 86.988621 C223.56611895 89.52041488 223.56201446 92.05220422 223.55754375 94.58399582 C223.54386509 102.50280353 223.53420046 110.42160088 223.53034186 118.34041959 C223.52586117 127.4861866 223.50831436 136.63180416 223.47934127 145.77752572 C223.45773296 152.84340625 223.44763803 159.9092447 223.44630075 166.97515792 C223.44525203 171.19681996 223.43933026 175.41834157 223.42148113 179.63996887 C223.40501527 183.61181995 223.40283763 187.58342483 223.41162014 191.55529785 C223.41239134 193.01257041 223.40803686 194.46985611 223.39816189 195.92709541 C223.38546467 197.91767239 223.3931028 199.90834804 223.40174389 201.89894676 C223.40027733 203.01264043 223.39881077 204.1263341 223.39729977 205.27377605 C223.81846239 208.65213408 224.75568443 210.53600471 226.76923656 213.25726891 C229.72391927 214.73461026 232.27271376 214.26958865 235.56708813 214.1610775 C237.01776408 214.11831843 238.46847002 214.07656777 239.91919994 214.03568077 C240.69076679 214.01316624 241.46233364 213.9906517 242.2572813 213.96745491 C247.22169163 213.83986504 252.1876473 213.79750705 257.15333462 213.74612045 C261.50737126 213.69637091 265.85529192 213.61275805 270.20673656 213.45160484 C298.31822691 212.44851713 298.31822691 212.44851713 305.69739819 217.10504723 C310.22919108 221.42924619 313.11997445 226.3472278 315.69010448 232.01563072 C317.20486406 235.16218058 319.1586013 237.58391217 321.39423656 240.25726891 C321.96400219 240.97914391 322.53376781 241.70101891 323.12079906 242.44476891 C326.10134716 245.72195923 327.50935143 247.17871136 332.08954906 247.46430016 C337.41698528 245.71676535 339.46082864 242.40171899 342.64423656 237.94476891 C343.24703442 237.13330406 343.84983227 236.32183922 344.47089672 235.48578453 C345.68250527 233.85219862 346.88625553 232.21275246 348.08173656 230.5673275 C349.58510268 228.50933413 351.11706743 226.4807238 352.67548656 224.46430016 C356.90072079 219.81363294 356.90072079 219.81363294 358.76923656 214.25726891 C360.14319843 214.27392349 360.14319843 214.27392349 361.54491711 214.29091454 C370.18165437 214.39114442 378.81819601 214.46724806 387.45538139 214.51632977 C391.89578298 214.54241181 396.33570359 214.57778373 400.77582836 214.63446617 C405.06172752 214.6888367 409.3471644 214.71869993 413.63338184 214.73165512 C415.26769125 214.74088606 416.90197566 214.75891245 418.53608799 214.78591919 C420.82749279 214.82227906 423.11699349 214.82721173 425.40864086 214.82489586 C426.71213985 214.83599892 428.01563885 214.84710197 429.35863781 214.85854149 C433.73838069 214.08641334 434.99124182 212.67573112 437.76923656 209.25726891 C438.505689 206.22016624 438.505689 206.22016624 438.3839674 202.87444115 C438.39373104 201.58598289 438.40349468 200.29752464 438.41355419 198.9700222 C438.39904954 197.5494087 438.38404881 196.1288002 438.3686018 194.70819664 C438.37046636 193.20657508 438.37450407 191.70495489 438.38054943 190.20334435 C438.39052129 186.13092186 438.36935956 182.05919577 438.34206939 177.98687434 C438.31823205 173.72464836 438.32118428 169.46243602 438.3207655 165.20015526 C438.31613815 158.04369892 438.29250028 150.88750872 438.25629711 143.73114586 C438.21454808 135.45647599 438.19698128 127.18204571 438.19367737 118.90727657 C438.19007809 110.09772999 438.17120465 101.28826965 438.14655709 92.47875905 C438.14032808 89.93995202 438.13669203 87.40115155 438.13352299 84.86233902 C438.12762264 80.87402961 438.11131026 76.88589142 438.08691883 72.89765358 C438.07947805 71.43352837 438.07540685 69.96938162 438.07493877 68.50523758 C438.07368113 66.50783544 438.05888839 64.51045544 438.04339123 62.51311302 C438.03641547 60.835973 438.03641547 60.835973 438.02929878 59.12495136 C437.76672594 56.22958453 437.4462565 54.61597657 435.76923656 52.25726891 C432.19071058 49.52918471 427.95452477 49.97256223 423.65316296 49.98984337 C422.82839551 49.98531226 422.00362806 49.98078114 421.15386766 49.97611272 C418.38635903 49.96343829 415.61904642 49.96509104 412.85151196 49.96674156 C410.86890948 49.96075827 408.88630934 49.95395319 406.90371227 49.94638634 C401.51534308 49.92870033 396.12703739 49.9240299 390.73864198 49.92275476 C386.24294691 49.92085694 381.74726668 49.91350087 377.25157732 49.90641057 C366.64718592 49.89011966 356.04282849 49.88524232 345.43842602 49.88666344 C334.49228231 49.88786554 323.54633557 49.8667515 312.60024172 49.83517611 C303.2073699 49.80904478 293.81456254 49.7982948 284.42165464 49.79957426 C278.80943344 49.80008475 273.19738728 49.79435315 267.58520222 49.77321815 C262.30825546 49.75388836 257.03165171 49.75367526 251.75469303 49.76825142 C249.81687833 49.77034705 247.87904244 49.76559392 245.94126415 49.7535305 C243.29786798 49.73813877 240.65566355 49.74734546 238.01229382 49.76279259 C236.85927551 49.7473619 236.85927551 49.7473619 235.68296391 49.73161948 C230.76270675 49.79525656 228.2148799 50.7328837 224.76923656 54.25726891 Z M-7.23076344 83.25726891 C-7.23076344 153.87726891 -7.23076344 224.49726891 -7.23076344 297.25726891 C19.82923656 297.25726891 46.88923656 297.25726891 74.76923656 297.25726891 C74.76923656 226.63726891 74.76923656 156.01726891 74.76923656 83.25726891 C47.70923656 83.25726891 20.64923656 83.25726891 -7.23076344 83.25726891 Z M91.76923656 83.25726891 C91.76923656 153.87726891 91.76923656 224.49726891 91.76923656 297.25726891 C131.36923656 297.75226891 131.36923656 297.75226891 171.76923656 298.25726891 C181.95827381 302.7857299 181.95827381 302.7857299 184.70673656 306.13226891 C185.25201 306.76906578 185.79728344 307.40586266 186.35908031 308.06195641 C189.34284652 312.70704395 190.02255514 317.28271066 190.08808422 322.72162437 C190.10795391 323.98247856 190.1278236 325.24333275 190.1482954 326.54239464 C190.16016899 327.90308011 190.17183201 329.26376744 190.18329906 330.62445641 C190.20202691 332.02836792 190.22160151 333.43226838 190.24198437 334.83615685 C190.29314117 338.51525895 190.33285437 342.19439749 190.37012768 345.87366295 C190.41027103 349.63443417 190.4612114 353.39505837 190.51142406 357.15570641 C190.60900195 364.52283702 190.68864884 371.88985446 190.76923656 379.25726891 C201.98923656 379.25726891 213.20923656 379.25726891 224.76923656 379.25726891 C225.30548656 376.76164391 225.84173656 374.26601891 226.39423656 371.69476891 C233.41122502 341.10812276 251.32421024 315.22637538 277.76923656 298.25726891 C298.07595253 286.08137014 320.40075728 281.00203164 343.89423656 281.19476891 C349.27736156 281.22570641 349.27736156 281.22570641 354.76923656 281.25726891 C354.76923656 271.35726891 354.76923656 261.45726891 354.76923656 251.25726891 C353.11923656 252.90726891 351.46923656 254.55726891 349.76923656 256.25726891 C343.47477523 261.72481081 337.56073778 264.81214443 328.94892406 264.57758141 C320.16922974 263.28737543 313.61357589 258.86653639 308.35908031 251.88617516 C307.13481194 250.20231089 305.91753443 248.51334513 304.70673656 246.81976891 C303.48754807 245.13294647 302.26751934 243.44673097 301.04658031 241.76117516 C300.51282787 241.01682213 299.97907543 240.2724691 299.42914867 239.50555992 C298.88137768 238.76362389 298.33360668 238.02168785 297.76923656 237.25726891 C297.2041589 236.39851662 296.63908123 235.53976433 296.05688 234.65498924 C293.97017322 232.01790209 293.97017322 232.01790209 290.88785839 231.63821983 C289.77218487 231.64060661 288.65651134 231.64299339 287.50702953 231.6454525 C286.2382597 231.63549248 284.96948986 231.62553246 283.66227245 231.61527061 C282.27865565 231.62867947 280.89503953 231.64215988 279.51142406 231.65570641 C278.08376895 231.65020173 276.65612177 231.64207305 275.2284956 231.63144493 C271.46745856 231.60855293 267.70700225 231.61277319 263.94593334 231.62524986 C257.94850811 231.64353906 251.95143021 231.63332503 245.95408535 231.59939003 C243.87241102 231.59334716 241.79149462 231.6064745 239.70987988 231.62137413 C230.80562704 231.59609517 223.12918683 230.97195492 215.45673656 226.19476891 C208.27376552 218.34361451 207.03405875 210.54854195 207.10981274 200.18842125 C207.09932903 198.91899681 207.08884533 197.64957237 207.07804394 196.34168053 C207.05010497 192.89178702 207.05233175 189.44251964 207.06033778 185.99254751 C207.06348044 182.37566917 207.0383774 178.7589842 207.01638317 175.14218712 C206.97905268 168.30720279 206.96680174 161.47241738 206.96375877 154.63734114 C206.95817503 145.39131059 206.91344876 136.14547252 206.87101746 126.89955139 C206.80527958 112.35207562 206.79149322 97.80502672 206.76923656 83.25726891 C168.81923656 83.25726891 130.86923656 83.25726891 91.76923656 83.25726891 Z M265.01923656 331.06976891 C246.00717444 353.08741438 239.018743 379.62453623 240.76923656 408.25726891 C243.72753597 433.70826425 257.44011904 457.97799688 277.39423656 474.00726891 C299.08222448 490.65502723 325.78835734 498.21046684 352.98408031 494.79242516 C378.76770005 490.84720178 401.25796205 476.94198318 417.73408031 456.86273766 C433.59740427 435.17207021 441.06283636 408.86719709 437.08173656 382.11664391 C432.39852549 354.94935976 418.15431719 331.44022158 395.54999828 315.47992516 C378.8169386 303.99114494 359.8643104 297.82351261 339.51923656 297.94476891 C338.51562084 297.95040855 337.51200512 297.9560482 336.4779768 297.96185875 C308.54070702 298.41495618 284.01906383 311.01622506 265.01923656 331.06976891 Z M-39.23076344 318.25726891 C-40.67975618 321.1552544 -40.37017049 323.67906566 -40.38466358 326.91798973 C-40.38904584 327.61037465 -40.39342809 328.30275957 -40.39794314 329.01612586 C-40.41134997 331.34756751 -40.41751418 333.67897136 -40.42363453 336.01044273 C-40.43153396 337.67748245 -40.43980282 339.34452044 -40.4484148 341.01155663 C-40.47465152 346.49578781 -40.48994328 351.98002671 -40.50420094 357.46430016 C-40.50955979 359.35062414 -40.51493729 361.23694807 -40.52033329 363.12327194 C-40.54196372 370.96824576 -40.5607015 378.81321751 -40.57195568 386.65821362 C-40.58820189 397.90985423 -40.62139403 409.16114987 -40.67835653 420.41266042 C-40.71702373 428.31929529 -40.7365845 436.22583776 -40.74187624 444.13256472 C-40.74553391 448.85734721 -40.75759909 453.58176192 -40.78997898 458.30644226 C-40.82000337 462.75115603 -40.82639175 467.19527839 -40.81459522 471.64007187 C-40.81437402 473.27151631 -40.82271782 474.90298774 -40.84024906 476.534338 C-40.86288716 478.76213907 -40.85467378 480.98778582 -40.83876514 483.21559715 C-40.84207529 484.46202901 -40.84538544 485.70846087 -40.84879589 486.99266338 C-40.03113045 491.31178141 -38.81248004 492.73352758 -35.23076344 495.25726891 C-32.27771172 495.74773151 -29.90406069 495.93065481 -26.95647144 495.88545799 C-26.12676602 495.89255238 -25.29706059 495.89964677 -24.44221258 495.90695614 C-21.66357521 495.92455041 -18.88633403 495.90642449 -16.10771656 495.88837242 C-14.11511059 495.8935107 -12.12250916 495.90079128 -10.1299181 495.91005516 C-4.71872322 495.92858895 0.69197971 495.91561791 6.10315418 495.89596486 C11.76362346 495.8795935 17.42406121 495.88838915 23.08454418 495.89348412 C32.59068705 495.89800675 42.09663327 495.88212457 51.60273266 495.85419273 C62.59607189 495.82214017 73.58905641 495.82215608 84.58242083 495.8394075 C95.15385769 495.85526636 105.7251644 495.84854312 116.29659557 495.83147049 C120.79731233 495.82459446 125.29792494 495.82563814 129.79864025 495.83301544 C135.09780853 495.84067152 140.39657269 495.82857405 145.69567204 495.80116653 C147.64153309 495.79427454 149.58743183 495.79419343 151.53329182 495.80138206 C154.18762843 495.81005875 156.84071277 495.79415138 159.49494457 495.7719326 C160.65277612 495.78429375 160.65277612 495.78429375 161.8339982 495.79690462 C166.75881351 495.7207033 169.31990126 494.78667009 172.76923656 491.25726891 C174.20995952 488.37582299 173.90189166 485.89370147 173.90967846 482.67247581 C173.91264958 481.988258 173.9156207 481.30404018 173.91868186 480.59908849 C173.92738697 478.29527637 173.92887863 475.99151611 173.93036938 473.68768883 C173.93499629 472.04035391 173.94002078 470.39302007 173.94541454 468.74568748 C173.95855324 464.26214252 173.96498642 459.77861255 173.9694252 455.29505134 C173.97235372 452.49524212 173.97645811 449.69543703 173.98092937 446.89562988 C173.99460852 438.13961054 174.00427299 429.38360058 174.00813127 420.62757128 C174.01261243 410.5128418 174.03016127 400.39824742 174.05913186 390.28355902 C174.08073528 382.47033891 174.09083484 374.65715685 174.09217238 366.84390718 C174.09322143 362.17511991 174.09915019 357.50645958 174.116992 352.8377037 C174.13344942 348.44562254 174.13563956 344.05376403 174.12685299 339.66166306 C174.12608135 338.04958564 174.13044206 336.43749638 174.14031124 334.82544899 C174.1529962 332.62437085 174.14717339 330.42408539 174.13672924 328.22301292 C174.1381958 326.99132976 174.13966236 325.75964659 174.14117336 324.49063969 C173.729567 320.91240811 172.99046887 319.07348896 170.76923656 316.25726891 C167.21392345 313.51931874 162.98525125 313.97250379 158.69112682 313.98984337 C157.87044293 313.98531226 157.04975903 313.98078114 156.20420593 313.97611272 C153.45051655 313.96343872 150.69702418 313.96509102 147.94330883 313.96674156 C145.97055843 313.96075825 143.99781038 313.95395316 142.02506542 313.94638634 C136.66355482 313.92870061 131.30210802 313.92402991 125.94057107 313.92275476 C121.46724392 313.92085691 116.99393169 313.91350082 112.52061027 313.90641057 C101.96895655 313.89011977 91.41733696 313.88524231 80.86567211 313.88666344 C69.97405957 313.88786554 59.08264497 313.86675152 48.19108254 313.83517611 C38.84491941 313.80904456 29.49882107 313.79829481 20.15262169 313.79957426 C14.56834581 313.80008474 8.98424585 313.79435351 3.40000629 313.77321815 C-1.85067618 313.75388798 -7.10101395 313.75367552 -12.35170841 313.76825142 C-14.2798478 313.77034701 -16.20800847 313.7655942 -18.13611126 313.7535305 C-20.76637224 313.73813807 -23.39543563 313.74734588 -26.02567005 313.76279259 C-26.79045797 313.75250546 -27.55524589 313.74221833 -28.34320921 313.73161948 C-33.25341036 313.79543911 -35.7912961 314.74327341 -39.23076344 318.25726891 Z " fill="#000000" transform="translate(57.23076343536377,-0.25726890563964844)"/>
<path d="M0 0 C7.87555505 5.49516221 11.99353043 11.98059129 15 21 C15.8217258 32.86787586 15.16512255 42.12068979 7.5 51.75 C2.83625125 56.72289876 -2.79428849 59.36257261 -9 62 C-8.35933594 62.29132813 -7.71867188 62.58265625 -7.05859375 62.8828125 C3.05520905 67.6759411 9.86161588 73.20359314 14.11328125 83.765625 C16.41869146 92.17478648 16.25597771 102.79027175 12.4453125 110.69140625 C7.08879282 119.24736066 0.81363713 125.18866629 -9 128 C-18.22436492 129.93228592 -26.4758384 129.08900138 -35 125 C-42.93723584 119.80352239 -47.93414633 112.94682206 -51 104 C-52.02505827 98.65456193 -52.00112847 93.420586 -52 88 C-55.5179306 86.05719504 -59.03984574 84.12172498 -62.5625 82.1875 C-63.55314453 81.64029297 -64.54378906 81.09308594 -65.56445312 80.52929688 C-67.50202466 79.46717294 -69.44882672 78.42169267 -71.4050293 77.39428711 C-74 76 -74 76 -75.87036133 74.74829102 C-77.69519269 73.52292884 -77.69519269 73.52292884 -81 73 C-85.15230123 74.32032809 -88.78966876 76.40829393 -92.5625 78.5625 C-94.22079834 79.46754272 -94.22079834 79.46754272 -95.91259766 80.39086914 C-99.28808879 82.23804108 -102.64412003 84.11749441 -106 86 C-109.61970442 87.98890258 -113.24777715 89.96234961 -116.875 91.9375 C-117.74592285 92.41356689 -118.6168457 92.88963379 -119.51416016 93.38012695 C-122.34057907 94.92415602 -125.16966359 96.46316367 -128 98 C-129.14484863 98.62213379 -130.28969727 99.24426758 -131.46923828 99.88525391 C-134.51639005 101.5363063 -137.57299486 103.16877755 -140.63555908 104.79104614 C-142.39690549 105.72839648 -144.15047056 106.6803223 -145.90380859 107.63256836 C-146.9861377 108.20241455 -148.0684668 108.77226074 -149.18359375 109.359375 C-150.13806396 109.86952148 -151.09253418 110.37966797 -152.07592773 110.90527344 C-155.59649021 112.22331653 -158.26784737 112.33042957 -162 112 C-164.9375 109.9375 -164.9375 109.9375 -167 107 C-167.6408745 103.01233645 -167.61129938 100.95471857 -165.41943359 97.53149414 C-162.53244713 94.51079156 -159.42929223 92.80509847 -155.7265625 90.99609375 C-155.01415405 90.63577057 -154.30174561 90.27544739 -153.56774902 89.90420532 C-152.04546372 89.1356531 -150.52053422 88.37231959 -148.9932251 87.61380005 C-145.01514868 85.63788505 -141.05606136 83.62447289 -137.09375 81.6171875 C-136.31001007 81.22159134 -135.52627014 80.82599518 -134.71878052 80.41841125 C-128.12202058 77.0828489 -121.60415086 73.62201954 -115.125 70.0625 C-114.25439941 69.58546631 -113.38379883 69.10843262 -112.48681641 68.61694336 C-108.61165289 66.48125767 -104.7873088 64.28893777 -101 62 C-105.1442899 59.76795798 -109.29033399 57.53919272 -113.4375 55.3125 C-114.06348083 54.97630646 -114.68946167 54.64011292 -115.33441162 54.29373169 C-125.39085322 48.89629074 -135.48891369 43.58818607 -145.65014648 38.38989258 C-163.77713347 29.05601852 -163.77713347 29.05601852 -167 25 C-167.75757576 18.18181818 -167.75757576 18.18181818 -165.4375 14.5625 C-162.19058547 12.48114453 -159.8511812 12.20666813 -156 12 C-153.42681425 12.93814064 -151.3590439 13.87068083 -149 15.1875 C-148.32340332 15.54553711 -147.64680664 15.90357422 -146.94970703 16.27246094 C-145.44611987 17.06897024 -143.94645774 17.87292021 -142.45019531 18.68310547 C-139.85319917 20.07890033 -137.23843276 21.43547995 -134.6171875 22.78515625 C-124.80549666 27.8437555 -115.06177056 33.01870329 -105.375 38.3125 C-104.46169922 38.81064209 -103.54839844 39.30878418 -102.60742188 39.82202148 C-98.68033248 41.96834677 -94.76262205 44.12665069 -90.875 46.34375 C-90.27252441 46.68237061 -89.67004883 47.02099121 -89.04931641 47.36987305 C-87.51481685 48.23378421 -85.98749323 49.11040939 -84.4609375 49.98828125 C-81.54082074 51.1887737 -80.92531818 50.98976931 -78 50 C-76.04938853 49.06184877 -74.12175102 48.07535552 -72.2109375 47.05859375 C-71.10492188 46.47529297 -69.99890625 45.89199219 -68.859375 45.29101562 C-67.70953125 44.67935547 -66.5596875 44.06769531 -65.375 43.4375 C-63.09312209 42.22414065 -60.80936202 41.01431212 -58.5234375 39.80859375 C-57.51200684 39.27032959 -56.50057617 38.73206543 -55.45849609 38.17749023 C-53 37 -53 37 -51 37 C-51.09539062 36.39414063 -51.19078125 35.78828125 -51.2890625 35.1640625 C-52.73432992 24.24052971 -50.69374402 15.8506171 -44 7 C-33.18915764 -5.13319861 -14.15309007 -8.72856077 0 0 Z M-31.4375 19.5625 C-34.18349002 23.84624443 -34.65937346 28.01806719 -34 33 C-32.21261411 37.81817066 -29.258506 41.160996 -25 44 C-20.64749493 45.45083502 -16.41886245 45.85342929 -12.0625 44.31640625 C-7.72635781 42.06422895 -5.18363863 39.45126336 -3 35 C-1.62884528 30.20095848 -1.51456345 26.28893065 -3.5625 21.6875 C-6.13819324 17.28954759 -9.12297708 14.81666884 -14.10546875 13.40234375 C-21.33181595 12.12125294 -26.44190662 14.31072235 -31.4375 19.5625 Z M-43 52 C-45.81740393 53.44900148 -48.62800163 54.91073706 -51.4375 56.375 C-52.23994141 56.7875 -53.04238281 57.2 -53.86914062 57.625 C-54.63291016 58.02460938 -55.39667969 58.42421875 -56.18359375 58.8359375 C-56.89056396 59.20251465 -57.59753418 59.5690918 -58.32592773 59.94677734 C-60.1680238 60.90361984 -60.1680238 60.90361984 -61 63 C-58.2641322 64.56781465 -55.50958401 66.09937632 -52.75 67.625 C-51.97269531 68.07101563 -51.19539063 68.51703125 -50.39453125 68.9765625 C-49.64042969 69.3890625 -48.88632812 69.8015625 -48.109375 70.2265625 C-47.07248535 70.80784912 -47.07248535 70.80784912 -46.01464844 71.40087891 C-43.96225347 72.23318699 -43.96225347 72.23318699 -41.86376953 71.18701172 C-41.24872559 70.79529785 -40.63368164 70.40358398 -40 70 C-39.36320312 69.5978125 -38.72640625 69.195625 -38.0703125 68.78125 C-37.42835938 68.3584375 -36.78640625 67.935625 -36.125 67.5 C-32.85650414 65.425056 -29.75629013 64.03297979 -26 63 C-27.49735408 60.00529184 -29.82591319 59.48176072 -32.8125 58.0625 C-36.50747724 56.30277272 -39.81604295 54.5826286 -43 52 Z M-30.609375 84.76953125 C-33.99813468 89.5956581 -34.75122956 93.17797088 -34 99 C-32.14143173 104.26594344 -29.39685804 106.79395768 -25 110 C-19.5942951 111.80190163 -15.49937716 111.60991613 -10.3125 109.5 C-6.28541652 106.88609031 -3.8652639 103.38254482 -2 99 C-1.0642255 93.1774031 -2.69051163 88.74256901 -6 84 C-9.88582591 80.47564627 -13.54977845 79.18549434 -18.6953125 78.84765625 C-23.65047941 79.17520118 -27.28459559 81.11388787 -30.609375 84.76953125 Z " fill="#000000" transform="translate(464,70)"/>
<path d="M0 0 C3.64554806 1.32853376 7.06215771 3.04974771 10.52075195 4.80126953 C11.52954816 5.2983246 12.53834436 5.79537968 13.57771015 6.30749702 C15.68605447 7.34800168 17.79145759 8.39448571 19.89398575 9.44669342 C22.8059958 10.9029792 25.72568639 12.34197769 28.6499939 13.77337646 C40.6867629 19.67075262 52.6788744 25.65927958 64.67651367 31.63574219 C69.04800034 33.81248054 73.42282514 35.98229394 77.80053711 38.14648438 C83.14266298 40.78752192 88.47885553 43.44019083 93.8109684 46.10138321 C95.82913784 47.10619501 97.84935479 48.10690556 99.87166405 49.10335922 C102.68083363 50.48855895 105.4821132 51.88859882 108.28198242 53.29248047 C109.11043671 53.69670731 109.93889099 54.10093414 110.79244995 54.51741028 C115.19524043 56.74676505 118.33955267 58.67173029 121 63 C121.5625 66.5 121.5625 66.5 121 70 C116.77159526 75.40127662 110.92314683 77.89428599 104.87915039 80.8918457 C103.75664383 81.45828293 102.63413727 82.02472015 101.47761536 82.60832214 C98.41202439 84.1545987 95.34025313 85.68818856 92.26684499 87.21885705 C89.69771687 88.49984668 87.13174806 89.7870953 84.56575674 91.07435387 C78.51226093 94.11106359 72.45374149 97.13756804 66.3918457 100.1574707 C60.14409582 103.27015491 53.90451658 106.39876719 47.66881567 109.53551036 C42.3065779 112.2322525 36.93972197 114.9196305 31.56900209 117.59944028 C28.36480847 119.19829663 25.16240011 120.80048494 21.96428108 122.41146278 C18.39969355 124.2063647 14.82553979 125.98164285 11.25024414 127.75512695 C9.66735596 128.55685837 9.66735596 128.55685837 8.05249023 129.37478638 C7.07542618 129.85558151 6.09836212 130.33637665 5.09169006 130.83174133 C4.24829103 131.25295918 3.40489199 131.67417704 2.5359354 132.10815907 C-0.49031899 133.172436 -2.81247425 133.28188458 -6 133 C-8.69990662 131.20006226 -10.5418865 129.916227 -12 127 C-12.09687715 125.39990344 -12.13067815 123.79580324 -12.13371277 122.19277954 C-12.13797775 121.17769821 -12.14224274 120.16261688 -12.14663696 119.11677551 C-12.14595718 117.43982857 -12.14595718 117.43982857 -12.14526367 115.72900391 C-12.14862228 114.55495499 -12.1519809 113.38090607 -12.15544128 112.17127991 C-12.16332885 108.94601598 -12.16661977 105.72079064 -12.16725707 102.49551821 C-12.16820576 99.80418154 -12.17188367 97.11285106 -12.17542917 94.42151678 C-12.18357721 88.0716981 -12.18601311 81.72189361 -12.18530273 75.37207031 C-12.18470208 68.82033233 -12.19525065 62.26867673 -12.2110464 55.7169596 C-12.22412033 50.09396941 -12.22948668 44.47100615 -12.22884732 38.84800088 C-12.22859226 35.48880329 -12.23144793 32.12967884 -12.24202538 28.77049637 C-12.25179143 25.02352257 -12.24896046 21.27676218 -12.24291992 17.52978516 C-12.24853943 16.41586899 -12.25415894 15.30195282 -12.25994873 14.15428162 C-12.25575424 13.13356064 -12.25155975 12.11283966 -12.24723816 11.06118774 C-12.24778293 10.17517694 -12.24832769 9.28916615 -12.24888897 8.37630653 C-11.97521747 5.76338489 -11.42523306 4.19938547 -10 2 C-6.14775151 -0.56816566 -4.60273078 -0.49282182 0 0 Z M6 23 C6 51.38 6 79.76 6 109 C11.0353558 107.34149149 11.0353558 107.34149149 15.75863647 105.24093628 C16.78070694 104.73196304 16.78070694 104.73196304 17.82342529 104.21270752 C18.54991272 103.84586853 19.27640015 103.47902954 20.02490234 103.10107422 C20.80606415 102.71063934 21.58722595 102.32020447 22.39205933 101.91793823 C24.95860135 100.6339738 27.52226733 99.3443752 30.0859375 98.0546875 C31.87080681 97.16038664 33.65585375 96.26644022 35.44107056 95.37283325 C40.12814258 93.02548803 44.81279166 90.67334686 49.49694824 88.32019043 C54.28166447 85.91758385 59.06866231 83.5195324 63.85546875 81.12109375 C73.23921467 76.41851162 82.62040658 71.71085846 92 67 C88.88818294 63.65330844 85.19839586 61.89623786 81.14794922 59.89575195 C80.34932465 59.49541748 79.55070007 59.09508301 78.72787476 58.68261719 C76.08967725 57.36201536 73.44728502 56.05005329 70.8046875 54.73828125 C68.97267777 53.82380504 67.14090387 52.90885626 65.30935669 51.99345398 C61.47286073 50.07750684 57.6344339 48.16550548 53.79443359 46.2565918 C48.86056606 43.80382702 43.9302167 41.34409196 39.00111198 38.88177204 C35.22062979 36.99360404 31.43902025 35.10770421 27.65698624 33.22264671 C25.83783274 32.3159274 24.01887076 31.40882374 22.20009995 30.50133705 C19.66553 29.23747044 17.12962507 27.97632732 14.59326172 26.71606445 C13.83480957 26.33739731 13.07635742 25.95873016 12.29492188 25.56858826 C9.28069562 23.79054588 9.28069562 23.79054588 6 23 Z " fill="#000000" transform="translate(350,330)"/>
<path d="M0 0 C27.39 0 54.78 0 83 0 C83 27.39 83 54.78 83 83 C55.61 83 28.22 83 0 83 C0 55.61 0 28.22 0 0 Z M17 17 C17 33.17 17 49.34 17 66 C33.17 66 49.34 66 66 66 C66 49.83 66 33.66 66 17 C49.83 17 33.66 17 17 17 Z " fill="#000000" transform="translate(165,198)"/>
<path d="M0 0 C27.39 0 54.78 0 83 0 C83 27.39 83 54.78 83 83 C55.61 83 28.22 83 0 83 C0 55.61 0 28.22 0 0 Z M17 17 C17 33.17 17 49.34 17 66 C33.17 66 49.34 66 66 66 C66 49.83 66 33.66 66 17 C49.83 17 33.66 17 17 17 Z " fill="#000000" transform="translate(165,99)"/>
<path d="M0 0 C5.94 0 11.88 0 18 0 C17.98316162 1.51352051 17.96632324 3.02704102 17.94897461 4.58642578 C17.89827593 10.21135001 17.90671417 15.8349121 17.93286133 21.45996094 C17.93594022 23.89261102 17.92306047 26.32533646 17.89379883 28.7578125 C17.85446503 32.25923529 17.87285674 35.75637541 17.90234375 39.2578125 C17.87776596 40.34240753 17.85318817 41.42700256 17.8278656 42.54446411 C17.85666698 48.34486737 17.85666698 48.34486737 20.99124146 52.95501709 C23.36740085 54.57184043 23.36740085 54.57184043 25.83180237 55.80734253 C29.85436708 58.02002913 31.34860381 61.63206801 33.25 65.625 C35.10688215 73.98096968 34.82837257 81.27490947 30.5625 88.80078125 C27.12225402 93.64292747 23.78008516 96.55497871 18 98 C18 114.83 18 131.66 18 149 C12.06 149 6.12 149 0 149 C0 132.17 0 115.34 0 98 C-1.65 97.34 -3.3 96.68 -5 96 C-10.32757315 92.52212481 -14.32423641 88.21018272 -16 82 C-17.13670892 73.01356536 -16.40730221 65.44033489 -11 58 C-8.05397973 54.81287321 -4.89864622 52.94932311 -1 51 C-0.67 34.17 -0.34 17.34 0 0 Z M2 70 C0.74588432 73.36174137 0.74588432 73.36174137 1 77 C3.43072497 80.46194162 4.87821287 81.79395747 9.0625 82.5625 C12.65902947 81.87380287 13.82074049 80.90567935 16 78 C17.07642709 76.11149645 17.07642709 76.11149645 17 74 C15.6007781 71.20155619 14.21208617 69.21208617 12 67 C7.68724156 66.53122191 4.92988484 66.63605815 2 70 Z " fill="#000000" transform="translate(115,330)"/>
<path d="M0 0 C5.94 0 11.88 0 18 0 C17.99887207 2.52366211 17.99774414 5.04732422 17.99658203 7.64746094 C17.9972093 15.98163767 18.03064849 24.31544943 18.0802784 32.64947128 C18.10936255 37.702963 18.12736049 42.75598973 18.12011719 47.80957031 C18.11353436 52.68581768 18.13594898 57.5611454 18.17855453 62.43720245 C18.18970449 64.29830909 18.1903689 66.15950879 18.18042374 68.02062225 C18.16828283 70.62642451 18.19326997 73.22940592 18.22705078 75.83496094 C18.21482986 76.60604187 18.20260895 77.3771228 18.1900177 78.17156982 C18.18219404 80.60209742 18.18219404 80.60209742 19 84 C21.81130793 86.4650923 21.81130793 86.4650923 25 88 C31.18358026 93.82955849 34.00652636 98.81950621 34.3125 107.375 C34.12998032 115.29850145 31.90814695 120.69056377 26.5546875 126.5234375 C24.02003336 128.93072208 21.58636938 131 18 131 C18 136.94 18 142.88 18 149 C12.06 149 6.12 149 0 149 C0 143.06 0 137.12 0 131 C-1.65 130.34 -3.3 129.68 -5 129 C-10.32849403 125.52152365 -14.35555429 121.22196709 -16 115 C-17.12168734 106.27034636 -16.80599923 99.2691589 -11.65234375 91.95703125 C-8.45319296 88.16796613 -5.41784771 86.20892386 -1 84 C-0.67 56.28 -0.34 28.56 0 0 Z M1 105 C1 108.54361243 1.34149956 110.86591591 3.125 113.9375 C6.18452459 115.6712306 8.56817525 115.42145216 12 115 C14.43776333 113.20375334 15.62754169 111.76974718 16.9375 109.0625 C17.0303453 105.99860514 15.78725916 104.42556601 14 102 C8.33503804 98.22335869 4.93840973 99.55572773 1 105 Z " fill="#000000" transform="translate(49,330)"/>
<path d="M0 0 C5.94 0 11.88 0 18 0 C18 11.55 18 23.1 18 35 C19.98 35.66 21.96 36.32 24 37 C29.49899948 41.64478597 33.50224625 47.55754781 34.3125 54.7890625 C34.58827415 61.59723678 33.96271253 67.32849874 30 73 C27.22985567 75.98515554 24.37943641 78.7159242 21 81 C20.01 81 19.02 81 18 81 C18 103.44 18 125.88 18 149 C12.06 149 6.12 149 0 149 C0.00112793 146.99131836 0.00225586 144.98263672 0.00341797 142.91308594 C0.00279034 136.27520761 -0.03067052 129.637787 -0.0802784 123.000103 C-0.10934744 118.97566013 -0.12736569 114.95180042 -0.12011719 110.92724609 C-0.11352806 107.04293478 -0.13598255 103.15977619 -0.17855453 99.27570343 C-0.18969362 97.79419305 -0.19037847 96.31256587 -0.18042374 94.83104706 C-0.16825806 92.75425168 -0.19330457 90.68097899 -0.22705078 88.60449219 C-0.231492 87.42312683 -0.23593323 86.24176147 -0.24050903 85.02459717 C-0.74075976 81.72810554 -0.74075976 81.72810554 -3.88424683 79.72784424 C-4.91244537 79.15765564 -5.94064392 78.58746704 -7 78 C-12.41753974 73.35639451 -15.56333349 68.78003233 -16.38671875 61.65234375 C-16.60333039 54.66848583 -16.49838387 48.59798882 -12 43 C-8.23191918 39.04660373 -5.36662621 36.34165655 0 35 C0 23.45 0 11.9 0 0 Z M5.25 51.1875 C2.79913665 52.97631387 2.79913665 52.97631387 1 56 C1.08246846 59.87601747 1.57917461 61.53108028 4.1875 64.4375 C6.91925777 66.26371208 6.91925777 66.26371208 10.125 65.9375 C13.05956406 64.98057694 14.2855743 64.52652208 16 62 C17.16817193 58.82924761 17.18835977 57.47643942 15.9375 54.3125 C12.81578023 50.58657641 9.83594191 49.2072069 5.25 51.1875 Z " fill="#000000" transform="translate(181,330)"/>
<path d="M0 0 C16.5 0 33 0 50 0 C50 5.61 50 11.22 50 17 C33.5 17 17 17 0 17 C0 11.39 0 5.78 0 0 Z " fill="#000000" transform="translate(66,264)"/>
<path d="M0 0 C16.5 0 33 0 50 0 C50 5.61 50 11.22 50 17 C33.5 17 17 17 0 17 C0 11.39 0 5.78 0 0 Z " fill="#000000" transform="translate(66,231)"/>
<path d="M0 0 C16.5 0 33 0 50 0 C50 5.61 50 11.22 50 17 C33.5 17 17 17 0 17 C0 11.39 0 5.78 0 0 Z " fill="#000000" transform="translate(66,198)"/>
<path d="M0 0 C16.5 0 33 0 50 0 C50 5.61 50 11.22 50 17 C33.5 17 17 17 0 17 C0 11.39 0 5.78 0 0 Z " fill="#000000" transform="translate(66,165)"/>
<path d="M0 0 C16.5 0 33 0 50 0 C50 5.61 50 11.22 50 17 C33.5 17 17 17 0 17 C0 11.39 0 5.78 0 0 Z " fill="#000000" transform="translate(66,132)"/>
<path d="M0 0 C16.5 0 33 0 50 0 C50 5.61 50 11.22 50 17 C33.5 17 17 17 0 17 C0 11.39 0 5.78 0 0 Z " fill="#000000" transform="translate(66,99)"/>
<path d="M0 0 C5.61 0 11.22 0 17 0 C17 5.61 17 11.22 17 17 C11.39 17 5.78 17 0 17 C0 11.39 0 5.78 0 0 Z " fill="#000000" transform="translate(132,33)"/>
<path d="M0 0 C5.61 0 11.22 0 17 0 C17 5.61 17 11.22 17 17 C11.39 17 5.78 17 0 17 C0 11.39 0 5.78 0 0 Z " fill="#000000" transform="translate(99,33)"/>
<path d="M0 0 C5.61 0 11.22 0 17 0 C17 5.61 17 11.22 17 17 C11.39 17 5.78 17 0 17 C0 11.39 0 5.78 0 0 Z " fill="#000000" transform="translate(66,33)"/>
</svg>
