<?xml version="1.0" encoding="UTF-8"?>
<svg version="1.1" xmlns="http://www.w3.org/2000/svg" width="512" height="512">
<path d="M0 0 C1.23746223 -0.00855011 1.23746223 -0.00855011 2.49992371 -0.01727295 C4.24578573 -0.02671623 5.99166552 -0.03325426 7.73754883 -0.03710938 C10.39761793 -0.04680086 13.05690953 -0.07782412 15.71679688 -0.109375 C17.41536001 -0.11590689 19.11392865 -0.12115663 20.8125 -0.125 C21.60332474 -0.1373468 22.39414948 -0.1496936 23.2089386 -0.16241455 C28.86267325 -0.13981099 32.88020462 1.01816378 37.3984375 4.640625 C41.82754821 9.60321403 43.27689619 14.75838267 44.60546875 21.203125 C45.17007812 20.91824219 45.7346875 20.63335938 46.31640625 20.33984375 C53.97285028 16.53775294 60.04404959 13.83274439 68.60546875 16.203125 C75.50710023 19.8317935 80.99500777 25.12996114 86.41796875 30.640625 C87.15466797 31.36572266 87.89136719 32.09082031 88.65039062 32.83789062 C94.82097476 39.04191966 99.16372019 44.58572926 99.78125 53.57421875 C99.37658367 59.62622854 96.29182492 64.87903448 93.60546875 70.203125 C94.89130859 70.49703125 94.89130859 70.49703125 96.203125 70.796875 C104.12661337 72.86930939 109.2242042 75.09087221 113.60546875 82.203125 C114.87649488 86.0162034 114.78739609 89.62286972 114.80859375 93.59765625 C114.81429382 94.42263107 114.8199939 95.2476059 114.8258667 96.09757996 C114.83530998 97.84344198 114.84184801 99.58932177 114.84570312 101.33520508 C114.85539461 103.99527418 114.88641787 106.65456578 114.91796875 109.31445312 C114.92450064 111.01301626 114.92975038 112.7115849 114.93359375 114.41015625 C114.94594055 115.20098099 114.95828735 115.99180573 114.9710083 116.80659485 C114.94840474 122.4603295 113.79042997 126.47786087 110.16796875 130.99609375 C105.20537972 135.42520446 100.05021108 136.87455244 93.60546875 138.203125 C93.89035156 138.76773438 94.17523438 139.33234375 94.46875 139.9140625 C98.27084081 147.57050653 100.97584936 153.64170584 98.60546875 162.203125 C94.97680025 169.10475648 89.67863261 174.59266402 84.16796875 180.015625 C83.44287109 180.75232422 82.71777344 181.48902344 81.97070312 182.24804688 C75.76667409 188.41863101 70.22286449 192.76137644 61.234375 193.37890625 C55.18236521 192.97423992 49.92955927 189.88948117 44.60546875 187.203125 C44.40953125 188.06035156 44.21359375 188.91757813 44.01171875 189.80078125 C41.93928436 197.72426962 39.71772154 202.82186045 32.60546875 207.203125 C29.45615982 208.25289464 27.21732419 208.30444095 23.91796875 208.265625 C22.92410156 208.25660156 21.93023437 208.24757812 20.90625 208.23828125 C20.14699219 208.22667969 19.38773437 208.21507812 18.60546875 208.203125 C18.60915592 208.75604092 18.61284309 209.30895683 18.616642 209.87862778 C18.70498026 223.33243635 18.77091667 236.78619412 18.81271744 250.24023056 C18.8336104 256.74652649 18.86195983 263.25261343 18.90722656 269.75878906 C18.95062245 276.03520009 18.97459297 282.31140984 18.98497772 288.58795929 C18.99238028 290.98502014 19.00683534 293.38206973 19.02838898 295.7790451 C19.05733891 299.13126105 19.06142816 302.48264052 19.05957031 305.83496094 C19.07395142 306.83045959 19.08833252 307.82595825 19.10314941 308.85162354 C19.06303128 315.52181428 19.06303128 315.52181428 16.8270874 318.85113525 C14.60546875 320.203125 14.60546875 320.203125 10.60546875 320.203125 C10.60546875 325.483125 10.60546875 330.763125 10.60546875 336.203125 C12.58546875 336.533125 14.56546875 336.863125 16.60546875 337.203125 C19.71254468 341.86373889 18.9740534 346.65871012 18.98046875 352.140625 C19.00496094 353.23826172 19.02945312 354.33589844 19.0546875 355.46679688 C19.05855469 356.52318359 19.06242187 357.57957031 19.06640625 358.66796875 C19.07462402 359.633396 19.0828418 360.59882324 19.09130859 361.59350586 C18.46183164 364.97465117 17.33949384 366.16718084 14.60546875 368.203125 C13.28546875 368.203125 11.96546875 368.203125 10.60546875 368.203125 C10.60546875 373.483125 10.60546875 378.763125 10.60546875 384.203125 C12.58546875 384.533125 14.56546875 384.863125 16.60546875 385.203125 C18.99659084 388.78980813 18.83927902 390.36709069 18.80078125 394.62109375 C18.79433594 395.87470703 18.78789062 397.12832031 18.78125 398.41992188 C18.76449219 399.73025391 18.74773437 401.04058594 18.73046875 402.390625 C18.72043514 403.72590487 18.71130995 405.06119189 18.703125 406.39648438 C18.67952167 409.66554515 18.64659469 412.93424528 18.60546875 416.203125 C19.34827087 416.19424255 20.091073 416.18536011 20.85638428 416.1762085 C27.8599678 416.09602756 34.8633921 416.03514314 41.86730576 415.99587631 C45.46805161 415.97500987 49.06841791 415.94671079 52.66894531 415.90136719 C56.14434788 415.85787375 59.61938563 415.83398079 63.09503937 415.82361603 C65.06492659 415.81263885 67.03466722 415.781418 69.0043335 415.74993896 C70.80574799 415.74948578 70.80574799 415.74948578 72.64355469 415.74902344 C73.7005658 415.74014099 74.7575769 415.73125854 75.84661865 415.72210693 C79.3883979 416.33963226 80.5351171 417.2853666 82.60546875 420.203125 C83.11340332 422.92591858 83.11340332 422.92591858 83.12304688 426.08227539 C83.13565552 427.26773453 83.14826416 428.45319366 83.16125488 429.67457581 C83.1491095 431.5932975 83.1491095 431.5932975 83.13671875 433.55078125 C83.13941664 434.88635032 83.14330154 436.22191747 83.14831543 437.55747986 C83.15421093 440.35939194 83.14565645 443.16079382 83.12695312 445.96264648 C83.1043169 449.52441543 83.11718623 453.08496835 83.14124298 456.64669132 C83.1558332 459.40859298 83.15103274 462.17021603 83.14073181 464.932127 C83.13682209 466.87444227 83.14882266 468.81676905 83.16125488 470.75904846 C83.03476296 482.87312506 80.05824214 492.34863564 71.60546875 501.203125 C61.59241848 510.76189699 51.0251879 512.80549505 37.52490234 512.71105957 C36.12905924 512.71567726 34.73322101 512.72203597 33.33739281 512.72996855 C29.52961601 512.74656615 25.72224357 512.7384596 21.9144659 512.72602367 C17.79713733 512.71693597 13.67987604 512.73096127 9.56256104 512.74194336 C1.50775746 512.75969363 -6.54689669 512.75590421 -14.60170603 512.7442928 C-21.15027495 512.73524497 -27.69880211 512.7340403 -34.24737549 512.73838806 C-35.18078125 512.73900099 -36.114187 512.73961393 -37.07587779 512.74024543 C-38.97230388 512.74152438 -40.86872996 512.74282124 -42.76515603 512.7441358 C-60.53174199 512.75553136 -78.29824527 512.74244396 -96.06481767 512.72093433 C-111.29650837 512.70306428 -126.52807712 512.70616868 -141.75976562 512.72460938 C-159.46446171 512.74603417 -177.16908541 512.75443282 -194.87379265 512.74216032 C-196.76309076 512.74088618 -198.65238888 512.73962869 -200.54168701 512.73838806 C-201.47116358 512.73777096 -202.40064016 512.73715386 -203.35828269 512.73651806 C-209.89603838 512.73306999 -216.43374802 512.73888178 -222.97149658 512.74830627 C-230.9430731 512.75954553 -238.91449214 512.75644578 -246.8860507 512.7351833 C-250.95026277 512.72469874 -255.01421265 512.72050649 -259.07842255 512.73377991 C-262.80426025 512.74576384 -266.52959456 512.7390436 -270.25538707 512.7178697 C-272.23006113 512.71133714 -274.20477057 512.72428589 -276.17940712 512.73809862 C-288.19462871 512.63300004 -297.61961602 509.57993443 -306.39453125 501.203125 C-317.40997649 489.66417345 -317.97065301 477.51095336 -317.78515625 462.41015625 C-317.77768178 460.60984429 -317.77199456 458.80952411 -317.76800537 457.00920105 C-317.75284383 452.30566339 -317.7136456 447.6026318 -317.66918945 442.89929199 C-317.62803041 438.08592572 -317.60995059 433.27247647 -317.58984375 428.45898438 C-317.54714065 419.0401441 -317.47900643 409.62167688 -317.39453125 400.203125 C-318.16603516 400.21200745 -318.93753906 400.22088989 -319.73242188 400.2300415 C-327.02910203 400.31043275 -334.32556524 400.37121311 -341.62257385 400.41037369 C-345.37341314 400.43118397 -349.12388427 400.45937967 -352.87451172 400.50488281 C-356.49905987 400.5485775 -360.12325552 400.57231136 -363.74804688 400.58263397 C-365.12587019 400.58998332 -366.5036758 400.60433446 -367.88134766 400.62604523 C-377.00991524 400.76408586 -383.5392699 400.45782267 -390.63671875 394.23828125 C-391.17554688 393.58730469 -391.714375 392.93632812 -392.26953125 392.265625 C-392.82382812 391.61722656 -393.378125 390.96882813 -393.94921875 390.30078125 C-397.85700117 384.62921595 -397.6911158 379.33458309 -397.68505859 372.66479492 C-397.69177582 371.60402237 -397.69849304 370.54324982 -397.70541382 369.45033264 C-397.72440644 365.94470531 -397.72831875 362.43926933 -397.73046875 358.93359375 C-397.73689602 356.49367698 -397.74362433 354.05376098 -397.75064087 351.61384583 C-397.76261697 346.49864923 -397.76632136 341.38352018 -397.76513672 336.26831055 C-397.76493357 329.72128543 -397.7922308 323.17469457 -397.82668114 316.62777233 C-397.84894483 311.58765177 -397.8529744 306.54763578 -397.85191727 301.50747108 C-397.8542742 299.09419573 -397.86310288 296.68091753 -397.878582 294.26769066 C-397.89822935 290.88803287 -397.89240789 287.50931232 -397.88037109 284.12963867 C-397.89161011 283.13767487 -397.90284912 282.14571106 -397.91442871 281.12368774 C-397.84866636 273.83855294 -396.27572798 268.49101153 -391.4296875 262.9609375 C-390.45322266 262.15269531 -390.45322266 262.15269531 -389.45703125 261.328125 C-388.80863281 260.77382813 -388.16023438 260.21953125 -387.4921875 259.6484375 C-382.84497629 256.44644839 -378.90088411 255.95621078 -373.30932617 255.97607422 C-372.61609253 255.97578217 -371.92285889 255.97549011 -371.20861816 255.97518921 C-368.93061551 255.97657603 -366.6529451 255.99210633 -364.375 256.0078125 C-362.79031045 256.01154494 -361.20561859 256.01439082 -359.6209259 256.01638794 C-355.45998712 256.02400623 -351.29918904 256.04363912 -347.13830566 256.0657959 C-342.88844709 256.08629328 -338.63856568 256.09539797 -334.38867188 256.10546875 C-326.05722005 256.12688682 -317.72590939 256.16205416 -309.39453125 256.203125 C-309.39453125 250.923125 -309.39453125 245.643125 -309.39453125 240.203125 C-311.37453125 239.873125 -313.35453125 239.543125 -315.39453125 239.203125 C-317.74572524 235.67633401 -317.60896577 234.17433015 -317.51953125 230.015625 C-317.50148438 228.92894531 -317.4834375 227.84226563 -317.46484375 226.72265625 C-317.44164062 225.89121094 -317.4184375 225.05976563 -317.39453125 224.203125 C-318.13733337 224.21200745 -318.8801355 224.22088989 -319.64544678 224.2300415 C-326.6490303 224.31022244 -333.6524546 224.37110686 -340.65636826 224.41037369 C-344.25711411 224.43124013 -347.85748041 224.45953921 -351.45800781 224.50488281 C-354.93341038 224.54837625 -358.40844813 224.57226921 -361.88410187 224.58263397 C-363.85398909 224.59361115 -365.82372972 224.624832 -367.793396 224.65631104 C-369.59481049 224.65676422 -369.59481049 224.65676422 -371.43261719 224.65722656 C-372.4896283 224.66610901 -373.5466394 224.67499146 -374.63568115 224.68414307 C-377.39453125 224.203125 -377.39453125 224.203125 -379.73480225 222.86347961 C-382.42713897 218.54797364 -381.95009555 214.16740489 -381.91210938 209.18334961 C-381.92262329 207.49722565 -381.92262329 207.49722565 -381.93334961 205.77703857 C-381.9509834 202.05293208 -381.93928144 198.32958331 -381.92578125 194.60546875 C-381.92847592 192.01436721 -381.93235813 189.42326666 -381.93737793 186.83216858 C-381.94328141 181.39394607 -381.93506939 175.95600792 -381.91601562 170.51782227 C-381.89432278 164.25460067 -381.90124147 157.99190151 -381.92332125 151.72869295 C-381.94376733 145.68449467 -381.9414644 139.64054902 -381.92979431 133.59631538 C-381.92713527 131.03481535 -381.93036767 128.47330192 -381.93971252 125.91181755 C-381.94994233 122.31708134 -381.93428214 118.72332587 -381.91210938 115.12866211 C-381.9202063 114.08045792 -381.92830322 113.03225372 -381.93664551 111.95228577 C-381.80810454 100.62679376 -378.23852419 91.41990177 -370.39453125 83.203125 C-361.17400072 74.40091722 -351.13476548 71.58922381 -338.60716248 71.69087219 C-337.47211448 71.68407651 -336.33706649 71.67728082 -335.1676231 71.6702792 C-331.39206508 71.65242591 -327.61713063 71.66276212 -323.84155273 71.6730957 C-321.12398157 71.66821247 -318.40644233 71.65731039 -315.68888855 71.64663696 C-309.85207771 71.62679389 -304.01539746 71.62127495 -298.17855644 71.62557411 C-289.73747396 71.63168286 -281.29655746 71.61476329 -272.85550869 71.59216418 C-259.1552223 71.55601176 -245.45496866 71.53680478 -231.75463867 71.52905273 C-218.4567718 71.52147848 -205.15893495 71.5083585 -191.86108398 71.48608398 C-191.04069397 71.48471329 -190.22030395 71.48334259 -189.37505364 71.48193035 C-180.42366032 71.4668113 -171.47227062 71.45008408 -162.52088261 71.43210888 C-161.73496112 71.43053691 -160.94903963 71.42896494 -160.13930233 71.42734533 C-155.42779075 71.41791982 -155.42779075 71.41791982 -150.71627951 71.40832772 C-141.51522983 71.38950304 -132.31420214 71.37562904 -123.11313409 71.37053206 C-117.35009329 71.36729861 -111.58706169 71.36104768 -105.82402646 71.3524038 C-102.49617899 71.34759717 -99.16836866 71.34511134 -95.84051514 71.34587288 C-92.2400042 71.34653543 -88.63955062 71.34122222 -85.03904724 71.33442688 C-83.44818815 71.33705244 -83.44818815 71.33705244 -81.82519048 71.33973104 C-80.8665749 71.33672339 -79.90795931 71.33371574 -78.92029476 71.33061695 C-77.67274439 71.32988232 -77.67274439 71.32988232 -76.39999098 71.32913285 C-74.32213256 71.32952775 -74.32213256 71.32952775 -72.39453125 70.203125 C-72.67941406 69.63851562 -72.96429688 69.07390625 -73.2578125 68.4921875 C-77.05990331 60.83574347 -79.76491186 54.76454416 -77.39453125 46.203125 C-73.76586275 39.30149352 -68.46769511 33.81358598 -62.95703125 28.390625 C-62.23193359 27.65392578 -61.50683594 26.91722656 -60.75976562 26.15820312 C-54.55573659 19.98761899 -49.01192699 15.64487356 -40.0234375 15.02734375 C-33.97142771 15.43201008 -28.71862177 18.51676883 -23.39453125 21.203125 C-23.100625 19.91728516 -23.100625 19.91728516 -22.80078125 18.60546875 C-20.72834686 10.68198038 -18.50678404 5.58438955 -11.39453125 1.203125 C-7.58145285 -0.06790113 -3.97478653 0.02119766 0 0 Z " fill="#F4F6FE" transform="translate(397.39453125,-0.203125)"/>
<path d="M0 0 C1.16487946 -0.00708481 2.32975891 -0.01416962 3.52993774 -0.02146912 C5.43374962 -0.01775299 5.43374962 -0.01775299 7.37602234 -0.01396179 C8.73322327 -0.01831155 10.09042174 -0.02349558 11.44761658 -0.02944946 C15.1275201 -0.04282469 18.80732081 -0.04341962 22.48724389 -0.04088616 C25.56358545 -0.03981511 28.63990632 -0.04470342 31.71624345 -0.04949158 C38.97768944 -0.06058238 46.2390837 -0.06102706 53.50053406 -0.05497742 C60.97989892 -0.04894176 68.45907546 -0.06123917 75.9384082 -0.08254749 C82.36916624 -0.10019165 88.7998645 -0.10616028 95.23064584 -0.10290974 C99.06726113 -0.10110069 102.90374218 -0.10369482 106.74033546 -0.11762428 C110.35111836 -0.1302434 113.96160904 -0.12822028 117.5723877 -0.11521339 C119.51981373 -0.11173788 121.46724885 -0.12299642 123.41464233 -0.13478088 C131.82963085 -0.08447542 138.86444801 0.64517586 145.42558289 6.44819641 C146.36144226 7.24290344 146.36144226 7.24290344 147.31620789 8.05366516 C152.75359756 14.50770963 153.76299861 20.58861325 153.69316101 28.8483429 C153.70017029 29.87868652 153.70717957 30.90903015 153.71440125 31.97059631 C153.73192718 35.35793957 153.72037623 38.74443921 153.70683289 42.13179016 C153.70952954 44.49776367 153.71341341 46.86373609 153.71842957 49.22970581 C153.72431751 54.18163127 153.71578475 59.13326754 153.69706726 64.0851593 C153.67429112 70.41794356 153.68739749 76.75004917 153.71135712 83.08280849 C153.72584453 87.96686877 153.7211953 92.85076946 153.71084595 97.73483467 C153.70818617 100.06911869 153.71142193 102.40341741 153.72076416 104.73768425 C153.73097648 108.00672892 153.71536154 111.2746909 153.69316101 114.5436554 C153.70125793 115.49925858 153.70935486 116.45486176 153.71769714 117.43942261 C153.62410342 124.91680887 151.87460336 130.99293595 147.06230164 136.81929016 C146.33655945 137.43932922 145.61081726 138.05936829 144.86308289 138.69819641 C144.14507507 139.33628235 143.42706726 139.97436829 142.68730164 140.63179016 C135.53149576 145.27249164 127.59656999 144.52256895 119.36698914 144.45600891 C118.03178114 144.45227308 116.69657038 144.4494288 115.36135864 144.44743347 C111.86789722 144.43984182 108.37460533 144.42023247 104.88121033 144.39802551 C101.30813387 144.37747012 97.7350297 144.36841114 94.16191101 144.35835266 C87.1663992 144.33698175 80.17099921 144.3029006 73.17558289 144.26069641 C73.21372785 154.14503731 73.27321719 164.02900203 73.35948563 173.91304684 C73.39888905 178.50330919 73.43111236 183.09338175 73.44657898 187.68379211 C73.46179279 192.11904205 73.49632139 196.55376997 73.54389191 200.9887867 C73.5586572 202.67549142 73.5666211 204.3622707 73.56746674 206.04903984 C73.54044988 220.29723556 73.54044988 220.29723556 80.14042664 232.60054016 C87.13178214 238.26284591 92.09926862 240.13502026 101.17558289 239.26069641 C107.29259101 237.95617317 112.03214542 234.90112513 116.17558289 230.26069641 C120.63749121 223.27502933 120.70954349 216.38040826 120.60917664 208.30757141 C120.61877517 205.80757076 120.62854588 203.30757077 120.63847351 200.80757141 C120.62984951 196.89473912 120.61292152 192.98206928 120.59086609 189.06929016 C120.57637973 185.27338952 120.59156675 181.47843788 120.60917664 177.68257141 C120.59269577 176.51167969 120.5762149 175.34078796 120.55923462 174.13441467 C120.56596695 173.04267944 120.57269928 171.95094421 120.57963562 170.8261261 C120.57153114 169.39124847 120.57153114 169.39124847 120.56326294 167.92738342 C121.46441207 164.00282943 122.98234795 162.70696503 126.17558289 160.26069641 C129.55144702 159.53051077 132.86317894 159.6073079 136.30578613 159.65942383 C137.84965178 159.65301564 137.84965178 159.65301564 139.42470664 159.646478 C142.87832034 159.63823307 146.33072339 159.66575942 149.78422546 159.69306946 C152.25783764 159.69447959 154.73145191 159.69368863 157.20506287 159.69085693 C162.53300394 159.68971784 167.86056718 159.70391153 173.18840981 159.73204613 C180.89148883 159.77269707 188.59441985 159.78570493 196.29759451 159.79198609 C208.79566353 159.8029268 221.2935693 159.83619486 233.79154968 159.88349915 C245.93151534 159.92940056 258.07143664 159.96478959 270.21147156 159.98603821 C270.95989383 159.98735183 271.7083161 159.98866544 272.47941784 159.99001887 C276.23406627 159.9965441 279.98871502 160.00286263 283.74336398 160.00907838 C314.88755565 160.06090445 346.03154447 160.14933547 377.17558289 160.26069641 C377.13630676 159.0731073 377.13630676 159.0731073 377.09623718 157.86152649 C376.99214166 154.26561924 376.92721388 150.6700291 376.86308289 147.07319641 C376.82118835 145.8273175 376.77929382 144.5814386 376.73612976 143.29780579 C376.59795951 132.99030475 376.59795951 132.99030475 379.47245789 129.93257141 C383.02239266 127.73694701 385.07362834 127.58946748 389.17558289 128.26069641 C392.13174115 130.4577164 393.07699626 131.60408828 393.62968445 135.28511047 C393.59826355 137.01325989 393.59826355 137.01325989 393.56620789 138.77632141 C393.54687195 140.65190735 393.54687195 140.65190735 393.52714539 142.56538391 C393.47687195 144.5183136 393.47687195 144.5183136 393.42558289 146.51069641 C393.40753601 147.82811829 393.38948914 149.14554016 393.37089539 150.50288391 C393.32374559 153.75621949 393.25794332 157.00809266 393.17558289 160.26069641 C393.91838501 160.25181396 394.66118713 160.24293152 395.42649841 160.23377991 C402.43008194 160.15359898 409.43350623 160.09271455 416.43741989 160.05344772 C420.03816574 160.03258129 423.63853204 160.0042822 427.23905945 159.9589386 C430.71446202 159.91544516 434.18949976 159.8915522 437.6651535 159.88118744 C439.63504072 159.87021026 441.60478136 159.83898941 443.57444763 159.80751038 C445.37586212 159.80705719 445.37586212 159.80705719 447.21366882 159.80659485 C448.27067993 159.7977124 449.32769104 159.78882996 450.41673279 159.77967834 C453.95851204 160.39720367 455.10523123 161.34293802 457.17558289 164.26069641 C457.68351746 166.98348999 457.68351746 166.98348999 457.69316101 170.1398468 C457.70576965 171.32530594 457.7183783 172.51076508 457.73136902 173.73214722 C457.71922363 175.65086891 457.71922363 175.65086891 457.70683289 177.60835266 C457.70953078 178.94392173 457.71341568 180.27948888 457.71842957 181.61505127 C457.72432507 184.41696335 457.71577059 187.21836523 457.69706726 190.0202179 C457.67443104 193.58198684 457.68730037 197.14253976 457.71135712 200.70426273 C457.72594733 203.46616439 457.72114688 206.22778744 457.71084595 208.98969841 C457.70693623 210.93201368 457.7189368 212.87434046 457.73136902 214.81661987 C457.6048771 226.93069647 454.62835628 236.40620705 446.17558289 245.26069641 C436.16253262 254.81946841 425.59530204 256.86306646 412.09501648 256.76863098 C410.69917337 256.77324867 409.30333515 256.77960738 407.90750694 256.78753996 C404.09973015 256.80413756 400.29235771 256.79603101 396.48458004 256.78359509 C392.36725147 256.77450738 388.24999017 256.78853268 384.13267517 256.79951477 C376.0778716 256.81726504 368.02321744 256.81347562 359.96840811 256.80186421 C353.41983919 256.79281638 346.87131203 256.79161172 340.32273865 256.79595947 C339.38933289 256.7965724 338.45592713 256.79718534 337.49423635 256.79781684 C335.59781026 256.79909579 333.70138417 256.80039265 331.80495811 256.80170721 C314.03837215 256.81310278 296.27186886 256.80001537 278.50529647 256.77850574 C263.27360576 256.76063569 248.04203702 256.76374009 232.81034851 256.78218079 C215.10565243 256.80360559 197.40102873 256.81200423 179.69632149 256.79973173 C177.80702338 256.79845759 175.91772526 256.7972001 174.02842712 256.79595947 C173.09895055 256.79534237 172.16947398 256.79472527 171.21183145 256.79408947 C164.67407575 256.7906414 158.13636612 256.79645319 151.59861755 256.80587769 C143.62704104 256.81711694 135.655622 256.8140172 127.68406343 256.79275471 C123.61985137 256.78227015 119.55590149 256.7780779 115.49169159 256.79135132 C111.76585389 256.80333526 108.04051958 256.79661502 104.31472707 256.77544111 C102.34005301 256.76890855 100.36534357 256.78185731 98.39070702 256.79567003 C86.37548542 256.69057145 76.95049812 253.63750585 68.17558289 245.26069641 C57.16013764 233.72174486 56.59946112 221.56852477 56.78495789 206.46772766 C56.79243235 204.6674157 56.79811958 202.86709552 56.80210876 201.06677246 C56.81727031 196.36323481 56.85646854 191.66020321 56.90092468 186.9568634 C56.94208372 182.14349713 56.96016354 177.33004788 56.98027039 172.51655579 C57.02297349 163.09771551 57.0911077 153.67924829 57.17558289 144.26069641 C56.40407898 144.26957886 55.63257507 144.2784613 54.83769226 144.28761292 C47.5410121 144.36800416 40.24454889 144.42878452 32.94754028 144.4679451 C29.19670099 144.48875538 25.44622987 144.51695108 21.69560242 144.56245422 C18.07105427 144.60614891 14.44685861 144.62988277 10.82206726 144.64020538 C9.44424395 144.64755473 8.06643833 144.66190587 6.68876648 144.68361664 C-2.4398011 144.82165727 -8.96915576 144.51539408 -16.06660461 138.29585266 C-16.8748468 137.31938782 -16.8748468 137.31938782 -17.69941711 136.32319641 C-18.25371399 135.67479797 -18.80801086 135.02639954 -19.37910461 134.35835266 C-23.28688704 128.68678736 -23.12100166 123.39215451 -23.11494446 116.72236633 C-23.12166168 115.66159378 -23.12837891 114.60082123 -23.13529968 113.50790405 C-23.15429231 110.00227672 -23.15820462 106.49684074 -23.16035461 102.99116516 C-23.16678188 100.55124839 -23.17351019 98.11133239 -23.18052673 95.67141724 C-23.19250284 90.55622064 -23.19620723 85.44109159 -23.19502258 80.32588196 C-23.19481943 73.77885684 -23.22211667 67.23226598 -23.256567 60.68534374 C-23.27883069 55.64522318 -23.28286027 50.60520719 -23.28180313 45.5650425 C-23.28416007 43.15176714 -23.29298874 40.73848894 -23.30846786 38.32526207 C-23.32811522 34.94560428 -23.32229375 31.56688373 -23.31025696 28.18721008 C-23.32149597 27.19524628 -23.33273499 26.20328247 -23.34431458 25.18125916 C-23.27855222 17.89612435 -21.70561385 12.54858294 -16.85957336 7.01850891 C-16.2085968 6.47968079 -15.55762024 5.94085266 -14.88691711 5.38569641 C-14.23851868 4.83139954 -13.59012024 4.27710266 -12.92207336 3.70600891 C-8.7211519 0.81151926 -5.05988862 0.0102841 0 0 Z " fill="#033C59" transform="translate(22.824417114257813,255.7393035888672)"/>
<path d="M0 0 C1.23746223 -0.00855011 1.23746223 -0.00855011 2.49992371 -0.01727295 C4.24578573 -0.02671623 5.99166552 -0.03325426 7.73754883 -0.03710938 C10.39761793 -0.04680086 13.05690953 -0.07782412 15.71679688 -0.109375 C17.41536001 -0.11590689 19.11392865 -0.12115663 20.8125 -0.125 C21.60332474 -0.1373468 22.39414948 -0.1496936 23.2089386 -0.16241455 C28.86267325 -0.13981099 32.88020462 1.01816378 37.3984375 4.640625 C41.82754821 9.60321403 43.27689619 14.75838267 44.60546875 21.203125 C45.17007812 20.91824219 45.7346875 20.63335938 46.31640625 20.33984375 C53.97285028 16.53775294 60.04404959 13.83274439 68.60546875 16.203125 C75.50710023 19.8317935 80.99500777 25.12996114 86.41796875 30.640625 C87.15466797 31.36572266 87.89136719 32.09082031 88.65039062 32.83789062 C94.82097476 39.04191966 99.16372019 44.58572926 99.78125 53.57421875 C99.37658367 59.62622854 96.29182492 64.87903448 93.60546875 70.203125 C94.89130859 70.49703125 94.89130859 70.49703125 96.203125 70.796875 C104.12661337 72.86930939 109.2242042 75.09087221 113.60546875 82.203125 C114.87649488 86.0162034 114.78739609 89.62286972 114.80859375 93.59765625 C114.81429382 94.42263107 114.8199939 95.2476059 114.8258667 96.09757996 C114.83530998 97.84344198 114.84184801 99.58932177 114.84570312 101.33520508 C114.85539461 103.99527418 114.88641787 106.65456578 114.91796875 109.31445312 C114.92450064 111.01301626 114.92975038 112.7115849 114.93359375 114.41015625 C114.94594055 115.20098099 114.95828735 115.99180573 114.9710083 116.80659485 C114.94840474 122.4603295 113.79042997 126.47786087 110.16796875 130.99609375 C105.20537972 135.42520446 100.05021108 136.87455244 93.60546875 138.203125 C93.89035156 138.76773438 94.17523438 139.33234375 94.46875 139.9140625 C98.27084081 147.57050653 100.97584936 153.64170584 98.60546875 162.203125 C94.97680025 169.10475648 89.67863261 174.59266402 84.16796875 180.015625 C83.44287109 180.75232422 82.71777344 181.48902344 81.97070312 182.24804688 C75.76667409 188.41863101 70.22286449 192.76137644 61.234375 193.37890625 C55.18236521 192.97423992 49.92955927 189.88948117 44.60546875 187.203125 C44.40953125 188.06035156 44.21359375 188.91757813 44.01171875 189.80078125 C41.93928436 197.72426962 39.71772154 202.82186045 32.60546875 207.203125 C29.45615982 208.25289464 27.21732419 208.30444095 23.91796875 208.265625 C22.92410156 208.25660156 21.93023437 208.24757812 20.90625 208.23828125 C20.14699219 208.22667969 19.38773437 208.21507812 18.60546875 208.203125 C18.60915592 208.75604092 18.61284309 209.30895683 18.616642 209.87862778 C18.70498026 223.33243635 18.77091667 236.78619412 18.81271744 250.24023056 C18.8336104 256.74652649 18.86195983 263.25261343 18.90722656 269.75878906 C18.95062245 276.03520009 18.97459297 282.31140984 18.98497772 288.58795929 C18.99238028 290.98502014 19.00683534 293.38206973 19.02838898 295.7790451 C19.05733891 299.13126105 19.06142816 302.48264052 19.05957031 305.83496094 C19.07395142 306.83045959 19.08833252 307.82595825 19.10314941 308.85162354 C19.06291795 315.54065759 19.06291795 315.54065759 16.7958374 318.8237915 C13.58857916 320.84348747 11.31533571 320.66685837 7.60546875 320.203125 C4.42043305 318.44297369 3.77249903 317.70421584 2.60546875 314.203125 C2.51676492 312.74362404 2.48348383 311.28038454 2.48521423 309.81819153 C2.48315224 308.47415504 2.48315224 308.47415504 2.48104858 307.10296631 C2.48464386 306.12257385 2.48823914 305.1421814 2.49194336 304.13208008 C2.49179733 303.09776352 2.49165131 302.06344696 2.49150085 300.99778748 C2.49219855 297.57272254 2.49998429 294.14771171 2.5078125 290.72265625 C2.50967719 288.35039805 2.51110085 285.97813946 2.51210022 283.60588074 C2.51592139 277.35709574 2.5257483 271.10833393 2.5368042 264.85955811 C2.54702689 258.4851513 2.55159968 252.11074076 2.55664062 245.73632812 C2.56737089 233.22525052 2.58425078 220.71418899 2.60546875 208.203125 C1.58900269 208.23140381 1.58900269 208.23140381 0.55200195 208.26025391 C-0.34172119 208.27491699 -1.23544434 208.28958008 -2.15625 208.3046875 C-3.48209106 208.33296631 -3.48209106 208.33296631 -4.8347168 208.36181641 C-10.14537811 208.03259086 -13.73527636 205.17134925 -17.20703125 201.265625 C-20.49437321 196.66334625 -21.61711981 192.77457363 -22.39453125 187.203125 C-25.79305947 187.61506782 -27.56742492 188.31956359 -30.45703125 190.265625 C-35.36223212 193.16172399 -40.914074 193.42538525 -46.39453125 192.203125 C-53.53749889 188.50848657 -59.11615745 182.94128037 -64.70703125 177.265625 C-65.49142578 176.49283203 -66.27582031 175.72003906 -67.08398438 174.92382812 C-72.85783185 169.12054728 -77.96864559 163.91830851 -77.95703125 155.265625 C-77.80824996 150.09709251 -76.67568133 146.95924844 -73.48828125 142.921875 C-72.03661426 140.9802258 -72.03661426 140.9802258 -72.39453125 137.203125 C-73.338125 137.10837891 -73.338125 137.10837891 -74.30078125 137.01171875 C-81.23910338 136.01903712 -85.99501224 133.78126805 -90.39453125 128.203125 C-93.39453125 121.203125 -93.39453125 121.203125 -93.39453125 88.203125 C-164.34453125 88.533125 -235.29453125 88.863125 -308.39453125 89.203125 C-307.07453125 91.513125 -305.75453125 93.823125 -304.39453125 96.203125 C-301.08645792 103.1803582 -300.96690986 109.30895423 -301.00634766 116.96557617 C-301.0010907 118.22667709 -300.99583374 119.48777802 -300.99041748 120.78709412 C-300.97681615 124.22495219 -300.98201136 127.66253825 -300.99155474 131.10040069 C-300.99918386 134.70685891 -300.99209719 138.31329483 -300.98739624 141.91975403 C-300.98195022 147.97120318 -300.98910209 154.0225422 -301.00341797 160.07397461 C-301.0197645 167.06439774 -301.01443695 174.05455861 -300.99793875 181.04497546 C-300.98431732 187.05792678 -300.98240675 193.07079927 -300.99025476 199.08376104 C-300.99492485 202.67039338 -300.99557406 206.25690248 -300.98564529 209.84352684 C-300.97535594 213.83879479 -300.98962357 217.83361129 -301.00634766 221.82885742 C-301.00027496 223.01390869 -300.99420227 224.19895996 -300.98794556 225.41992188 C-300.99640503 226.50907394 -301.0048645 227.59822601 -301.01358032 228.72038269 C-301.0147114 229.66404788 -301.01584248 230.60771307 -301.01700783 231.57997417 C-301.47167185 234.73912204 -302.52586406 236.63572455 -304.39453125 239.203125 C-306.515625 240.05078125 -306.515625 240.05078125 -308.83203125 240.265625 C-309.59386719 240.35972656 -310.35570312 240.45382813 -311.140625 240.55078125 C-314.37713911 240.05156157 -315.38311329 238.74470443 -317.39453125 236.203125 C-317.78515625 233.1875 -317.78515625 233.1875 -317.64453125 229.953125 C-317.59039062 228.33664063 -317.59039062 228.33664063 -317.53515625 226.6875 C-317.48875 225.86765625 -317.44234375 225.0478125 -317.39453125 224.203125 C-318.13733337 224.21200745 -318.8801355 224.22088989 -319.64544678 224.2300415 C-326.6490303 224.31022244 -333.6524546 224.37110686 -340.65636826 224.41037369 C-344.25711411 224.43124013 -347.85748041 224.45953921 -351.45800781 224.50488281 C-354.93341038 224.54837625 -358.40844813 224.57226921 -361.88410187 224.58263397 C-363.85398909 224.59361115 -365.82372972 224.624832 -367.793396 224.65631104 C-369.59481049 224.65676422 -369.59481049 224.65676422 -371.43261719 224.65722656 C-372.4896283 224.66610901 -373.5466394 224.67499146 -374.63568115 224.68414307 C-377.39453125 224.203125 -377.39453125 224.203125 -379.73480225 222.86347961 C-382.42713897 218.54797364 -381.95009555 214.16740489 -381.91210938 209.18334961 C-381.92262329 207.49722565 -381.92262329 207.49722565 -381.93334961 205.77703857 C-381.9509834 202.05293208 -381.93928144 198.32958331 -381.92578125 194.60546875 C-381.92847592 192.01436721 -381.93235813 189.42326666 -381.93737793 186.83216858 C-381.94328141 181.39394607 -381.93506939 175.95600792 -381.91601562 170.51782227 C-381.89432278 164.25460067 -381.90124147 157.99190151 -381.92332125 151.72869295 C-381.94376733 145.68449467 -381.9414644 139.64054902 -381.92979431 133.59631538 C-381.92713527 131.03481535 -381.93036767 128.47330192 -381.93971252 125.91181755 C-381.94994233 122.31708134 -381.93428214 118.72332587 -381.91210938 115.12866211 C-381.92425476 113.55635582 -381.92425476 113.55635582 -381.93664551 111.95228577 C-381.80810454 100.62679376 -378.23852419 91.41990177 -370.39453125 83.203125 C-361.17400072 74.40091722 -351.13476548 71.58922381 -338.60716248 71.69087219 C-337.47211448 71.68407651 -336.33706649 71.67728082 -335.1676231 71.6702792 C-331.39206508 71.65242591 -327.61713063 71.66276212 -323.84155273 71.6730957 C-321.12398157 71.66821247 -318.40644233 71.65731039 -315.68888855 71.64663696 C-309.85207771 71.62679389 -304.01539746 71.62127495 -298.17855644 71.62557411 C-289.73747396 71.63168286 -281.29655746 71.61476329 -272.85550869 71.59216418 C-259.1552223 71.55601176 -245.45496866 71.53680478 -231.75463867 71.52905273 C-218.4567718 71.52147848 -205.15893495 71.5083585 -191.86108398 71.48608398 C-191.04069397 71.48471329 -190.22030395 71.48334259 -189.37505364 71.48193035 C-180.42366032 71.4668113 -171.47227062 71.45008408 -162.52088261 71.43210888 C-161.73496112 71.43053691 -160.94903963 71.42896494 -160.13930233 71.42734533 C-155.42779075 71.41791982 -155.42779075 71.41791982 -150.71627951 71.40832772 C-141.51522983 71.38950304 -132.31420214 71.37562904 -123.11313409 71.37053206 C-117.35009329 71.36729861 -111.58706169 71.36104768 -105.82402646 71.3524038 C-102.49617899 71.34759717 -99.16836866 71.34511134 -95.84051514 71.34587288 C-92.2400042 71.34653543 -88.63955062 71.34122222 -85.03904724 71.33442688 C-83.44818815 71.33705244 -83.44818815 71.33705244 -81.82519048 71.33973104 C-80.8665749 71.33672339 -79.90795931 71.33371574 -78.92029476 71.33061695 C-77.67274439 71.32988232 -77.67274439 71.32988232 -76.39999098 71.32913285 C-74.32213256 71.32952775 -74.32213256 71.32952775 -72.39453125 70.203125 C-72.67941406 69.63851562 -72.96429688 69.07390625 -73.2578125 68.4921875 C-77.05990331 60.83574347 -79.76491186 54.76454416 -77.39453125 46.203125 C-73.76586275 39.30149352 -68.46769511 33.81358598 -62.95703125 28.390625 C-62.23193359 27.65392578 -61.50683594 26.91722656 -60.75976562 26.15820312 C-54.55573659 19.98761899 -49.01192699 15.64487356 -40.0234375 15.02734375 C-33.97142771 15.43201008 -28.71862177 18.51676883 -23.39453125 21.203125 C-23.100625 19.91728516 -23.100625 19.91728516 -22.80078125 18.60546875 C-20.72834686 10.68198038 -18.50678404 5.58438955 -11.39453125 1.203125 C-7.58145285 -0.06790113 -3.97478653 0.02119766 0 0 Z " fill="#033C59" transform="translate(397.39453125,-0.203125)"/>
<path d="M0 0 C4.09341499 -0.02469575 8.18680121 -0.04285793 12.28027344 -0.05493164 C13.67318477 -0.0599643 15.0660908 -0.06679098 16.45898438 -0.07543945 C18.45961246 -0.08755152 20.46027888 -0.09270412 22.4609375 -0.09765625 C23.66540527 -0.10289307 24.86987305 -0.10812988 26.11083984 -0.11352539 C29 0 29 0 31 1 C31.4921875 2.85546875 31.4921875 2.85546875 31.875 5.1875 C33.25378101 11.92108167 36.4119232 16.02952438 42 20 C45.9521838 21.9760919 50.69415764 21.44222165 55 21 C57.23196871 20.17611893 59.12532257 19.21593613 61.1484375 17.97265625 C63.54247839 16.71502718 65.28609748 16.19926045 68 16 C70.32763672 17.55126953 70.32763672 17.55126953 72.6796875 19.8828125 C73.5253125 20.72070312 74.3709375 21.55859375 75.2421875 22.421875 C76.54542969 23.75992188 76.54542969 23.75992188 77.875 25.125 C78.76703125 25.99382813 79.6590625 26.86265625 80.578125 27.7578125 C81.41601562 28.6034375 82.25390625 29.4490625 83.1171875 30.3203125 C84.27130127 31.48457764 84.27130127 31.48457764 85.44873047 32.67236328 C87 35 87 35 86.87158203 37.59716797 C86 40 86 40 83.9375 43.125 C81.11057014 47.83998885 81.35394149 52.6700173 82 58 C83.75302575 63.46531556 87.20212196 67.0015208 92 70 C94.80213265 70.97105654 94.80213265 70.97105654 97.75 71.67578125 C98.73484375 71.92884033 99.7196875 72.18189941 100.734375 72.44262695 C101.85585938 72.71852661 101.85585938 72.71852661 103 73 C103.04939115 77.09338652 103.08571501 81.18665798 103.10986328 85.28027344 C103.11992877 86.67320781 103.13358234 88.06612102 103.15087891 89.45898438 C103.1751022 91.4595436 103.18540814 93.46025615 103.1953125 95.4609375 C103.20578613 96.66540527 103.21625977 97.86987305 103.22705078 99.11083984 C103 102 103 102 101 104 C99.63453827 104.28045791 98.25659081 104.50216465 96.875 104.6875 C91.30782428 105.81172773 87.70532386 108.78819302 84 113 C81.06447548 117.64711699 81.37441333 122.68619327 82 128 C82.82821124 130.22605192 83.7859102 132.12832699 85.02734375 134.1484375 C86.28497282 136.54247839 86.80073955 138.28609748 87 141 C85.44873047 143.32763672 85.44873047 143.32763672 83.1171875 145.6796875 C82.27929688 146.5253125 81.44140625 147.3709375 80.578125 148.2421875 C79.24007812 149.54542969 79.24007812 149.54542969 77.875 150.875 C77.00617188 151.76703125 76.13734375 152.6590625 75.2421875 153.578125 C74.3965625 154.41601562 73.5509375 155.25390625 72.6796875 156.1171875 C71.90351074 156.88659668 71.12733398 157.65600586 70.32763672 158.44873047 C68 160 68 160 65.32324219 159.8034668 C63.11938911 159.04128936 61.35541189 158.15453726 59.375 156.9375 C54.35932792 154.34416955 49.53329629 154.16830823 44 155 C39.39746943 157.21603324 35.57137206 160.5318744 33 165 C32.30763059 167.3461432 31.83101344 169.63037472 31.45703125 172.046875 C31 174 31 174 29 176 C26.11083984 176.22705078 26.11083984 176.22705078 22.4609375 176.1953125 C20.50800781 176.18564453 20.50800781 176.18564453 18.515625 176.17578125 C17.13541405 176.15906929 15.75520571 176.14213939 14.375 176.125 C12.98698548 176.11497006 11.59896411 176.10584423 10.2109375 176.09765625 C6.80711974 176.07401863 3.40364494 176.04106867 0 176 C-0.17740723 175.25886963 -0.35481445 174.51773926 -0.53759766 173.75415039 C-0.90957275 172.28449829 -0.90957275 172.28449829 -1.2890625 170.78515625 C-1.52834473 169.81715088 -1.76762695 168.84914551 -2.01416016 167.85180664 C-3.83646575 162.58029805 -7.38076241 158.29893675 -12.39453125 155.8125 C-17.55014801 154.20475144 -23.38591234 153.69516029 -28.31640625 156.15625 C-30.36707117 157.51527511 -30.36707117 157.51527511 -32.1484375 159.00390625 C-34 160 -34 160 -36.33691406 159.8034668 C-41.4284125 158.26733539 -44.70931859 153.94445442 -48.375 150.25 C-49.21933594 149.43789062 -50.06367188 148.62578125 -50.93359375 147.7890625 C-51.72636719 146.99757812 -52.51914062 146.20609375 -53.3359375 145.390625 C-54.42720947 144.3082959 -54.42720947 144.3082959 -55.54052734 143.20410156 C-57 141 -57 141 -56.78979492 138.34130859 C-56.03999328 136.11855815 -55.16130904 134.3664312 -53.9375 132.375 C-51.34588692 127.36264942 -51.16162837 122.5298654 -52 117 C-54.57351128 111.75766221 -58.19561635 108.36623819 -63.4375 105.8125 C-66.07958012 104.90248581 -66.07958012 104.90248581 -69.25 104.5 C-70.1575 104.335 -71.065 104.17 -72 104 C-73.43509221 101.12981559 -73.11158506 98.66456277 -73.09765625 95.4609375 C-73.09443359 94.15898438 -73.09121094 92.85703125 -73.08789062 91.515625 C-73.07953466 90.13541601 -73.07106971 88.75520768 -73.0625 87.375 C-73.05748501 85.98698074 -73.0529221 84.59895978 -73.04882812 83.2109375 C-73.03700976 79.80724868 -73.02053434 76.40364561 -73 73 C-71.93007813 72.70609375 -70.86015625 72.4121875 -69.7578125 72.109375 C-62.32663316 69.9155549 -57.54904395 67.34109156 -53 61 C-50.8968943 56.7937886 -51.45580981 51.56546929 -52 47 C-53.12837247 44.65528025 -54.35141281 42.81820725 -56.00390625 40.81640625 C-57 39 -57 39 -56.8034668 36.6652832 C-55.26813294 31.5722295 -50.94530619 28.29152655 -47.25 24.625 C-46.43789063 23.78066406 -45.62578125 22.93632813 -44.7890625 22.06640625 C-43.99757813 21.27363281 -43.20609375 20.48085938 -42.390625 19.6640625 C-41.3082959 18.57279053 -41.3082959 18.57279053 -40.20410156 17.45947266 C-38 16 -38 16 -35.41699219 16.14208984 C-33 17 -33 17 -29.9375 19.0625 C-24.98142503 22.02962383 -19.58272156 21.76869184 -14 21 C-8.79143118 18.48872575 -5.35226194 14.8547752 -2.875 9.625 C-1.81461102 6.44383307 -0.91412645 3.22588425 0 0 Z " fill="#0073FE" transform="translate(393,16)"/>
<path d="M0 0 C100.32 0 200.64 0 304 0 C304 49.83870968 304 49.83870968 295.125 59 C288.47349398 64.78875838 280.40151607 64.28399539 272.07276917 64.24050903 C270.8743909 64.24221788 269.67601264 64.24392673 268.44131988 64.24568737 C265.12778694 64.24840596 261.81449177 64.24217871 258.50098765 64.23213124 C254.92302696 64.22347665 251.34507332 64.22641832 247.7671051 64.22793579 C241.57227917 64.22898337 235.37749545 64.22272003 229.18268013 64.21146011 C220.22607548 64.19519088 211.26949118 64.18999565 202.31287336 64.18748413 C187.78059216 64.18310926 173.24833345 64.1698058 158.71606445 64.15087891 C144.60115674 64.13251472 130.48625514 64.11836085 116.37133789 64.10986328 C115.50097425 64.10933783 114.6306106 64.10881239 113.7338723 64.10827102 C109.36741797 64.1056609 105.0009636 64.1031335 100.63450921 64.10064721 C64.42299027 64.07992119 28.21149689 64.04470133 -8 64 C-7.66226563 63.39414062 -7.32453125 62.78828125 -6.9765625 62.1640625 C-6.53054687 61.32617188 -6.08453125 60.48828125 -5.625 59.625 C-4.96371094 58.40683594 -4.96371094 58.40683594 -4.2890625 57.1640625 C2.59930224 40.25625814 -0.33547285 14.76080536 0 0 Z " fill="#CBD2EA" transform="translate(160,432)"/>
<path d="M0 0 C1.28992355 -0.00554901 2.57984711 -0.01109802 3.90885925 -0.01681519 C7.44006301 -0.03104557 10.97048642 -0.01401989 14.50161552 0.00946999 C18.20017049 0.02960069 21.89869375 0.02369828 25.59729004 0.0213623 C31.80799199 0.02141585 38.01838947 0.0411583 44.22900391 0.07324219 C51.40512854 0.11013413 58.5808544 0.11891753 65.75706148 0.11194468 C72.66570695 0.10563518 79.57421594 0.11640218 86.48283386 0.13591003 C89.42052661 0.14407593 92.35814952 0.14679508 95.29585266 0.1452179 C99.3992621 0.14417419 103.50214772 0.1683704 107.60546875 0.1953125 C109.43219368 0.1909166 109.43219368 0.1909166 111.29582214 0.18643188 C112.41455215 0.19778168 113.53328217 0.20913147 114.68591309 0.2208252 C115.65559776 0.22455391 116.62528244 0.22828262 117.6243515 0.23212433 C120.81111338 0.6879518 122.7085672 1.73792472 125.30273438 3.61523438 C126.43826348 5.88629259 126.43299032 7.13459827 126.44317627 9.65644836 C126.44888641 10.50180145 126.45459656 11.34715454 126.46047974 12.21812439 C126.46215652 13.61219261 126.46215652 13.61219261 126.46386719 15.03442383 C126.46883209 16.01179504 126.473797 16.98916626 126.47891235 17.99615479 C126.49355724 21.24028214 126.50034005 24.4843606 126.50585938 27.72851562 C126.51160916 29.978124 126.51736691 32.22773236 126.52313232 34.4773407 C126.53364911 39.19933298 126.53948726 43.9213082 126.54296875 48.64331055 C126.54845316 54.69627473 126.57247737 60.74901392 126.6009407 66.80190754 C126.61955802 71.45072591 126.62477222 76.09949001 126.62630463 80.74834251 C126.62933401 82.97988298 126.63737211 85.21142244 126.65048981 87.44292641 C126.66753016 90.56474573 126.66567474 93.68601446 126.65917969 96.80786133 C126.66839447 97.73116745 126.67760925 98.65447357 126.68710327 99.60575867 C126.65596589 104.37946247 126.54757795 107.81637208 123.30273438 111.61523438 C120.23295611 112.6384938 118.13517792 112.74584412 114.91969299 112.75567627 C113.24355423 112.76424149 113.24355423 112.76424149 111.53355408 112.77297974 C110.30697586 112.7740976 109.08039764 112.77521545 107.81665039 112.77636719 C105.8797937 112.78381454 105.8797937 112.78381454 103.90380859 112.79141235 C100.36044275 112.8045276 96.81709585 112.81097931 93.27370954 112.81542301 C91.06035371 112.81835446 88.84700305 112.82245935 86.63364983 112.82692719 C79.70957035 112.84059828 72.78550271 112.85026748 65.86141068 112.85412908 C57.86628476 112.85861249 49.87132957 112.876175 41.87625557 112.90512967 C35.69698693 112.92673245 29.51776639 112.93683256 23.33846039 112.93817019 C19.64724567 112.93921901 15.95619154 112.94514317 12.26501656 112.96298981 C8.14930952 112.98250256 4.033961 112.97818718 -0.08178711 112.97167969 C-1.30634109 112.98089447 -2.53089508 112.99010925 -3.79255676 112.99960327 C-4.91280243 112.99403412 -6.0330481 112.98846497 -7.1872406 112.98272705 C-8.64704676 112.98492689 -8.64704676 112.98492689 -10.13634396 112.98717117 C-13.16308884 112.5475803 -14.51369087 111.73069904 -16.69726562 109.61523438 C-17.60676059 106.88674949 -17.82988551 105.26278242 -17.85116577 102.45376587 C-17.85976624 101.60703812 -17.8683667 100.76031036 -17.87722778 99.88792419 C-17.88148773 98.96214066 -17.88574768 98.03635712 -17.89013672 97.08251953 C-17.89831421 96.10500229 -17.9064917 95.12748505 -17.91491699 94.12034607 C-17.93975461 90.88166925 -17.95628086 87.64303614 -17.97070312 84.40429688 C-17.9760268 83.29900005 -17.98135048 82.19370323 -17.98683548 81.05491257 C-18.01355704 75.20718835 -18.03293714 69.35948543 -18.04736328 63.51171875 C-18.06402943 57.46647921 -18.10882699 51.42178287 -18.15973473 45.37674904 C-18.19335178 40.73222206 -18.20493452 36.08782508 -18.21059036 31.44318771 C-18.21731566 29.21440849 -18.23257069 26.98563819 -18.25648117 24.75697708 C-18.28802247 21.6397765 -18.288186 18.52405587 -18.28076172 15.40673828 C-18.29716705 14.4850032 -18.31357239 13.56326813 -18.33047485 12.61360168 C-18.29064767 8.53264111 -17.9943513 6.13913327 -15.95437622 2.54171753 C-10.81655548 -0.49714922 -5.86262675 -0.06384989 0 0 Z " fill="#0074FE" transform="translate(33.697265625,271.384765625)"/>
<path d="M0 0 C5.53341152 3.79664732 10.16151265 9.01351533 12.140625 15.46875 C12.42394755 18.77997341 12.39319736 22.0782068 12.36767578 25.3996582 C12.36796783 26.39525253 12.36825989 27.39084686 12.36856079 28.41661072 C12.36716962 31.70100681 12.35161823 34.98517488 12.3359375 38.26953125 C12.33220662 40.54924902 12.32936 42.8289684 12.32736206 45.10868835 C12.31973154 51.10430338 12.30008793 57.09982126 12.2779541 63.09539795 C12.25388306 70.29156741 12.24471193 77.48776938 12.23304749 84.68396759 C12.21366331 95.61229592 12.1753365 106.54041118 12.140625 117.46875 C-3.699375 117.46875 -19.539375 117.46875 -35.859375 117.46875 C-36.01981024 92.33389615 -36.01981024 92.33389615 -36.0546875 81.6015625 C-36.07857819 74.28471238 -36.10681 66.96806291 -36.16113281 59.65136719 C-36.20466484 53.751 -36.22852796 47.85084806 -36.23888397 41.95033264 C-36.24626206 39.70171217 -36.26066975 37.45310317 -36.28229523 35.20457458 C-36.31142626 32.04953762 -36.31532685 28.89538468 -36.31347656 25.74023438 C-36.32785767 24.81522125 -36.34223877 23.89020813 -36.35705566 22.93716431 C-36.31124999 15.69609234 -34.5079122 10.45368459 -29.67578125 5.0078125 C-28.56009766 4.06035156 -28.56009766 4.06035156 -27.421875 3.09375 C-26.68066406 2.44664063 -25.93945312 1.79953125 -25.17578125 1.1328125 C-17.68122943 -4.25113198 -8.10718954 -4.08275732 0 0 Z " fill="#CBD2EA" transform="translate(67.859375,90.53125)"/>
<path d="M0 0 C0.33 0 0.66 0 1 0 C1.7253127 6.67287687 -0.31763326 11.44976607 -4 17 C-8.97163133 22.65809089 -13.98351692 25.64450744 -21.56072319 26.18146539 C-24.68460289 26.252037 -27.80258121 26.25682357 -30.92723083 26.24050903 C-32.1256091 26.24221788 -33.32398736 26.24392673 -34.55868012 26.24568737 C-37.87221306 26.24840596 -41.18550823 26.24217871 -44.49901235 26.23213124 C-48.07697304 26.22347665 -51.65492668 26.22641832 -55.2328949 26.22793579 C-61.42772083 26.22898337 -67.62250455 26.22272003 -73.81731987 26.21146011 C-82.77392452 26.19519088 -91.73050882 26.18999565 -100.68712664 26.18748413 C-115.21940784 26.18310926 -129.75166655 26.1698058 -144.28393555 26.15087891 C-158.39884326 26.13251472 -172.51374486 26.11836085 -186.62866211 26.10986328 C-187.49902575 26.10933783 -188.3693894 26.10881239 -189.2661277 26.10827102 C-193.63258203 26.1056609 -197.9990364 26.1031335 -202.36549079 26.10064721 C-238.57700973 26.07992119 -274.78850311 26.04470133 -311 26 C-310.64980301 25.31483307 -310.29960602 24.62966614 -309.938797 23.92373657 C-309.48308823 23.02416229 -309.02737946 22.12458801 -308.55786133 21.19775391 C-308.10453934 20.30633698 -307.65121735 19.41492004 -307.18415833 18.49649048 C-305.90653479 15.80295286 -305.15012333 13.31896666 -304.6875 10.375 C-304.54699219 9.53710938 -304.40648437 8.69921875 -304.26171875 7.8359375 C-304.17535156 7.23007812 -304.08898437 6.62421875 -304 6 C-303.67 7.32 -303.34 8.64 -303 10 C-266.67613037 10.03270972 -230.35245067 10.02854939 -194.02860304 9.97527504 C-189.7355404 9.96901006 -185.44247739 9.96304882 -181.14941406 9.95727539 C-180.29477997 9.95612095 -179.44014588 9.95496651 -178.55961378 9.95377708 C-164.74036539 9.93583352 -150.92123336 9.94246849 -137.10198705 9.95826416 C-122.91114617 9.97393456 -108.72050339 9.96301221 -94.52969706 9.92765242 C-85.78044055 9.90668221 -77.03168372 9.90619697 -68.28243901 9.93231983 C-62.2742429 9.94826707 -56.26643031 9.93827095 -50.2582892 9.90833985 C-46.7970698 9.89184855 -43.33680644 9.8863485 -39.87561989 9.91181374 C-19.78142536 10.30266267 -19.78142536 10.30266267 -2 2 C-1.34 1.34 -0.68 0.68 0 0 Z " fill="#95A0C2" transform="translate(463,470)"/>
<path d="M0 0 C6.69809768 4.76229994 11.16407958 11.54657266 13.3125 19.4375 C14.63589593 30.16397224 12.19041124 39.59787827 5.75 48.3125 C0.70575043 53.70007545 -8.15971888 58.05495894 -15.5078125 58.67578125 C-22.90127368 58.84182825 -28.33208785 58.30391044 -34.6875 54.4375 C-35.73550781 53.81875 -35.73550781 53.81875 -36.8046875 53.1875 C-44.18628749 48.2850034 -48.33643302 40.86928111 -50.6875 32.4375 C-51.56805277 24.27702844 -50.98966839 17.4871591 -46.6875 10.4375 C-46.26339844 9.73882812 -45.83929688 9.04015625 -45.40234375 8.3203125 C-34.72335 -7.44533287 -15.737631 -9.39997249 0 0 Z " fill="#F2F5FF" transform="translate(426.6875,77.5625)"/>
<path d="M0 0 C0.67453043 -0.00638882 1.34906087 -0.01277764 2.04403162 -0.01936007 C4.29766372 -0.03458527 6.54953056 -0.01416828 8.80310059 0.00622559 C10.42132652 0.0027236 12.039549 -0.00293586 13.65776062 -0.0105896 C18.04838486 -0.02483627 22.43838272 -0.00777747 26.82894707 0.01569557 C31.42437378 0.03580428 36.01977448 0.029925 40.61523438 0.02758789 C48.33242115 0.02764146 56.04936309 0.04739822 63.76647949 0.07946777 C72.68759387 0.11636058 81.6083875 0.12514332 90.5295682 0.11817026 C99.11262625 0.11186423 107.69557436 0.12262141 116.27861023 0.14213562 C119.93081733 0.15030875 123.58296823 0.15301933 127.23518372 0.15144348 C131.53625924 0.1505643 135.83703013 0.16478968 140.13802528 0.19067001 C141.71622046 0.19782995 143.29444804 0.19991626 144.87265587 0.19655228 C147.02765731 0.19283514 149.18177086 0.20759174 151.33666992 0.22705078 C153.14516544 0.23264385 153.14516544 0.23264385 154.99019623 0.23834991 C158.50636641 0.6622081 160.39848025 1.43427944 163.16833496 3.62145996 C164.3401441 7.57631579 164.57314826 9.69038938 162.91833496 13.49645996 C161.16833496 15.62145996 161.16833496 15.62145996 158.16833496 16.62145996 C155.97074418 16.71987241 153.77023639 16.75648856 151.57044983 16.76190186 C150.5601591 16.76635854 150.5601591 16.76635854 149.52945846 16.77090526 C147.26787678 16.77959138 145.00634803 16.78110041 142.74475098 16.78259277 C141.1252023 16.78722092 139.50565471 16.79224558 137.8861084 16.79763794 C133.48326574 16.81076221 129.08043833 16.81720668 124.67757916 16.8216486 C121.92819275 16.82457862 119.17881051 16.82868324 116.42942619 16.83315277 C107.83092345 16.84682632 99.23243025 16.85649429 90.63391739 16.86035466 C80.70086854 16.8648385 70.76795709 16.88240207 60.83495003 16.91135526 C53.16100231 16.93294915 45.48709332 16.94305768 37.81311554 16.94439578 C33.22765221 16.94544524 28.64231807 16.95138317 24.05688667 16.96921539 C19.74523011 16.98565703 15.4338004 16.98787071 11.12212372 16.97907639 C9.53865134 16.97830397 7.95516696 16.98267557 6.37172508 16.99253464 C4.21194566 17.00519496 2.05297694 16.99941048 -0.10679626 16.98895264 C-1.31597938 16.9904192 -2.52516249 16.99188576 -3.77098751 16.99339676 C-7.09592615 16.58934667 -8.46240748 15.93975153 -10.83166504 13.62145996 C-11.61682129 11.75427246 -11.61682129 11.75427246 -11.89416504 9.74645996 C-12.0088916 9.08903809 -12.12361816 8.43161621 -12.24182129 7.75427246 C-11.01608552 1.38044644 -5.678386 -0.00335575 0 0 Z " fill="#96A1C3" transform="translate(203.8316650390625,287.3785400390625)"/>
<path d="M0 0 C1.25335648 -0.0112088 2.50671295 -0.0224176 3.79804993 -0.03396606 C5.17929541 -0.0210561 6.56053626 -0.00764202 7.94177246 0.00622559 C9.40236556 0.00272308 10.86295485 -0.00293697 12.3235321 -0.0105896 C16.28444302 -0.02482899 20.24465901 -0.00778496 24.20550346 0.01569557 C28.35249436 0.03581408 32.49945667 0.0299245 36.64648438 0.02758789 C43.61042735 0.02764145 50.5740989 0.04739183 57.53796387 0.07946777 C65.58658225 0.11636019 73.63484511 0.12514323 81.68353701 0.11817026 C89.4293882 0.11186269 97.1751176 0.12262425 104.92094421 0.14213562 C108.21589393 0.15030552 111.51078136 0.15301992 114.80574036 0.15144348 C118.68659242 0.15056384 122.56710719 0.16480184 126.44787025 0.19067001 C127.87125831 0.19782561 129.29468227 0.19991834 130.71808434 0.19655228 C132.6625838 0.19283137 134.60709037 0.20944302 136.55151367 0.22705078 C138.18302494 0.23264385 138.18302494 0.23264385 139.84749603 0.23834991 C143.2168296 0.67916637 145.09891006 1.54464226 147.77575684 3.62145996 C148.94756597 7.57631579 149.18057013 9.69038938 147.52575684 13.49645996 C145.77575684 15.62145996 145.77575684 15.62145996 142.77575684 16.62145996 C140.78077569 16.71911358 138.78265592 16.75645504 136.78529358 16.76190186 C135.53324127 16.767612 134.28118896 16.77332214 132.99119568 16.77920532 C131.60110484 16.78045065 130.21101388 16.78157575 128.82092285 16.78259277 C127.35900751 16.78722134 125.89709339 16.79224605 124.43518066 16.79763794 C120.46207641 16.81075818 116.48898905 16.81720588 112.51586652 16.8216486 C110.03449542 16.82457925 107.55312895 16.828684 105.07176018 16.83315277 C97.31046907 16.84682522 89.54918852 16.85649375 81.7878862 16.86035466 C72.8237996 16.86483831 63.85986526 16.88240141 54.89582497 16.91135526 C47.96921683 16.93295311 41.04265159 16.94305789 34.11601013 16.94439578 C29.97767182 16.94544495 25.83947669 16.95137675 21.70117378 16.96921539 C17.80974702 16.98566393 13.91857158 16.9878674 10.0271225 16.97907639 C8.59845495 16.97830434 7.16977407 16.98267077 5.74114037 16.99253464 C3.79186897 17.00520472 1.84249711 16.99760365 -0.10679626 16.98895264 C-1.19798987 16.9904192 -2.28918348 16.99188576 -3.41344357 16.99339676 C-6.57884199 16.57453796 -7.93724812 15.80828729 -10.22424316 13.62145996 C-11.00939941 11.75427246 -11.00939941 11.75427246 -11.28674316 9.74645996 C-11.40146973 9.08903809 -11.51619629 8.43161621 -11.63439941 7.75427246 C-10.4772745 1.7372229 -5.46540335 -0.00358025 0 0 Z " fill="#96A1C3" transform="translate(219.2242431640625,223.3785400390625)"/>
<path d="M0 0 C1.25335648 -0.0112088 2.50671295 -0.0224176 3.79804993 -0.03396606 C5.17929541 -0.0210561 6.56053626 -0.00764202 7.94177246 0.00622559 C9.40236556 0.00272308 10.86295485 -0.00293697 12.3235321 -0.0105896 C16.28444302 -0.02482899 20.24465901 -0.00778496 24.20550346 0.01569557 C28.35249436 0.03581408 32.49945667 0.0299245 36.64648438 0.02758789 C43.61042735 0.02764145 50.5740989 0.04739183 57.53796387 0.07946777 C65.58658225 0.11636019 73.63484511 0.12514323 81.68353701 0.11817026 C89.4293882 0.11186269 97.1751176 0.12262425 104.92094421 0.14213562 C108.21589393 0.15030552 111.51078136 0.15301992 114.80574036 0.15144348 C118.68659242 0.15056384 122.56710719 0.16480184 126.44787025 0.19067001 C127.87125831 0.19782561 129.29468227 0.19991834 130.71808434 0.19655228 C132.6625838 0.19283137 134.60709037 0.20944302 136.55151367 0.22705078 C138.18302494 0.23264385 138.18302494 0.23264385 139.84749603 0.23834991 C143.2168296 0.67916637 145.09891006 1.54464226 147.77575684 3.62145996 C148.94756597 7.57631579 149.18057013 9.69038938 147.52575684 13.49645996 C145.77575684 15.62145996 145.77575684 15.62145996 142.77575684 16.62145996 C140.78077569 16.71911358 138.78265592 16.75645504 136.78529358 16.76190186 C135.53324127 16.767612 134.28118896 16.77332214 132.99119568 16.77920532 C131.60110484 16.78045065 130.21101388 16.78157575 128.82092285 16.78259277 C127.35900751 16.78722134 125.89709339 16.79224605 124.43518066 16.79763794 C120.46207641 16.81075818 116.48898905 16.81720588 112.51586652 16.8216486 C110.03449542 16.82457925 107.55312895 16.828684 105.07176018 16.83315277 C97.31046907 16.84682522 89.54918852 16.85649375 81.7878862 16.86035466 C72.8237996 16.86483831 63.85986526 16.88240141 54.89582497 16.91135526 C47.96921683 16.93295311 41.04265159 16.94305789 34.11601013 16.94439578 C29.97767182 16.94544495 25.83947669 16.95137675 21.70117378 16.96921539 C17.80974702 16.98566393 13.91857158 16.9878674 10.0271225 16.97907639 C8.59845495 16.97830434 7.16977407 16.98267077 5.74114037 16.99253464 C3.79186897 17.00520472 1.84249711 16.99760365 -0.10679626 16.98895264 C-1.19798987 16.9904192 -2.28918348 16.99188576 -3.41344357 16.99339676 C-6.57884199 16.57453796 -7.93724812 15.80828729 -10.22424316 13.62145996 C-11.00939941 11.75427246 -11.00939941 11.75427246 -11.28674316 9.74645996 C-11.40146973 9.08903809 -11.51619629 8.43161621 -11.63439941 7.75427246 C-10.4772745 1.7372229 -5.46540335 -0.00358025 0 0 Z " fill="#96A1C3" transform="translate(187.2242431640625,191.3785400390625)"/>
<path d="M0 0 C7.45365426 -0.50155431 13.69198246 -0.32812882 20 4 C24.84187484 8.4745602 29.59055308 13.21474644 30.17811966 20.08170509 C30.24642179 22.70027004 30.24717786 25.3115123 30.22705078 27.9309082 C30.22734283 28.92650253 30.22763489 29.92209686 30.22793579 30.94786072 C30.22654462 34.23225681 30.21099323 37.51642488 30.1953125 40.80078125 C30.19158162 43.08049902 30.188735 45.3602184 30.18673706 47.63993835 C30.17910654 53.63555338 30.15946293 59.63107126 30.1373291 65.62664795 C30.11685822 71.74652797 30.10773268 77.86642372 30.09765625 83.98632812 C30.07621658 95.99092806 30.04208755 107.99545595 30 120 C24.72 120 19.44 120 14 120 C14.00119339 118.10438324 14.00119339 118.10438324 14.00241089 116.17047119 C14.00602296 104.22450836 13.978075 92.27897439 13.9197216 80.33314896 C13.89072664 74.19253719 13.87261064 68.0523055 13.87988281 61.91162109 C13.88650012 55.9785371 13.86385347 50.04620256 13.82144547 44.11327362 C13.8103571 41.85685648 13.80957522 39.60036295 13.81957626 37.34394073 C14.04342684 20.23734168 14.04342684 20.23734168 7 5 C6.34 4.01 5.68 3.02 5 2 C2.43717258 1.27034634 2.43717258 1.27034634 0 1 C0 0.67 0 0.34 0 0 Z " fill="#95A0C2" transform="translate(50,88)"/>
<path d="M0 0 C0.9778093 -0.00554901 1.95561859 -0.01109802 2.96305847 -0.01681519 C6.19136748 -0.02861436 9.41827378 -0.00433254 12.64648438 0.02148438 C14.89180436 0.02319546 17.13712635 0.02312982 19.38244629 0.0213623 C24.08670174 0.02301571 28.79048076 0.04171827 33.49462891 0.07324219 C39.52404007 0.11291941 45.55282712 0.11728746 51.58234406 0.10977936 C56.2183402 0.10670954 60.85419609 0.11883071 65.49015808 0.13591003 C67.71330383 0.14294039 69.93646548 0.14606452 72.15962219 0.1452179 C75.26686319 0.14701597 78.37335698 0.16839946 81.48046875 0.1953125 C82.39906174 0.1923819 83.31765472 0.18945129 84.26408386 0.18643188 C89.00814635 0.24981691 92.4814055 0.37199604 96.24023438 3.61523438 C97.41204351 7.57009021 97.64504767 9.68416379 95.99023438 13.49023438 C94.24023438 15.61523438 94.24023438 15.61523438 91.24023438 16.61523438 C89.85324128 16.70942498 88.46221307 16.75006411 87.07203674 16.75567627 C85.79977737 16.76424149 85.79977737 16.76424149 84.5018158 16.77297974 C83.57446121 16.7740976 82.64710663 16.77521545 81.69165039 16.77636719 C80.71252686 16.78133209 79.73340332 16.786297 78.72460938 16.79141235 C75.48111269 16.80603449 72.23766488 16.81283538 68.99414062 16.81835938 C66.74356586 16.82410991 64.49299111 16.82986765 62.24241638 16.83563232 C57.5222043 16.84614186 52.80200925 16.85198513 48.08178711 16.85546875 C42.02763241 16.8609594 35.97370193 16.88499995 29.91961765 16.9134407 C25.27084184 16.93204339 20.62212036 16.93727138 15.97331047 16.93880463 C13.74094349 16.94183604 11.50857757 16.94988092 9.27624702 16.96298981 C6.15672736 16.98000377 3.03775985 16.97818155 -0.08178711 16.97167969 C-1.00711746 16.98089447 -1.93244781 16.99010925 -2.88581848 16.99960327 C-9.13522323 16.95870528 -9.13522323 16.95870528 -12.31556702 15.20965576 C-14.00202793 13.34777241 -14.47981921 12.21935349 -14.82226562 9.74023438 C-14.93699219 9.0828125 -15.05171875 8.42539062 -15.16992188 7.74804688 C-13.6423328 -0.19541629 -6.45831685 -0.09324939 0 0 Z " fill="#96A1C3" transform="translate(270.759765625,319.384765625)"/>
<path d="M0 0 C0.82175217 -0.00554901 1.64350433 -0.01109802 2.49015808 -0.01681519 C5.19911515 -0.02859978 7.90639499 -0.00434938 10.61523438 0.02148438 C12.50183028 0.02319588 14.38842856 0.02312939 16.27502441 0.0213623 C20.22606199 0.02301487 24.17653173 0.04170121 28.12744141 0.07324219 C33.1883391 0.11291954 38.24849319 0.11728702 43.30951691 0.10977936 C47.20435379 0.10670774 51.09902394 0.11883701 54.99382019 0.13591003 C56.85970514 0.14293428 58.72560898 0.14606527 60.59150696 0.1452179 C63.20067401 0.14701848 65.80895517 0.16842221 68.41796875 0.1953125 C69.18694992 0.1923819 69.95593109 0.18945129 70.74821472 0.18643188 C75.20870465 0.25725177 78.22342646 0.74282828 81.70898438 3.61523438 C82.88079351 7.57009021 83.11379767 9.68416379 81.45898438 13.49023438 C79.70898438 15.61523438 79.70898438 15.61523438 76.70898438 16.61523438 C74.00737602 16.72178953 71.33118471 16.77248352 68.62915039 16.77636719 C67.39455078 16.78381454 67.39455078 16.78381454 66.13500977 16.79141235 C63.41096157 16.80602344 60.68697157 16.81283351 57.96289062 16.81835938 C56.07103982 16.82411081 54.17918903 16.82986855 52.28733826 16.83563232 C48.32038094 16.8461387 44.35344388 16.85198404 40.38647461 16.85546875 C35.30084772 16.86095881 30.21548785 16.88499928 25.1299448 16.9134407 C21.22233799 16.93205228 17.31479576 16.93727185 13.40714836 16.93880463 C11.53203811 16.94183403 9.65692907 16.9498722 7.78186226 16.96298981 C5.16043802 16.98002266 2.53966984 16.97817716 -0.08178711 16.97167969 C-1.24536491 16.98550186 -1.24536491 16.98550186 -2.43244934 16.99960327 C-5.66902358 16.97444159 -7.91420473 16.8301842 -10.75502014 15.20965576 C-12.54413618 13.35248566 -13.00267359 12.28013304 -13.35351562 9.74023438 C-13.46824219 9.0828125 -13.58296875 8.42539062 -13.70117188 7.74804688 C-12.33925311 0.66606928 -6.07710471 -0.10481678 0 0 Z " fill="#96A1C3" transform="translate(205.291015625,255.384765625)"/>
<path d="M0 0 C0.7437236 -0.00554901 1.4874472 -0.01109802 2.25370789 -0.01681519 C4.70300491 -0.02859027 7.15044281 -0.00436063 9.59960938 0.02148438 C11.30684322 0.02319615 13.01407969 0.02312912 14.72131348 0.0213623 C18.29574806 0.02301432 21.86955455 0.04168994 25.44384766 0.07324219 C30.02049387 0.11291968 34.59631776 0.11728675 39.17310333 0.10977936 C42.6973623 0.10670656 46.22143716 0.11884115 49.74565125 0.13591003 C51.43290553 0.14293026 53.12018067 0.14606575 54.80744934 0.1452179 C57.16758777 0.14702014 59.52674969 0.16843711 61.88671875 0.1953125 C62.58089401 0.1923819 63.27506927 0.18945129 63.99028015 0.18643188 C68.27627896 0.26155526 71.08104234 0.90523394 74.44335938 3.61523438 C75.61516851 7.57009021 75.84817267 9.68416379 74.19335938 13.49023438 C72.44335938 15.61523438 72.44335938 15.61523438 69.44335938 16.61523438 C66.9856926 16.7212069 64.55595821 16.77245821 62.09790039 16.77636719 C61.35286255 16.78133209 60.60782471 16.786297 59.84020996 16.79141235 C57.37588579 16.80601618 54.91162595 16.81283228 52.44726562 16.81835938 C50.7347768 16.82411141 49.02228799 16.82986914 47.30979919 16.83563232 C43.7194692 16.84613663 40.12916156 16.85198332 36.53881836 16.85546875 C31.93745242 16.86095843 27.33638165 16.88499883 22.73510838 16.9134407 C19.19808587 16.93205812 15.66113468 16.93727216 12.12406731 16.93880463 C10.42758504 16.9418327 8.73110408 16.94986647 7.03466988 16.96298981 C4.66228825 16.98003514 2.29063081 16.97817429 -0.08178711 16.97167969 C-0.78269974 16.98089447 -1.48361237 16.99010925 -2.20576477 16.99960327 C-6.26464023 16.96477638 -8.65631329 16.53853023 -11.55664062 13.61523438 C-12.34179688 11.74804688 -12.34179688 11.74804688 -12.61914062 9.74023438 C-12.73386719 9.0828125 -12.84859375 8.42539062 -12.96679688 7.74804688 C-11.67816412 1.04715657 -5.85994384 -0.11196289 0 0 Z " fill="#96A1C3" transform="translate(204.556640625,383.384765625)"/>
<path d="M0 0 C0.7437236 -0.00554901 1.4874472 -0.01109802 2.25370789 -0.01681519 C4.70300491 -0.02859027 7.15044281 -0.00436063 9.59960938 0.02148438 C11.30684322 0.02319615 13.01407969 0.02312912 14.72131348 0.0213623 C18.29574806 0.02301432 21.86955455 0.04168994 25.44384766 0.07324219 C30.02049387 0.11291968 34.59631776 0.11728675 39.17310333 0.10977936 C42.6973623 0.10670656 46.22143716 0.11884115 49.74565125 0.13591003 C51.43290553 0.14293026 53.12018067 0.14606575 54.80744934 0.1452179 C57.16758777 0.14702014 59.52674969 0.16843711 61.88671875 0.1953125 C62.58089401 0.1923819 63.27506927 0.18945129 63.99028015 0.18643188 C68.27627896 0.26155526 71.08104234 0.90523394 74.44335938 3.61523438 C75.61516851 7.57009021 75.84817267 9.68416379 74.19335938 13.49023438 C72.44335938 15.61523438 72.44335938 15.61523438 69.44335938 16.61523438 C66.9856926 16.7212069 64.55595821 16.77245821 62.09790039 16.77636719 C61.35286255 16.78133209 60.60782471 16.786297 59.84020996 16.79141235 C57.37588579 16.80601618 54.91162595 16.81283228 52.44726562 16.81835938 C50.7347768 16.82411141 49.02228799 16.82986914 47.30979919 16.83563232 C43.7194692 16.84613663 40.12916156 16.85198332 36.53881836 16.85546875 C31.93745242 16.86095843 27.33638165 16.88499883 22.73510838 16.9134407 C19.19808587 16.93205812 15.66113468 16.93727216 12.12406731 16.93880463 C10.42758504 16.9418327 8.73110408 16.94986647 7.03466988 16.96298981 C4.66228825 16.98003514 2.29063081 16.97817429 -0.08178711 16.97167969 C-0.78269974 16.98089447 -1.48361237 16.99010925 -2.20576477 16.99960327 C-6.26464023 16.96477638 -8.65631329 16.53853023 -11.55664062 13.61523438 C-12.34179688 11.74804688 -12.34179688 11.74804688 -12.61914062 9.74023438 C-12.73386719 9.0828125 -12.84859375 8.42539062 -12.96679688 7.74804688 C-11.67816412 1.04715657 -5.85994384 -0.11196289 0 0 Z " fill="#96A1C3" transform="translate(204.556640625,351.384765625)"/>
<path d="M0 0 C4.10703441 0.85563217 5.55401113 2.24378009 8 5.625 C8.44294089 10.948033 7.41666518 15.49005859 5.87890625 20.53515625 C3.75143126 27.83756524 1.8334607 35.17025261 0.02734375 42.55859375 C-0.48465788 44.62834632 -0.99703034 46.69800718 -1.50976562 48.76757812 C-2.29603396 51.94560882 -3.07747176 55.12450055 -3.84594727 58.30688477 C-4.60343989 61.43607048 -5.37999446 64.55999438 -6.16015625 67.68359375 C-6.38631119 68.63971054 -6.61246613 69.59582733 -6.84547424 70.58091736 C-7.06928268 71.46356766 -7.29309113 72.34621796 -7.52368164 73.25561523 C-7.71289688 74.02961166 -7.90211212 74.80360809 -8.09706116 75.60105896 C-9.25570229 78.1981577 -10.58351854 79.17121815 -13 80.625 C-15.9375 81.125 -15.9375 81.125 -19 80.625 C-21.875 78.5625 -21.875 78.5625 -24 75.625 C-24.31883603 70.86759878 -23.75047451 66.73652002 -22.6105957 62.12646484 C-22.30640213 60.88182465 -22.00220856 59.63718445 -21.688797 58.35482788 C-21.35182554 57.01502139 -21.01413615 55.67539529 -20.67578125 54.3359375 C-20.32881861 52.94549883 -19.98207647 51.55500513 -19.63554382 50.16445923 C-18.90924304 47.2597925 -18.17604958 44.35696388 -17.4387207 41.45507812 C-16.49757733 37.74618937 -15.58038345 34.03182777 -14.66907978 30.3155117 C-13.96126742 27.44533178 -13.23751346 24.57934728 -12.50929832 21.71428299 C-12.16437149 20.34663962 -11.82511311 18.97755303 -11.49178505 17.60703659 C-11.02339289 15.68877372 -10.53034662 13.77658229 -10.03637695 11.86474609 C-9.76324173 10.77777435 -9.49010651 9.69080261 -9.20869446 8.57089233 C-7.3524338 4.04671834 -4.86890434 1.01435507 0 0 Z " fill="#EFF4FF" transform="translate(96,287.375)"/>
<path d="M0 0 C0.66569504 -0.00554901 1.33139008 -0.01109802 2.01725769 -0.01681519 C4.20691044 -0.02857861 6.39447797 -0.00437471 8.58398438 0.02148438 C10.11185614 0.02319649 11.63973084 0.02312877 13.16760254 0.0213623 C16.36543997 0.02301365 19.56257476 0.04167599 22.76025391 0.07324219 C26.85265379 0.1129199 30.94413402 0.11728643 35.03668976 0.10977936 C38.19037249 0.1067051 41.3438497 0.11884625 44.4974823 0.13591003 C46.00610565 0.14292529 47.5147523 0.14606636 49.02339172 0.1452179 C51.13450962 0.14702221 53.24453978 0.16845545 55.35546875 0.1953125 C57.15485901 0.20794128 57.15485901 0.20794128 58.99060059 0.2208252 C62.50598722 0.65585581 64.4061499 1.42935876 67.17773438 3.61523438 C68.34954351 7.57009021 68.58254767 9.68416379 66.92773438 13.49023438 C65.17773438 15.61523438 65.17773438 15.61523438 62.17773438 16.61523438 C59.97587341 16.71994026 57.77096424 16.7638979 55.56665039 16.77636719 C54.89964111 16.78133209 54.23263184 16.786297 53.54541016 16.79141235 C51.34080979 16.80600722 49.13628134 16.81283076 46.93164062 16.81835938 C45.39851378 16.82411214 43.86538694 16.82986986 42.33226013 16.83563232 C39.11855738 16.84613407 35.9048796 16.85198243 32.69116211 16.85546875 C28.57405421 16.86095796 24.45727627 16.88499827 20.34027195 16.9134407 C17.17383356 16.93206534 14.00747479 16.93727254 10.84098625 16.93880463 C9.32313161 16.94183107 7.80527836 16.94985938 6.28747749 16.96298981 C4.16413352 16.98005061 2.04159765 16.97817077 -0.08178711 16.97167969 C-1.28963364 16.97532532 -2.49748016 16.97897095 -3.7419281 16.98272705 C-7.08217443 16.58422654 -8.44457294 15.94418256 -10.82226562 13.61523438 C-11.60742188 11.74804688 -11.60742188 11.74804688 -11.88476562 9.74023438 C-11.99949219 9.0828125 -12.11421875 8.42539063 -12.23242188 7.74804688 C-11.00767616 1.37936915 -5.67628993 -0.00972131 0 0 Z " fill="#96A1C3" transform="translate(219.822265625,159.384765625)"/>
<path d="M0 0 C1.73618591 -0.00006042 1.73618591 -0.00006042 3.50744629 -0.00012207 C5.95179684 0.00523347 8.39614694 0.02281732 10.84033203 0.05175781 C14.58028833 0.09359939 18.31844293 0.09282635 22.05859375 0.0859375 C24.43490834 0.09643055 26.81121365 0.10936926 29.1875 0.125 C30.3053186 0.12520142 31.42313721 0.12540283 32.5748291 0.12561035 C34.14170471 0.14947815 34.14170471 0.14947815 35.74023438 0.17382812 C37.11326721 0.18645691 37.11326721 0.18645691 38.51403809 0.19934082 C41.66986243 0.68183117 43.55480977 1.67385991 46.09375 3.59375 C47.26555914 7.54860583 47.4985633 9.66267942 45.84375 13.46875 C44.09375 15.59375 44.09375 15.59375 41.09375 16.59375 C39.38186229 16.69623411 37.6663217 16.74219402 35.95141602 16.75488281 C34.90345352 16.76449036 33.85549103 16.7740979 32.77577209 16.78399658 C31.64449387 16.78824646 30.51321564 16.79249634 29.34765625 16.796875 C28.18499741 16.80257507 27.02233856 16.80827515 25.82444763 16.81414795 C23.36401276 16.8235985 20.90356524 16.83013215 18.44311523 16.83398438 C14.67474403 16.84370231 10.90691532 16.87473101 7.13867188 16.90625 C4.75000324 16.9127788 2.36133071 16.91802975 -0.02734375 16.921875 C-1.15659775 16.9342218 -2.28585175 16.9465686 -3.44932556 16.95928955 C-4.50044022 16.95628845 -5.55155487 16.95328735 -6.63452148 16.95019531 C-8.01993385 16.95566376 -8.01993385 16.95566376 -9.43333435 16.96124268 C-12.37918338 16.52346877 -13.74027355 15.60206635 -15.90625 13.59375 C-16.69140625 11.7265625 -16.69140625 11.7265625 -16.96875 9.71875 C-17.08347656 9.06132812 -17.19820313 8.40390625 -17.31640625 7.7265625 C-16.80554703 5.07009458 -15.68096573 3.52957478 -13.73875427 1.67184448 C-9.65179109 -0.73258782 -4.59754977 -0.06743316 0 0 Z " fill="#96A1C3" transform="translate(320.90625,255.40625)"/>
<path d="M0 0 C1.73618591 -0.00006042 1.73618591 -0.00006042 3.50744629 -0.00012207 C5.95179684 0.00523347 8.39614694 0.02281732 10.84033203 0.05175781 C14.58028833 0.09359939 18.31844293 0.09282635 22.05859375 0.0859375 C24.43490834 0.09643055 26.81121365 0.10936926 29.1875 0.125 C30.3053186 0.12520142 31.42313721 0.12540283 32.5748291 0.12561035 C34.14170471 0.14947815 34.14170471 0.14947815 35.74023438 0.17382812 C37.11326721 0.18645691 37.11326721 0.18645691 38.51403809 0.19934082 C41.66986243 0.68183117 43.55480977 1.67385991 46.09375 3.59375 C47.26555914 7.54860583 47.4985633 9.66267942 45.84375 13.46875 C44.09375 15.59375 44.09375 15.59375 41.09375 16.59375 C39.38186229 16.69623411 37.6663217 16.74219402 35.95141602 16.75488281 C34.90345352 16.76449036 33.85549103 16.7740979 32.77577209 16.78399658 C31.64449387 16.78824646 30.51321564 16.79249634 29.34765625 16.796875 C28.18499741 16.80257507 27.02233856 16.80827515 25.82444763 16.81414795 C23.36401276 16.8235985 20.90356524 16.83013215 18.44311523 16.83398438 C14.67474403 16.84370231 10.90691532 16.87473101 7.13867188 16.90625 C4.75000324 16.9127788 2.36133071 16.91802975 -0.02734375 16.921875 C-1.15659775 16.9342218 -2.28585175 16.9465686 -3.44932556 16.95928955 C-4.50044022 16.95628845 -5.55155487 16.95328735 -6.63452148 16.95019531 C-8.01993385 16.95566376 -8.01993385 16.95566376 -9.43333435 16.96124268 C-12.37918338 16.52346877 -13.74027355 15.60206635 -15.90625 13.59375 C-16.69140625 11.7265625 -16.69140625 11.7265625 -16.96875 9.71875 C-17.08347656 9.06132812 -17.19820313 8.40390625 -17.31640625 7.7265625 C-16.80554703 5.07009458 -15.68096573 3.52957478 -13.73875427 1.67184448 C-9.65179109 -0.73258782 -4.59754977 -0.06743316 0 0 Z " fill="#96A1C3" transform="translate(144.90625,223.40625)"/>
<path d="M0 0 C1.73618591 -0.00006042 1.73618591 -0.00006042 3.50744629 -0.00012207 C5.95179684 0.00523347 8.39614694 0.02281732 10.84033203 0.05175781 C14.58028833 0.09359939 18.31844293 0.09282635 22.05859375 0.0859375 C24.43490834 0.09643055 26.81121365 0.10936926 29.1875 0.125 C30.3053186 0.12520142 31.42313721 0.12540283 32.5748291 0.12561035 C34.14170471 0.14947815 34.14170471 0.14947815 35.74023438 0.17382812 C37.11326721 0.18645691 37.11326721 0.18645691 38.51403809 0.19934082 C41.66986243 0.68183117 43.55480977 1.67385991 46.09375 3.59375 C47.26555914 7.54860583 47.4985633 9.66267942 45.84375 13.46875 C44.09375 15.59375 44.09375 15.59375 41.09375 16.59375 C39.38186229 16.69623411 37.6663217 16.74219402 35.95141602 16.75488281 C34.90345352 16.76449036 33.85549103 16.7740979 32.77577209 16.78399658 C31.64449387 16.78824646 30.51321564 16.79249634 29.34765625 16.796875 C28.18499741 16.80257507 27.02233856 16.80827515 25.82444763 16.81414795 C23.36401276 16.8235985 20.90356524 16.83013215 18.44311523 16.83398438 C14.67474403 16.84370231 10.90691532 16.87473101 7.13867188 16.90625 C4.75000324 16.9127788 2.36133071 16.91802975 -0.02734375 16.921875 C-1.15659775 16.9342218 -2.28585175 16.9465686 -3.44932556 16.95928955 C-4.50044022 16.95628845 -5.55155487 16.95328735 -6.63452148 16.95019531 C-8.01993385 16.95566376 -8.01993385 16.95566376 -9.43333435 16.96124268 C-12.37918338 16.52346877 -13.74027355 15.60206635 -15.90625 13.59375 C-16.69140625 11.7265625 -16.69140625 11.7265625 -16.96875 9.71875 C-17.08347656 9.06132812 -17.19820313 8.40390625 -17.31640625 7.7265625 C-16.80554703 5.07009458 -15.68096573 3.52957478 -13.73875427 1.67184448 C-9.65179109 -0.73258782 -4.59754977 -0.06743316 0 0 Z " fill="#96A1C3" transform="translate(144.90625,159.40625)"/>
<path d="M0 0 C1.73618591 -0.00006042 1.73618591 -0.00006042 3.50744629 -0.00012207 C5.95179684 0.00523347 8.39614694 0.02281732 10.84033203 0.05175781 C14.58028833 0.09359939 18.31844293 0.09282635 22.05859375 0.0859375 C24.43490834 0.09643055 26.81121365 0.10936926 29.1875 0.125 C30.3053186 0.12520142 31.42313721 0.12540283 32.5748291 0.12561035 C34.14170471 0.14947815 34.14170471 0.14947815 35.74023438 0.17382812 C37.11326721 0.18645691 37.11326721 0.18645691 38.51403809 0.19934082 C41.66986243 0.68183117 43.55480977 1.67385991 46.09375 3.59375 C47.26555914 7.54860583 47.4985633 9.66267942 45.84375 13.46875 C44.09375 15.59375 44.09375 15.59375 41.09375 16.59375 C39.38186229 16.69623411 37.6663217 16.74219402 35.95141602 16.75488281 C34.90345352 16.76449036 33.85549103 16.7740979 32.77577209 16.78399658 C31.64449387 16.78824646 30.51321564 16.79249634 29.34765625 16.796875 C28.18499741 16.80257507 27.02233856 16.80827515 25.82444763 16.81414795 C23.36401276 16.8235985 20.90356524 16.83013215 18.44311523 16.83398438 C14.67474403 16.84370231 10.90691532 16.87473101 7.13867188 16.90625 C4.75000324 16.9127788 2.36133071 16.91802975 -0.02734375 16.921875 C-1.15659775 16.9342218 -2.28585175 16.9465686 -3.44932556 16.95928955 C-4.50044022 16.95628845 -5.55155487 16.95328735 -6.63452148 16.95019531 C-8.01993385 16.95566376 -8.01993385 16.95566376 -9.43333435 16.96124268 C-12.37918338 16.52346877 -13.74027355 15.60206635 -15.90625 13.59375 C-16.69140625 11.7265625 -16.69140625 11.7265625 -16.96875 9.71875 C-17.08347656 9.06132812 -17.19820313 8.40390625 -17.31640625 7.7265625 C-16.80554703 5.07009458 -15.68096573 3.52957478 -13.73875427 1.67184448 C-9.65179109 -0.73258782 -4.59754977 -0.06743316 0 0 Z " fill="#96A1C3" transform="translate(144.90625,127.40625)"/>
<path d="M0 0 C4.96071727 1.16722759 7.63211513 4.21812181 11.1875 7.75 C12.2355008 8.77231616 13.28369042 9.79443878 14.33203125 10.81640625 C23.89581841 20.21867168 23.89581841 20.21867168 24.6875 24.375 C23.91571455 29.58455179 20.81629787 32.09705039 17.1875 35.75 C16.16518384 36.7980008 15.14306122 37.84619042 14.12109375 38.89453125 C4.61982408 48.55902346 4.61982408 48.55902346 0.375 49.125 C-2.8125 48.75 -2.8125 48.75 -5.6875 46.625 C-7.8125 43.75 -7.8125 43.75 -8.5625 40.9375 C-7.41540332 36.0623391 -4.27689457 33.23664978 -0.8125 29.75 C0.3940625 28.5125 0.3940625 28.5125 1.625 27.25 C2.140625 26.755 2.65625 26.26 3.1875 25.75 C1.72167985 22.32719483 -0.19312255 20.18519517 -2.875 17.625 C-7.63779371 13.06029717 -7.63779371 13.06029717 -8.1875 8.9375 C-7.8125 5.75 -7.8125 5.75 -5.6875 2.875 C-2.8125 0.75 -2.8125 0.75 0 0 Z " fill="#EFF3FF" transform="translate(119.8125,303.25)"/>
<path d="M0 0 C3.21142855 2.37366458 4.71584605 3.93442268 5.75 7.8125 C4.60290332 12.6876609 1.46439457 15.51335022 -2 19 C-3.2065625 20.2375 -3.2065625 20.2375 -4.4375 21.5 C-4.953125 21.995 -5.46875 22.49 -6 23 C-4.53417985 26.42280517 -2.61937745 28.56480483 0.0625 31.125 C4.82529371 35.68970283 4.82529371 35.68970283 5.375 39.8125 C5 43 5 43 2.875 45.875 C0 48 0 48 -2.8125 48.75 C-7.77321727 47.58277241 -10.44461513 44.53187819 -14 41 C-15.0480008 39.97768384 -16.09619042 38.95556122 -17.14453125 37.93359375 C-26.70831841 28.53132832 -26.70831841 28.53132832 -27.5 24.375 C-26.72821455 19.16544821 -23.62879787 16.65294961 -20 13 C-18.97768384 11.9519992 -17.95556122 10.90380958 -16.93359375 9.85546875 C-6.49353035 -0.76394475 -6.49353035 -0.76394475 0 0 Z " fill="#EFF3FF" transform="translate(59,304)"/>
<path d="M0 0 C0.80232056 -0.00004028 1.60464111 -0.00008057 2.43127441 -0.00012207 C4.12239443 0.00522359 5.8135146 0.02276578 7.50439453 0.05175781 C10.08573724 0.09362006 12.66446867 0.09282315 15.24609375 0.0859375 C16.89324721 0.09643096 18.54038728 0.10936992 20.1875 0.125 C21.3392572 0.12530212 21.3392572 0.12530212 22.51428223 0.12561035 C27.00556641 0.22428421 30.08499362 0.69725983 33.59375 3.59375 C34.76555914 7.54860583 34.9985633 9.66267942 33.34375 13.46875 C31.59375 15.59375 31.59375 15.59375 28.59375 16.59375 C25.83664043 16.71468389 23.10557638 16.78187326 20.34765625 16.796875 C19.13637306 16.80542511 19.13637306 16.80542511 17.90061951 16.81414795 C16.19344388 16.82358834 14.48625011 16.83012812 12.77905273 16.83398438 C10.16943625 16.8437009 7.56060393 16.8747369 4.95117188 16.90625 C3.29167134 16.91277933 1.63216518 16.91803007 -0.02734375 16.921875 C-0.80661728 16.9342218 -1.58589081 16.9465686 -2.38877869 16.95928955 C-5.67506266 16.9457938 -7.99136563 16.82910765 -10.88085938 15.18994141 C-12.65730202 13.33104544 -13.11884837 12.25184068 -13.46875 9.71875 C-13.58347656 9.06132812 -13.69820312 8.40390625 -13.81640625 7.7265625 C-12.44387172 0.58938296 -6.11332719 -0.13053482 0 0 Z " fill="#97A1C3" transform="translate(205.40625,319.40625)"/>
<path d="M0 0 C2.66303538 2.06462725 3.85136869 3.25516083 4.51757812 6.59375 C4.52208984 7.5528125 4.52660156 8.511875 4.53125 9.5 C4.53640625 10.551875 4.5415625 11.60375 4.546875 12.6875 C4.53140625 13.780625 4.5159375 14.87375 4.5 16 C4.51546875 17.093125 4.5309375 18.18625 4.546875 19.3125 C4.54171875 20.364375 4.5365625 21.41625 4.53125 22.5 C4.52673828 23.4590625 4.52222656 24.418125 4.51757812 25.40625 C3.85107404 28.74631573 2.67136274 29.9421674 0 32 C-3.75349462 32.46918683 -6.03848453 32.53136381 -9.375 30.6875 C-13.20251295 26.71277501 -12.29820594 20.79114554 -12.375 15.625 C-12.41238281 14.67882812 -12.44976562 13.73265625 -12.48828125 12.7578125 C-12.54773944 8.05400922 -12.55417183 5.75363605 -9.69921875 1.87109375 C-6.16772716 -0.57693009 -4.2124014 -0.68930205 0 0 Z " fill="#053D5A" transform="translate(412,336)"/>
<path d="M0 0 C0.93714844 -0.00257813 1.87429688 -0.00515625 2.83984375 -0.0078125 C11.66104117 0.11731087 11.66104117 0.11731087 15.5 3.5 C16.67180914 7.45485583 16.9048133 9.56892942 15.25 13.375 C13.5 15.5 13.5 15.5 10.5 16.5 C7.02517506 16.75394579 3.54564065 16.73126084 0.0625 16.75 C-1.36932617 16.7809375 -1.36932617 16.7809375 -2.83007812 16.8125 C-3.75111328 16.81765625 -4.67214844 16.8228125 -5.62109375 16.828125 C-6.4608374 16.8374707 -7.30058105 16.84681641 -8.16577148 16.85644531 C-11.0252817 16.41978755 -12.38411115 15.43640556 -14.5 13.5 C-15.28515625 11.6328125 -15.28515625 11.6328125 -15.5625 9.625 C-15.67722656 8.96757812 -15.79195313 8.31015625 -15.91015625 7.6328125 C-14.31531979 -0.66033708 -6.69368514 -0.20255994 0 0 Z " fill="#97A2C4" transform="translate(311.5,351.5)"/>
<path d="M0 0 C0.93714844 -0.00257813 1.87429687 -0.00515625 2.83984375 -0.0078125 C11.66104117 0.11731087 11.66104117 0.11731087 15.5 3.5 C16.67180914 7.45485583 16.9048133 9.56892942 15.25 13.375 C13.5 15.5 13.5 15.5 10.5 16.5 C7.02517506 16.75394579 3.54564065 16.73126084 0.0625 16.75 C-1.36932617 16.7809375 -1.36932617 16.7809375 -2.83007812 16.8125 C-3.75111328 16.81765625 -4.67214844 16.8228125 -5.62109375 16.828125 C-6.4608374 16.8374707 -7.30058105 16.84681641 -8.16577148 16.85644531 C-11.0252817 16.41978755 -12.38411115 15.43640556 -14.5 13.5 C-15.28515625 11.6328125 -15.28515625 11.6328125 -15.5625 9.625 C-15.67722656 8.96757812 -15.79195313 8.31015625 -15.91015625 7.6328125 C-14.31531979 -0.66033708 -6.69368514 -0.20255994 0 0 Z " fill="#97A2C4" transform="translate(143.5,191.5)"/>
<path d="M0 0 C2.5 1.5 2.5 1.5 4 4 C4.791013 8.02098277 4.62153384 10.96411027 2.5 14.5 C-1.03588973 16.62153384 -3.97901723 16.791013 -8 16 C-10.5 14.5 -10.5 14.5 -12 12 C-12.791013 7.97901723 -12.62153384 5.03588973 -10.5 1.5 C-6.96411027 -0.62153384 -4.02098277 -0.791013 0 0 Z " fill="#96A0C3" transform="translate(300,40)"/>
<path d="M0 0 C2.5 1.5 2.5 1.5 4 4 C4.791013 8.02098277 4.62153384 10.96411027 2.5 14.5 C-1.03588973 16.62153384 -3.97901723 16.791013 -8 16 C-10.5 14.5 -10.5 14.5 -12 12 C-12.791013 7.97901723 -12.62153384 5.03588973 -10.5 1.5 C-6.96411027 -0.62153384 -4.02098277 -0.791013 0 0 Z " fill="#96A0C3" transform="translate(268,40)"/>
</svg>
