<?xml version="1.0" encoding="UTF-8"?>
<svg version="1.1" xmlns="http://www.w3.org/2000/svg" width="512" height="512">
<path d="M0 0 C0.78087859 -0.00350607 1.56175718 -0.00701215 2.36629876 -0.01062447 C4.98667224 -0.01993897 7.6068235 -0.01501503 10.22720623 -0.01015663 C12.12338034 -0.01389286 14.01955291 -0.01849427 15.91572303 -0.02388728 C21.12953299 -0.03613598 26.34327887 -0.0358546 31.55709994 -0.03349853 C37.17890612 -0.03309083 42.80069163 -0.04412493 48.42248821 -0.05361366 C59.43773641 -0.07023472 70.45296321 -0.0757237 81.46822289 -0.07683842 C90.42061912 -0.07778834 99.37300827 -0.08189581 108.32540226 -0.08823967 C129.56993443 -0.10298793 150.81446066 -0.11528908 172.05899811 -0.11424255 C172.73839077 -0.1142114 173.41778342 -0.11418024 174.11776374 -0.11414814 C177.56119978 -0.11398192 181.00463583 -0.11378384 184.44807187 -0.11357872 C185.13194931 -0.11353883 185.81582674 -0.11349894 186.52042773 -0.11345784 C187.90339449 -0.11337697 189.28636125 -0.11329337 190.66932801 -0.11320706 C212.1863437 -0.11198153 233.70329635 -0.12699511 255.220294 -0.15435219 C279.39518226 -0.1850759 303.57001589 -0.20225918 327.74492854 -0.20042574 C340.54483445 -0.19976134 353.34466927 -0.20527583 366.14455891 -0.22678185 C377.04191521 -0.24497375 387.93916821 -0.24935729 398.83653311 -0.235763 C404.39711879 -0.22922344 409.95750615 -0.22915196 415.51807308 -0.2464695 C420.60893975 -0.26216126 425.69945019 -0.25937632 430.79030796 -0.24190123 C432.63146252 -0.23882277 434.47264341 -0.24249549 436.31376693 -0.25362138 C453.88048624 -0.35274181 453.88048624 -0.35274181 461.10286236 4.25726891 C461.75036774 4.6355353 462.39787312 5.0138017 463.06499988 5.40353072 C469.99582465 9.58621089 473.92193181 16.64878164 476.10286236 24.25726891 C476.36013126 27.46640205 476.36013126 27.46640205 476.3702879 30.9857235 C476.37481901 31.63716276 476.37935012 32.28860203 476.38401854 32.95978189 C476.39661531 35.12900461 476.39504527 37.29797474 476.3933897 39.46722984 C476.39937799 41.02822757 476.40618423 42.58922234 476.41374493 44.15021324 C476.43138345 48.38181529 476.43609945 52.6133364 476.4373765 56.84497166 C476.43880009 59.49207903 476.44307368 62.13916595 476.44837093 64.78626823 C476.46686546 74.0308468 476.47504244 83.27536776 476.47346783 92.51996422 C476.4722672 101.12121513 476.49335544 109.7222148 476.52495515 118.32340217 C476.55115794 125.72065777 476.56183342 133.11783152 476.56055701 140.51513314 C476.56004847 144.92751609 476.56567145 149.33967576 476.58691311 153.75201225 C476.60636265 157.90538825 476.60637447 162.05832955 476.59187984 166.21172142 C476.5897988 167.7297867 476.59445036 169.24787967 476.60660076 170.76589775 C476.69410378 182.46258903 475.278627 191.75873358 467.02864361 200.50336266 C460.02378682 206.88303953 452.7079169 209.56888274 443.23975277 209.51453781 C442.46255052 209.51804389 441.68534827 209.52154996 440.88459444 209.52516228 C438.27671674 209.53447632 435.66906234 209.52955295 433.06117535 209.52469444 C431.17396352 209.5284307 429.28675325 209.53303212 427.39954543 209.53842509 C422.21046915 209.55067355 417.02145725 209.55039244 411.8323698 209.54803634 C406.23712956 209.54762864 400.64191009 209.55866286 395.0466795 209.56815147 C384.08323322 209.58477266 373.11980846 209.59026153 362.15635064 209.59137623 C353.24543898 209.59232619 344.33453441 209.59643388 335.42362499 209.60277748 C314.27603063 209.61752609 293.12844138 209.62982688 271.98084164 209.62878036 C271.30453992 209.62874921 270.6282382 209.62871805 269.93144249 209.62868595 C266.5036875 209.62851973 263.07593252 209.62832165 259.64817753 209.62811653 C258.627037 209.6280567 258.627037 209.6280567 257.58526737 209.62799565 C256.20860372 209.62791478 254.83194007 209.62783118 253.45527643 209.62774487 C232.03894979 209.62651949 210.6226865 209.64153009 189.20637798 209.66889 C165.14318244 209.69961873 141.0800394 209.71679667 117.01681876 209.71496356 C104.27668459 209.71429929 91.53662184 209.71980747 78.79650402 209.74131966 C67.94931515 209.75951801 57.10223009 209.76388983 46.25503257 209.75030081 C40.72065111 209.74376437 35.18646888 209.74367854 29.65210629 209.76100731 C24.58400871 209.77671293 19.51626876 209.77389987 14.44818005 209.75643905 C12.61642889 209.75336363 10.7846512 209.75702187 8.95293131 209.7681592 C-3.50878073 209.83890083 -13.68775938 209.10366719 -23.14323139 200.18305016 C-29.172804 193.56260629 -32.13861228 186.52425292 -32.16456318 177.52208519 C-32.16909429 176.86994036 -32.1736254 176.21779552 -32.17829382 175.54588872 C-32.19089061 173.3743321 -32.18932056 171.2030278 -32.18766499 169.03143883 C-32.19365322 167.46881859 -32.20045944 165.9062013 -32.20802021 164.34358788 C-32.2256579 160.10792089 -32.23037466 155.87233475 -32.23165178 151.63663459 C-32.23307526 148.9875249 -32.23734858 146.33843565 -32.24264622 143.68933105 C-32.26113943 134.43942146 -32.26931776 125.18956943 -32.26774311 115.93964195 C-32.26654205 107.33041879 -32.28763922 98.72144646 -32.31923044 90.11228675 C-32.34542094 82.70995128 -32.35610924 75.3076976 -32.35483229 67.90531617 C-32.35432345 63.48905284 -32.35996318 59.0730125 -32.38118839 54.6567955 C-32.40061754 50.50096028 -32.40066357 46.34555967 -32.38615513 42.18970871 C-32.38407168 40.66961084 -32.3887402 39.14948544 -32.40087605 37.62943459 C-32.46209195 29.4268353 -32.22800677 22.45122554 -27.89713764 15.25726891 C-27.51886011 14.60603648 -27.14058258 13.95480406 -26.75084209 13.28383732 C-20.96595516 3.7605473 -10.69217893 -0.06107247 0 0 Z M-12.33463764 22.88226891 C-14.84045672 26.6911139 -15.02707965 28.77242765 -15.04430866 33.3418026 C-15.05146397 34.64007484 -15.05861927 35.93834709 -15.0659914 37.27596092 C-15.06883182 38.72318053 -15.07154353 40.1704004 -15.0741396 41.61762047 C-15.08040315 43.13525613 -15.08704985 44.65289026 -15.09405231 46.17052269 C-15.11147297 50.30083534 -15.12201716 54.43113641 -15.13025784 58.56147671 C-15.13540618 61.14152096 -15.14148201 63.72156161 -15.14776897 66.30160332 C-15.16682478 74.37258206 -15.18105459 82.44355162 -15.18938094 90.51454854 C-15.19915319 99.8335392 -15.22547063 109.15229232 -15.26588184 118.47119927 C-15.29603754 125.6721251 -15.31084933 132.87298281 -15.31416196 140.07397056 C-15.31651324 144.37563783 -15.32548353 148.67705146 -15.35062313 152.97865105 C-15.37389921 157.02688637 -15.37813913 161.07470096 -15.36786175 165.12298584 C-15.36736614 166.60725936 -15.3736939 168.09155355 -15.38741779 169.5757637 C-15.40513163 171.60536556 -15.39564693 173.63515002 -15.38488483 175.66480064 C-15.38727319 176.79969555 -15.38966154 177.93459045 -15.39212227 179.10387611 C-14.58506853 184.24536395 -12.23586566 187.17657812 -8.23884374 190.40318179 C-4.37612214 192.54634523 -1.38267873 192.81724274 2.91467571 192.76063347 C3.68632285 192.76644723 4.45796999 192.77226099 5.25300038 192.77825093 C7.84218794 192.7928646 10.43042954 192.77895969 13.0196104 192.76520348 C14.89317688 192.76981185 16.76673974 192.77616434 18.64029503 192.78411245 C23.79156792 192.80083753 28.94254507 192.79254491 34.09381914 192.78016758 C39.64809313 192.77113244 45.20231559 192.78507919 50.7565794 192.79608727 C61.63850379 192.81389348 72.52031796 192.81002312 83.40224671 192.7984367 C92.24454896 192.78941093 101.08682026 192.78817467 109.92912579 192.79253197 C111.18659451 192.7931449 112.44406324 192.79375783 113.73963708 192.79438934 C116.2939915 192.79566821 118.8483459 192.79696506 121.4027003 192.7982797 C144.68337834 192.80936621 167.96399178 192.79786019 191.24465613 192.77690931 C212.49983262 192.75792669 233.75491326 192.7596252 255.01008892 192.77875328 C278.8872032 192.80016906 302.76426461 192.80859297 326.64139175 192.79630423 C329.1864608 192.79503 331.73152986 192.79377252 334.27659893 192.79253197 C335.52889079 192.79191487 336.78118266 192.79129776 338.07142276 192.79066196 C346.90526978 192.7872052 355.73908285 192.79304444 364.57292461 192.80245018 C375.33533262 192.81365721 386.0976239 192.81065736 396.86001849 192.7893272 C402.35339169 192.7787994 407.84657013 192.7747245 413.33994198 192.78792381 C418.36590183 192.79981759 423.39148584 192.79333489 428.41741145 192.7720136 C430.23831898 192.76753475 432.05925808 192.76984245 433.88014543 192.77951676 C436.35090126 192.79163974 438.82036135 192.77924819 441.291049 192.76063347 C442.3573925 192.77468047 442.3573925 192.77468047 443.44527829 192.78901124 C448.43975387 192.71354164 451.24731701 191.36991017 455.10286236 188.25726891 C458.60040812 184.01879711 459.60351038 181.14997483 459.61079693 175.69171715 C459.62207623 174.38794624 459.63335552 173.08417534 459.64497662 171.74089622 C459.63720047 170.3082005 459.62900787 168.87550699 459.62044048 167.44281578 C459.62586432 165.92458488 459.63298846 164.40635925 459.64168072 162.88814354 C459.65988607 158.77445905 459.65285823 154.6611767 459.64016438 150.54748535 C459.63002219 146.23812989 459.63943344 141.92880837 459.64570904 137.61945152 C459.6529819 130.3832641 459.64340726 123.1472401 459.62434673 115.9110775 C459.60257862 107.55056649 459.60963025 99.19044569 459.63165236 90.82994413 C459.64981668 83.6458908 459.65235965 76.46195479 459.64189768 69.27788591 C459.6356684 64.98973414 459.63481147 60.70176565 459.64804363 56.41362572 C459.65961662 52.38169124 459.65155038 48.35025881 459.62846661 44.31837845 C459.62318719 42.84057447 459.62468021 41.36272809 459.63351727 39.8849411 C459.64448483 37.86424986 459.62827811 35.84346605 459.61079693 33.82282066 C459.60928883 32.69312103 459.60778072 31.5634214 459.60622692 30.39948845 C458.76443496 25.14465856 456.21337951 22.09582267 452.04036236 18.94476891 C447.495311 16.33378196 443.86196022 16.11236425 438.75948334 16.12304783 C438.00202717 16.1206956 437.24457099 16.11834337 436.4641616 16.11591986 C433.90546664 16.10922004 431.34682233 16.10968838 428.78811932 16.11009789 C426.94332034 16.10679987 425.09852208 16.10307444 423.25372475 16.09895641 C418.16804156 16.08892119 413.08237017 16.08521717 407.99667847 16.0825671 C402.51799429 16.07866857 397.03931949 16.06908994 391.56064129 16.06035423 C378.32184361 16.04057738 365.08304516 16.03052221 351.8442364 16.02162644 C345.61355701 16.01724567 339.38287847 16.01187833 333.15219975 16.00663757 C312.44651023 15.98962432 291.74082118 15.97510441 271.03512573 15.96788883 C269.6958611 15.96741407 268.35659648 15.96693819 267.01733185 15.96646117 C266.02109339 15.96610661 266.02109339 15.96610661 265.0047289 15.96574488 C261.63973497 15.96454367 258.27474105 15.96332823 254.90974712 15.96210289 C253.90805493 15.96174267 253.90805493 15.96174267 252.88612653 15.96137516 C231.23325706 15.95348174 209.58044236 15.93004928 187.92759681 15.89754695 C165.03850754 15.86325162 142.14944038 15.84353911 119.26032323 15.84024459 C106.78177417 15.8380773 94.30330561 15.82929662 81.82478046 15.80378342 C71.19924927 15.78210927 60.57381811 15.77400982 49.94826732 15.7837502 C44.52553864 15.78830437 39.10301651 15.78634373 33.68031597 15.76698875 C28.71644774 15.74942423 23.75293778 15.75030019 18.7890661 15.76588605 C16.99292408 15.76827233 15.19675769 15.76388593 13.40065304 15.7520574 C10.95848241 15.7369698 8.5175864 15.74658834 6.07544708 15.76228428 C5.37857398 15.75206207 4.68170087 15.74183986 3.9637104 15.73130789 C-2.62886928 15.82374469 -7.88170375 18.08680164 -12.33463764 22.88226891 Z " fill="#000000" transform="translate(33.89713764190674,300.74273109436035)"/>
<path d="M0 0 C0.82522659 -0.00671722 1.65045319 -0.01343445 2.50068665 -0.02035522 C5.21690974 -0.03928449 7.93288505 -0.04325692 10.64916992 -0.04541016 C12.5471761 -0.05184186 14.4451813 -0.0585705 16.34318542 -0.06558228 C20.31833188 -0.07754255 24.29339151 -0.08126441 28.26855469 -0.08007812 C33.34586968 -0.07987507 38.42262412 -0.10716911 43.4998064 -0.14162254 C47.41963729 -0.16393253 51.33933417 -0.1679144 55.25922203 -0.16685867 C57.13020445 -0.16920877 59.00119089 -0.17799874 60.87211037 -0.19352341 C80.92881656 -0.34436456 80.92881656 -0.34436456 88.87182617 6.18505859 C89.3900293 6.81798828 89.90823242 7.45091797 90.44213867 8.10302734 C90.97581055 8.72822266 91.50948242 9.35341797 92.05932617 9.99755859 C96.95163853 17.43742221 96.97198178 23.69546055 96.86010742 32.44287109 C96.85586258 33.69814102 96.85161774 34.95341095 96.84724426 36.24671936 C96.83334495 39.56282072 96.80645369 42.87828786 96.77313232 46.19421387 C96.74228787 49.58628904 96.72870842 52.97843008 96.71362305 56.37060547 C96.68061505 63.01075287 96.63046083 69.65060354 96.56713867 76.29052734 C97.85346191 76.25910645 97.85346191 76.25910645 99.16577148 76.22705078 C102.3563234 76.15876208 105.54650213 76.10867221 108.73754883 76.07080078 C110.11690547 76.05072092 111.49617736 76.02345069 112.87524414 75.98876953 C114.86070846 75.94009917 116.84680121 75.91966316 118.83276367 75.89990234 C120.62375488 75.86848145 120.62375488 75.86848145 122.45092773 75.83642578 C126.17886602 76.37966969 127.28208533 77.36658342 129.56713867 80.29052734 C131.28347533 83.72320066 130.75227142 87.66430734 130.77026367 91.44287109 C130.77596375 92.37160538 130.78166382 93.30033966 130.78753662 94.25721741 C130.79700664 96.23697773 130.8035285 98.21675396 130.80737305 100.1965332 C130.81691053 103.15720584 130.84784002 106.11713229 130.87963867 109.07763672 C131.0311371 135.86317701 126.31569557 160.28501877 108.56713867 181.29052734 C107.91100586 182.09232422 107.25487305 182.89412109 106.57885742 183.72021484 C90.12654171 203.02987971 67.56156657 213.20765835 42.56713867 215.29052734 C42.56713867 225.52052734 42.56713867 235.75052734 42.56713867 246.29052734 C45.55260742 246.24412109 48.53807617 246.19771484 51.61401367 246.14990234 C54.5065745 246.11870441 57.39911657 246.09441796 60.29174805 246.07080078 C62.30159906 246.0506893 64.31139158 246.0233962 66.32104492 245.98876953 C69.21051463 245.94023101 72.09921058 245.91755412 74.98901367 245.89990234 C75.88706726 245.8792572 76.78512085 245.85861206 77.71038818 245.83734131 C83.95201622 245.83509789 83.95201622 245.83509789 87.13256836 248.18994141 C88.68040432 250.45637786 89.10960483 251.57269312 89.06713867 254.29052734 C89.08260742 255.28052734 89.08260742 255.28052734 89.09838867 256.29052734 C88.2804936 259.36966172 87.13798619 260.37878679 84.56713867 262.29052734 C81.38264316 262.89801373 78.23056614 262.83673966 74.99682617 262.80810547 C73.54255219 262.81861938 73.54255219 262.81861938 72.05889893 262.8293457 C68.85302112 262.84695589 65.64802551 262.83529186 62.44213867 262.82177734 C60.21541169 262.82447138 57.98868585 262.82835306 55.76196289 262.83337402 C51.09469403 262.83927319 46.42773133 262.83069238 41.76049805 262.81201172 C35.77460359 262.78922226 29.78942648 262.80234306 23.80355835 262.82630157 C19.20534855 262.84074805 14.60730914 262.83615877 10.00909424 262.82579041 C7.80185868 262.82311995 5.5946077 262.82640402 3.38739014 262.83570862 C0.30365966 262.84585497 -2.77890528 262.83039918 -5.86254883 262.80810547 C-6.7769574 262.81620239 -7.69136597 262.82429932 -8.63348389 262.8326416 C-14.81531957 262.74974541 -14.81531957 262.74974541 -17.99780273 260.38317871 C-19.54913427 258.12097418 -19.97530673 257.00703289 -19.93286133 254.29052734 C-19.94317383 253.63052734 -19.95348633 252.97052734 -19.96411133 252.29052734 C-19.14549715 249.20868573 -18.00990246 248.19853838 -15.43286133 246.29052734 C-12.23844309 245.72795 -9.08948001 245.82553959 -5.85473633 245.89990234 C-4.92816223 245.90556213 -4.00158813 245.91122192 -3.04693604 245.91705322 C-0.09171571 245.93941813 2.86228573 245.98961473 5.81713867 246.04052734 C7.82232948 246.0605922 9.82753931 246.07884299 11.83276367 246.09521484 C16.74506769 246.13587961 21.65474133 246.21416884 26.56713867 246.29052734 C26.56713867 236.06052734 26.56713867 225.83052734 26.56713867 215.29052734 C22.60713867 214.96052734 18.64713867 214.63052734 14.56713867 214.29052734 C-0.28206408 211.00168301 -15.00326795 204.40711659 -26.43286133 194.29052734 C-27.25141602 193.60216797 -28.0699707 192.91380859 -28.91333008 192.20458984 C-48.77736079 175.07524414 -58.87540061 152.01659155 -61.43286133 126.29052734 C-61.84869923 119.64188548 -61.86783779 112.99233777 -61.82397461 106.33300781 C-61.80760535 103.36918013 -61.82407806 100.40666281 -61.84301758 97.44287109 C-61.84103948 95.54052436 -61.83720485 93.63817844 -61.83129883 91.73583984 C-61.83737152 90.85880402 -61.84344421 89.98176819 -61.84970093 89.07815552 C-61.79504715 84.34353185 -61.53973291 81.11983901 -58.43286133 77.29052734 C-55.56267692 75.85543514 -53.0974241 76.17894229 -49.89379883 76.19287109 C-47.94086914 76.19770508 -47.94086914 76.19770508 -45.94848633 76.20263672 C-44.56827734 76.21099268 -43.18806901 76.21945764 -41.80786133 76.22802734 C-40.41984207 76.23304233 -39.03182111 76.23760524 -37.64379883 76.24169922 C-34.24011001 76.25351758 -30.83650694 76.26999301 -27.43286133 76.29052734 C-27.44951591 75.252686 -27.44951591 75.252686 -27.46650696 74.19387817 C-27.56720954 67.6337188 -27.64307759 61.073779 -27.69192219 54.51301765 C-27.71787947 51.14098937 -27.75301638 47.76960628 -27.81005859 44.39794922 C-27.87107057 40.51040975 -27.89915573 36.62377265 -27.92114258 32.73583984 C-27.94694901 31.54064728 -27.97275543 30.34545471 -27.99934387 29.11404419 C-28.00227398 20.26581793 -26.11228823 13.71434698 -20.40551758 6.85302734 C-19.77516602 6.33740234 -19.14481445 5.82177734 -18.49536133 5.29052734 C-17.86758789 4.75427734 -17.23981445 4.21802734 -16.59301758 3.66552734 C-11.35029259 0.32838594 -6.06378165 -0.00715209 0 0 Z M-10.43286133 22.29052734 C-11.16256506 25.624049 -11.10612146 28.88896788 -11.06396484 32.29052734 C-11.07112015 33.29450058 -11.07827545 34.29847382 -11.08564758 35.33287048 C-11.10255558 38.65255247 -11.08310741 41.97088709 -11.06176758 45.29052734 C-11.0625966 47.60636507 -11.06505722 49.92220273 -11.06907654 52.23803711 C-11.07193668 57.09702222 -11.05722072 61.955547 -11.02978516 66.81445312 C-10.99585491 73.01355972 -11.00166815 79.21183496 -11.02044773 85.41098022 C-11.0310735 90.19829096 -11.02202684 94.98541192 -11.00706291 99.77270508 C-11.0019112 102.05622797 -11.00232596 104.33977095 -11.00860786 106.62329102 C-11.03926749 124.47991744 -10.22685687 138.89463614 2.66870117 152.50927734 C12.94220968 162.2382536 24.15185065 165.77874197 38.10229492 165.54052734 C51.26714223 164.59063983 61.59670243 157.59145334 70.56713867 148.29052734 C81.2696076 135.57808255 80.17638601 118.80108074 80.13354492 103.22802734 C80.13878698 100.90445711 80.14506559 98.58088901 80.15232849 96.25732422 C80.16268701 91.41265771 80.158231 86.56828586 80.14355469 81.72363281 C80.12628471 75.51492368 80.14998771 69.30713292 80.18504429 63.098526 C80.20698129 58.3115628 80.2055872 53.52482122 80.19727898 48.73782349 C80.19645915 46.44767238 80.20332839 44.15750506 80.21805 41.86740112 C80.23544727 38.67452823 80.22099727 35.48333231 80.19824219 32.29052734 C80.20993439 31.34709976 80.22162659 30.40367218 80.2336731 29.43165588 C80.16797214 24.90634263 80.03236852 22.90808504 77.23594666 19.19604492 C73.8421491 16.77288787 71.88011594 16.76966991 67.75463867 16.97802734 C66.0124707 17.04570312 66.0124707 17.04570312 64.23510742 17.11474609 C62.91446289 17.20175781 62.91446289 17.20175781 61.56713867 17.29052734 C61.54731934 18.42071289 61.5275 19.55089844 61.50708008 20.71533203 C61.43094987 24.91249698 61.34224389 29.10931861 61.24975586 33.30615234 C61.21149676 35.12183855 61.1766385 36.93759976 61.14526367 38.75341797 C61.09954637 41.36501857 61.04156331 43.97610423 60.98120117 46.58740234 C60.96964996 47.39796082 60.95809875 48.20851929 60.94619751 49.04364014 C60.75754025 56.26425062 60.75754025 56.26425062 58.56713867 59.29052734 C55.45163995 60.8482767 51.96269987 60.85533356 48.56713867 60.29052734 C46.64222778 58.75938293 45.6849486 57.84579978 45.16841125 55.41120911 C45.15175667 54.3553083 45.15175667 54.3553083 45.13476562 53.27807617 C45.10507439 52.07717094 45.10507439 52.07717094 45.07478333 50.852005 C45.0683934 49.99253769 45.06200348 49.13307037 45.05541992 48.24755859 C45.03746872 47.36396164 45.01951752 46.48036469 45.00102234 45.56999207 C44.94683871 42.74771904 44.91299806 39.9256159 44.87963867 37.10302734 C44.84647268 35.1895922 44.81198369 33.2761795 44.77612305 31.36279297 C44.68861607 26.67201223 44.62861767 21.98201068 44.56713867 17.29052734 C37.96713867 17.29052734 31.36713867 17.29052734 24.56713867 17.29052734 C24.52975586 20.14322266 24.49237305 22.99591797 24.45385742 25.93505859 C24.40765735 28.69530952 24.35641821 31.45542402 24.3046875 34.21557617 C24.27141617 36.13508832 24.24339113 38.05469882 24.22070312 39.97436523 C24.18719746 42.73252307 24.13488464 45.48977777 24.07885742 48.24755859 C24.06927254 49.53675957 24.06927254 49.53675957 24.05949402 50.852005 C24.03969986 51.65260849 24.0199057 52.45321198 23.99951172 53.27807617 C23.98840866 53.98201004 23.9773056 54.68594391 23.96586609 55.41120911 C23.44950521 57.84496805 22.4888023 58.75721014 20.56713867 60.29052734 C18.62963867 60.65380859 18.62963867 60.65380859 16.56713867 60.60302734 C15.54620117 60.59722656 15.54620117 60.59722656 14.50463867 60.59130859 C12.56713867 60.29052734 12.56713867 60.29052734 9.56713867 58.29052734 C8.27939421 54.42729396 8.33331074 50.71562197 8.25073242 46.68505859 C8.22995132 45.84585373 8.20917023 45.00664886 8.1877594 44.14201355 C8.12239849 41.4624344 8.06344153 38.78275765 8.00463867 36.10302734 C7.96144065 34.28595998 7.91782594 32.46890246 7.8737793 30.65185547 C7.76673087 26.19817935 7.66542548 21.74440509 7.56713867 17.29052734 C5.50647763 17.15475905 3.4432111 17.05818831 1.37963867 16.97802734 C-0.34319336 16.89101563 -0.34319336 16.89101563 -2.10083008 16.80224609 C-6.57971931 17.45858977 -7.71787425 18.68658579 -10.43286133 22.29052734 Z M-44.43286133 93.29052734 C-44.5025831 97.85859464 -44.56204524 102.4247398 -44.59765625 106.99291992 C-44.61253523 108.5395338 -44.63284496 110.08610713 -44.65917969 111.63256836 C-45.06299802 135.99627416 -38.66047295 158.11363846 -21.63989258 176.20849609 C-5.50730154 191.42738286 15.01552691 199.75674992 37.16479492 199.50537109 C58.09408412 198.18377419 78.05937239 189.66930398 92.56713867 174.29052734 C106.00727278 158.6598111 113.81583399 139.87593158 113.66479492 119.16943359 C113.66337997 118.4246727 113.66196503 117.6799118 113.6605072 116.9125824 C113.65495856 114.55935461 113.642416 112.20622584 113.62963867 109.85302734 C113.62461702 108.24690894 113.62005528 106.64078902 113.6159668 105.03466797 C113.60586153 101.1198866 113.5862767 97.20531638 113.56713867 93.29052734 C107.95713867 93.29052734 102.34713867 93.29052734 96.56713867 93.29052734 C96.52975586 95.66626953 96.49237305 98.04201172 96.45385742 100.48974609 C96.40740956 102.83659141 96.35626156 105.18329167 96.3046875 107.5300293 C96.27179936 109.13866066 96.24366008 110.74739744 96.22070312 112.35620117 C95.92436833 132.58893199 92.09479526 149.96068153 77.38745117 164.66552734 C64.07847394 177.05283025 48.54395378 182.01759102 30.58666992 181.53271484 C13.25016401 180.70108953 -0.8564307 172.72829953 -12.43286133 160.29052734 C-25.05966498 145.38904216 -26.69595588 128.82627719 -27.05786133 110.16552734 C-27.0961214 108.52488343 -27.13517754 106.88425789 -27.17504883 105.24365234 C-27.27163718 101.25938271 -27.35188803 97.27526594 -27.43286133 93.29052734 C-33.04286133 93.29052734 -38.65286133 93.29052734 -44.43286133 93.29052734 Z " fill="#000000" transform="translate(221.432861328125,1.70947265625)"/>
<path d="M0 0 C0.84271957 -0.00700928 1.68543915 -0.01401855 2.55369568 -0.02124023 C5.33756523 -0.03883633 8.1204171 -0.02719196 10.90429688 -0.01367188 C12.8395609 -0.01636633 14.77482361 -0.02024836 16.71008301 -0.02526855 C20.76534926 -0.03116578 24.82026301 -0.02259337 28.87548828 -0.00390625 C34.07447619 0.01888339 39.27263816 0.00576152 44.47159576 -0.01819611 C48.46761299 -0.03264798 52.46343428 -0.02805089 56.4594574 -0.01768494 C58.37642006 -0.01501596 60.29340049 -0.0182934 62.21034241 -0.02760315 C64.8894057 -0.0377587 67.56713022 -0.02228214 70.24609375 0 C71.4353672 -0.01214539 71.4353672 -0.01214539 72.64866638 -0.02453613 C76.22163108 0.03053809 78.21792911 0.20360734 81.08410645 2.42492676 C83.46236054 5.65887694 83.75419317 7.46751989 83.78417969 11.4387207 C83.79378723 12.46351028 83.80339478 13.48829987 83.81329346 14.54414368 C83.81754333 15.65557236 83.82179321 16.76700104 83.82617188 17.91210938 C83.83187195 19.05161545 83.83757202 20.19112152 83.84344482 21.36515808 C83.85290457 23.78029448 83.85943266 26.19544384 83.86328125 28.6105957 C83.87297953 32.30442883 83.90399152 35.99770398 83.93554688 39.69140625 C83.94207748 42.03580398 83.94732773 44.3802057 83.95117188 46.72460938 C83.96351868 47.82996536 83.97586548 48.93532135 83.98858643 50.07417297 C83.98558533 51.10841904 83.98258423 52.1426651 83.97949219 53.20825195 C83.98496063 54.56821037 83.98496063 54.56821037 83.99053955 55.9556427 C83.54228952 59.0805693 82.45480466 60.96813947 80.62304688 63.51757812 C77.43368903 65.11225705 73.97704292 64.6828036 70.47314453 64.69458008 C69.63071701 64.70115128 68.78828949 64.70772247 67.92033386 64.7144928 C65.12592486 64.73424228 62.33156959 64.7458911 59.53710938 64.75585938 C58.5841032 64.7599349 57.63109703 64.76401043 56.64921188 64.76820946 C51.60663824 64.78907571 46.56409187 64.80337589 41.52148438 64.81274414 C36.30683832 64.82381903 31.09261776 64.85822976 25.87812233 64.89791584 C21.8735778 64.92402727 17.86913558 64.93243102 13.8645134 64.93602562 C11.94194027 64.94090456 10.0193721 64.95255556 8.09688187 64.97106361 C5.40815475 64.99534238 2.72054083 64.99451103 0.03173828 64.98754883 C-0.76425278 65.00035889 -1.56024384 65.01316895 -2.38035583 65.02636719 C-5.82402331 64.99381763 -7.98449974 64.78260437 -10.87014771 62.83390808 C-12.71469821 59.99838098 -12.88351744 58.35683262 -12.89453125 54.98632812 C-12.90713989 53.87837891 -12.91974854 52.77042969 -12.93273926 51.62890625 C-12.92464233 50.43716797 -12.91654541 49.24542969 -12.90820312 48.01757812 C-12.91203003 46.78974609 -12.91585693 45.56191406 -12.9197998 44.296875 C-12.92252154 41.70116353 -12.91514224 39.10542476 -12.8984375 36.50976562 C-12.87703387 32.53258213 -12.89823275 28.55720531 -12.92382812 24.58007812 C-12.9211849 22.0592408 -12.91606003 19.53840459 -12.90820312 17.01757812 C-12.91630005 15.82583984 -12.92439697 14.63410156 -12.93273926 13.40625 C-12.92013062 12.29830078 -12.90752197 11.19035156 -12.89453125 10.04882812 C-12.89134888 9.07494141 -12.8881665 8.10105469 -12.8848877 7.09765625 C-11.48687276 -0.00362797 -6.21979377 -0.06351928 0 0 Z M3.62304688 17.51757812 C3.62304688 27.74757813 3.62304688 37.97757812 3.62304688 48.51757812 C24.41304688 48.51757812 45.20304688 48.51757812 66.62304688 48.51757812 C66.62304688 38.28757812 66.62304688 28.05757813 66.62304688 17.51757812 C45.83304687 17.51757812 25.04304687 17.51757812 3.62304688 17.51757812 Z " fill="#000000" transform="translate(63.376953125,335.482421875)"/>
<path d="M0 0 C3.47167281 0.2262729 5.56909999 0.87462799 8 3.5 C8.95987611 6.37962834 9.12153814 8.16627441 9.11352539 11.1550293 C9.11344986 12.09577805 9.11337433 13.03652679 9.11329651 14.00578308 C9.10813522 15.01836685 9.10297394 16.03095062 9.09765625 17.07421875 C9.0962413 18.11318802 9.09482635 19.15215729 9.09336853 20.22261047 C9.08776656 23.54426948 9.07521372 26.86586133 9.0625 30.1875 C9.05748525 32.43815007 9.0529223 34.68880119 9.04882812 36.93945312 C9.03779649 42.45965837 9.02105643 47.97982439 9 53.5 C10.02843018 53.47498413 10.02843018 53.47498413 11.07763672 53.44946289 C11.97756348 53.4364917 12.87749023 53.42352051 13.8046875 53.41015625 C15.14249268 53.38514038 15.14249268 53.38514038 16.50732422 53.35961914 C19 53.5 19 53.5 22.125 54.9375 C24.50959885 58.19645176 24.73080388 60.39442605 24.46875 64.37109375 C24 66.5 24 66.5 22.125 69.0625 C17.72195437 71.08790099 13.76862544 70.83334081 9 70.5 C9.04640625 71.59699219 9.0928125 72.69398438 9.140625 73.82421875 C9.1781579 75.2786185 9.21455643 76.73304783 9.25 78.1875 C9.28351563 78.90873047 9.31703125 79.62996094 9.3515625 80.37304688 C9.42219056 84.23993337 9.26020245 86.08001438 7.16796875 89.45703125 C4.39412341 92.07094316 2.79450067 92.5 -1 92.5 C-4.52906067 90.89588152 -5.82772908 89.75840638 -8 86.5 C-8.14245897 83.73344676 -8.18769445 81.07346694 -8.125 78.3125 C-8.11597656 77.56291016 -8.10695313 76.81332031 -8.09765625 76.04101562 C-8.07412578 74.19387346 -8.03825561 72.34689588 -8 70.5 C-8.66386719 70.54640625 -9.32773437 70.5928125 -10.01171875 70.640625 C-14.2793638 70.81506889 -17.20339593 70.90643065 -21.0625 68.9375 C-23.64287006 65.69122799 -24.07252219 63.63376477 -24 59.5 C-22.23358828 56.69810554 -20.96950178 54.98475089 -18 53.5 C-16.29297265 53.43003986 -14.58331997 53.41559846 -12.875 53.4375 C-11.96492188 53.44652344 -11.05484375 53.45554687 -10.1171875 53.46484375 C-9.41851562 53.47644531 -8.71984375 53.48804688 -8 53.5 C-8.00888245 52.9097554 -8.01776489 52.3195108 -8.0269165 51.71138 C-8.11547008 45.5633005 -8.17576748 39.41540242 -8.21972656 33.2668457 C-8.23983106 30.97282552 -8.26711891 28.67885652 -8.30175781 26.38500977 C-8.35032559 23.08597174 -8.37298077 19.78761178 -8.390625 16.48828125 C-8.41127014 15.46414627 -8.43191528 14.44001129 -8.45318604 13.38484192 C-8.45542838 6.25520328 -8.45542838 6.25520328 -6.10058594 2.3503418 C-3.82269525 0.34381768 -2.98502836 -0.1399232 0 0 Z " fill="#000000" transform="translate(368,337.5)"/>
<path d="M0 0 C2.98159929 2.05443591 4.74835011 3.65957483 5.43325806 7.30776978 C5.57973553 10.21413174 5.56158717 13.07911624 5.48828125 15.98828125 C5.48120651 17.04661667 5.47413177 18.10495209 5.46684265 19.19535828 C5.43890219 22.56846437 5.37616121 25.93989746 5.3125 29.3125 C5.28741682 31.60218953 5.26460369 33.89190514 5.24414062 36.18164062 C5.18907681 41.78832915 5.1054533 47.39404504 5 53 C5.68634521 52.98042236 6.37269043 52.96084473 7.07983398 52.94067383 C7.98032471 52.92544678 8.88081543 52.91021973 9.80859375 52.89453125 C10.70118896 52.87495361 11.59378418 52.85537598 12.51342773 52.83520508 C15 53 15 53 18.0625 54.6875 C20.25391228 57.30305659 20.91707345 58.60001162 21 62 C19.94566198 66.02565428 18.53255452 67.855893 15 70 C12.421875 70.29296875 12.421875 70.29296875 9.75 70.1875 C8.41195312 70.14689453 8.41195312 70.14689453 7.046875 70.10546875 C6.37140625 70.07066406 5.6959375 70.03585937 5 70 C5.04640625 71.09699219 5.0928125 72.19398438 5.140625 73.32421875 C5.1781579 74.7786185 5.21455643 76.23304783 5.25 77.6875 C5.28351563 78.40873047 5.31703125 79.12996094 5.3515625 79.87304688 C5.42219056 83.73993337 5.26020245 85.58001438 3.16796875 88.95703125 C0.39412341 91.57094316 -1.20549933 92 -5 92 C-8.52906067 90.39588152 -9.82772908 89.25840638 -12 86 C-12.14245897 83.23344676 -12.18769445 80.57346694 -12.125 77.8125 C-12.11597656 77.06291016 -12.10695312 76.31332031 -12.09765625 75.54101562 C-12.07412578 73.69387346 -12.03825561 71.84689588 -12 70 C-12.66386719 70.04640625 -13.32773438 70.0928125 -14.01171875 70.140625 C-18.31728216 70.31661883 -21.19666848 70.42625754 -25.0625 68.375 C-27.45451022 65.44285843 -28 63.77982428 -28 60 C-26.39588152 56.47093933 -25.25840638 55.17227092 -22 53 C-19.51953125 52.8046875 -19.51953125 52.8046875 -16.8125 52.875 C-15.91144531 52.89304687 -15.01039063 52.91109375 -14.08203125 52.9296875 C-13.39496094 52.95289063 -12.70789063 52.97609375 -12 53 C-12.01110306 52.4097554 -12.02220612 51.8195108 -12.03364563 51.21138 C-12.1443366 45.06335597 -12.21970745 38.91561533 -12.2746582 32.7668457 C-12.29978928 30.47278342 -12.33389969 28.1788011 -12.37719727 25.88500977 C-12.43790832 22.58589951 -12.46622437 19.28784854 -12.48828125 15.98828125 C-12.51408768 14.96414627 -12.5398941 13.94001129 -12.56648254 12.88484192 C-12.56927764 5.77512901 -12.56927764 5.77512901 -9.68823242 1.85229492 C-6.12602182 -0.60220438 -4.24172543 -0.75745097 0 0 Z " fill="#000000" transform="translate(234,338)"/>
<path d="M0 0 C3.47167281 0.2262729 5.56909999 0.87462799 8 3.5 C9.2062252 7.11867559 9.10816918 10.42506251 9.0625 14.1875 C9.05798828 14.88939453 9.05347656 15.59128906 9.04882812 16.31445312 C9.03706927 18.04300538 9.01913454 19.77151365 9 21.5 C10.19625 21.438125 11.3925 21.37625 12.625 21.3125 C16.7440472 21.30518375 19.47950587 22.26749153 23 24.5 C24.60813266 27.71626531 24.45492615 31.01223287 24 34.5 C22.6875 37 22.6875 37 20 38.5 C17.33129883 38.64648438 17.33129883 38.64648438 14.33203125 38.59375 C13.33534424 38.58021484 12.33865723 38.56667969 11.31176758 38.55273438 C10.16744263 38.52663086 10.16744263 38.52663086 9 38.5 C9.00888245 39.0902446 9.01776489 39.6804892 9.0269165 40.28862 C9.11547008 46.4366995 9.17576748 52.58459758 9.21972656 58.7331543 C9.23983106 61.02717448 9.26711891 63.32114348 9.30175781 65.61499023 C9.35032559 68.91402826 9.37298077 72.21238822 9.390625 75.51171875 C9.41127014 76.53585373 9.43191528 77.55998871 9.45318604 78.61515808 C9.45458394 83.0598738 9.45042374 85.73553413 7.15917969 89.62426758 C4.36730635 92.04963651 2.6884598 92.5 -1 92.5 C-4.52906067 90.89588152 -5.82772908 89.75840638 -8 86.5 C-8.24050903 84.31697083 -8.24050903 84.31697083 -8.22705078 81.75317383 C-8.22689972 80.79240433 -8.22674866 79.83163483 -8.22659302 78.8417511 C-8.21627045 77.80729355 -8.20594788 76.772836 -8.1953125 75.70703125 C-8.1924826 74.64586594 -8.18965271 73.58470062 -8.18673706 72.49137878 C-8.17553184 69.09830503 -8.15042647 65.70549413 -8.125 62.3125 C-8.11497065 60.01367568 -8.10584472 57.71484724 -8.09765625 55.41601562 C-8.07559141 49.77725389 -8.04211044 44.13864572 -8 38.5 C-8.7636084 38.51885254 -9.5272168 38.53770508 -10.31396484 38.55712891 C-11.80984131 38.57912354 -11.80984131 38.57912354 -13.3359375 38.6015625 C-14.3264209 38.62041504 -15.3169043 38.63926758 -16.33740234 38.65869141 C-19 38.5 -19 38.5 -21.625 36.875 C-23.33201357 33.92652201 -23.93026479 31.91702512 -24 28.5 C-22.34971168 24.67827969 -20.82717051 23.01991387 -17 21.5 C-14.640625 21.3046875 -14.640625 21.3046875 -12.25 21.375 C-11.45078125 21.39304687 -10.6515625 21.41109375 -9.828125 21.4296875 C-9.22484375 21.45289063 -8.6215625 21.47609375 -8 21.5 C-8.04640625 20.40300781 -8.0928125 19.30601562 -8.140625 18.17578125 C-8.1781579 16.7213815 -8.21455643 15.26695217 -8.25 13.8125 C-8.30027344 12.7306543 -8.30027344 12.7306543 -8.3515625 11.62695312 C-8.42153697 7.79585077 -8.23268564 5.8938153 -6.234375 2.51171875 C-3.87209788 0.38484337 -3.10561792 -0.14557584 0 0 Z " fill="#000000" transform="translate(299,337.5)"/>
<path d="M0 0 C3.47167281 0.2262729 5.56909999 0.87462799 8 3.5 C9.2062252 7.11867559 9.10816918 10.42506251 9.0625 14.1875 C9.05798828 14.88939453 9.05347656 15.59128906 9.04882812 16.31445312 C9.03706927 18.04300538 9.01913454 19.77151365 9 21.5 C10.19625 21.438125 11.3925 21.37625 12.625 21.3125 C16.7440472 21.30518375 19.47950587 22.26749153 23 24.5 C24.60813266 27.71626531 24.45492615 31.01223287 24 34.5 C22.6875 37 22.6875 37 20 38.5 C17.33129883 38.64648438 17.33129883 38.64648438 14.33203125 38.59375 C13.33534424 38.58021484 12.33865723 38.56667969 11.31176758 38.55273438 C10.16744263 38.52663086 10.16744263 38.52663086 9 38.5 C9.00666183 39.07771652 9.01332367 39.65543304 9.02018738 40.25065613 C9.08660998 46.26901682 9.13182935 52.28727319 9.16479492 58.3059082 C9.17987182 60.55139394 9.20033653 62.79685029 9.22631836 65.04223633 C9.26274918 68.27172099 9.27973755 71.50081594 9.29296875 74.73046875 C9.31619453 76.23386055 9.31619453 76.23386055 9.33988953 77.7676239 C9.34204323 86.70772334 9.34204323 86.70772334 6 90.5 C2.625 92 2.625 92 -1 92.5 C-3.97528203 91.17765243 -5.70912149 89.79087851 -8 87.5 C-8.24050903 85.39926147 -8.24050903 85.39926147 -8.22705078 82.77490234 C-8.22682419 81.30360367 -8.22682419 81.30360367 -8.22659302 79.80258179 C-8.21627045 78.74108917 -8.20594788 77.67959656 -8.1953125 76.5859375 C-8.1924826 75.50116119 -8.18965271 74.41638489 -8.18673706 73.29873657 C-8.17551578 69.82404687 -8.15040762 66.34961218 -8.125 62.875 C-8.11497272 60.52344121 -8.10584643 58.1718784 -8.09765625 55.8203125 C-8.07557011 50.04678756 -8.04207345 44.27341199 -8 38.5 C-8.7636084 38.51885254 -9.5272168 38.53770508 -10.31396484 38.55712891 C-11.80984131 38.57912354 -11.80984131 38.57912354 -13.3359375 38.6015625 C-14.3264209 38.62041504 -15.3169043 38.63926758 -16.33740234 38.65869141 C-19 38.5 -19 38.5 -21.625 36.875 C-23.33201357 33.92652201 -23.93026479 31.91702512 -24 28.5 C-22.34971168 24.67827969 -20.82717051 23.01991387 -17 21.5 C-14.640625 21.3046875 -14.640625 21.3046875 -12.25 21.375 C-11.45078125 21.39304687 -10.6515625 21.41109375 -9.828125 21.4296875 C-9.22484375 21.45289063 -8.6215625 21.47609375 -8 21.5 C-8.04640625 20.40300781 -8.0928125 19.30601562 -8.140625 18.17578125 C-8.1781579 16.7213815 -8.21455643 15.26695217 -8.25 13.8125 C-8.30027344 12.7306543 -8.30027344 12.7306543 -8.3515625 11.62695312 C-8.42153697 7.79585077 -8.23268564 5.8938153 -6.234375 2.51171875 C-3.87209788 0.38484337 -3.10561792 -0.14557584 0 0 Z " fill="#000000" transform="translate(437,337.5)"/>
<path d="M0 0 C0.84175781 -0.01095703 1.68351562 -0.02191406 2.55078125 -0.03320312 C6.63830993 0.01507477 8.96826962 0.24428298 12.53515625 2.37890625 C15.2356594 5.38006184 15.42882133 7.57649444 15.5 11.5625 C14.69613461 14.26641086 14.10606958 15.19987259 11.69116211 16.64477539 C7.91825656 18.22498174 4.1032803 17.97242834 0.0625 18 C-0.78376953 18.03287109 -1.63003906 18.06574219 -2.50195312 18.09960938 C-6.9577764 18.13799156 -8.90092622 18.01467446 -12.55859375 15.25390625 C-14.5 12.5625 -14.5 12.5625 -15.125 9.0625 C-13.57310028 0.37186154 -7.51818605 -0.21299608 0 0 Z " fill="#000000" transform="translate(131.5,457.4375)"/>
<path d="M0 0 C1.34674805 -0.02320313 1.34674805 -0.02320313 2.72070312 -0.046875 C9.2216375 -0.00820773 9.2216375 -0.00820773 12.49609375 2.31640625 C14.56607526 5.4522319 14.9375 7.75588601 14.9375 11.5 C12.85124661 14.92741629 11.7630689 16.22481037 7.9375 17.5 C5.13230593 17.64854388 2.36827873 17.73104204 -0.4375 17.75 C-1.19289062 17.770625 -1.94828125 17.79125 -2.7265625 17.8125 C-7.33607365 17.84473434 -10.31374486 17.48163536 -14.0625 14.5 C-15.62950442 11.36599115 -15.91414561 7.86844905 -15.0625 4.5 C-10.81565882 -0.49113293 -6.08163323 -0.10523374 0 0 Z " fill="#000000" transform="translate(132.0625,420.5)"/>
<path d="M0 0 C0.84175781 -0.01546875 1.68351562 -0.0309375 2.55078125 -0.046875 C6.6674607 -0.02094316 8.95143949 0.16563258 12.53125 2.34765625 C15.06785528 5.12081004 15.5 6.75600034 15.5 10.5 C13.89588152 14.02906067 12.75840638 15.32772908 9.5 17.5 C6.39029619 17.95051711 3.2639588 17.87028685 0.125 17.875 C-1.15117188 17.91173828 -1.15117188 17.91173828 -2.453125 17.94921875 C-6.55454678 17.96838427 -8.93751074 17.81998751 -12.5625 15.7578125 C-14.70671833 13.25910646 -15.18060901 12.24756601 -15.125 9 C-15.13789062 8.2471875 -15.15078125 7.494375 -15.1640625 6.71875 C-13.01431701 -0.46392904 -6.21443017 -0.11420086 0 0 Z " fill="#000000" transform="translate(65.5,457.5)"/>
<path d="M0 0 C0.95003906 -0.01546875 1.90007812 -0.0309375 2.87890625 -0.046875 C9.78576774 -0.00801783 9.78576774 -0.00801783 13.09765625 2.34765625 C14.93939016 5.17438434 15.43110186 7.12399132 15.5 10.5 C14.32545227 13.22000526 13.34306983 14.90403685 10.9140625 16.62109375 C7.34148291 17.9217902 3.81479019 17.82852173 0.0625 17.8125 C-1.06381836 17.83666992 -1.06381836 17.83666992 -2.21289062 17.86132812 C-6.79468119 17.86535784 -9.77367939 17.45090129 -13.5 14.5 C-15.06471233 11.37057535 -15.19701958 7.88917777 -14.5 4.5 C-11.14218782 -0.98410585 -5.75090045 -0.09363746 0 0 Z " fill="#000000" transform="translate(65.5,420.5)"/>
<path d="M0 0 C0.75990234 -0.020625 1.51980469 -0.04125 2.30273438 -0.0625 C6.93072687 -0.09466676 9.93948327 0.24033553 13.6875 3.25 C15.6875 6.25 15.6875 6.25 15.5625 9.6875 C14.56159764 13.76260248 14.08334809 14.85171459 10.6875 17.25 C7.36669702 17.87112164 4.12002497 17.85362737 0.75 17.8125 C-0.14396484 17.83634766 -1.03792969 17.86019531 -1.95898438 17.88476562 C-6.54215088 17.87455813 -8.662071 17.74357049 -12.40625 14.90234375 C-14.3125 12.25 -14.3125 12.25 -14.875 9.25 C-14.18892343 5.59092496 -12.88515686 3.89832324 -10.3125 1.25 C-7.0732886 -0.3696057 -3.55545619 0.02376245 0 0 Z " fill="#000000" transform="translate(439.3125,455.75)"/>
<path d="M0 0 C0.75925781 -0.00773437 1.51851563 -0.01546875 2.30078125 -0.0234375 C9.4421434 0.00157603 9.4421434 0.00157603 12.5 2.25 C15.00031654 6.00047482 15.03603554 7.80856266 14.5 12.25 C12.45015358 15.15605798 10.84958619 16.96878059 7.27856445 17.71289062 C4.64723052 17.88754237 2.07343161 17.88281685 -0.5625 17.8125 C-1.46033203 17.82345703 -2.35816406 17.83441406 -3.28320312 17.84570312 C-9.77577706 17.77329524 -9.77577706 17.77329524 -13.0625 15.3984375 C-14.94981874 12.57771656 -15.43072517 10.64446655 -15.5 7.25 C-14.32607575 4.53143858 -13.34039726 2.84761583 -10.91796875 1.125 C-7.32434401 -0.17543933 -3.77083321 -0.03841256 0 0 Z " fill="#000000" transform="translate(369.5,455.75)"/>
<path d="M0 0 C0.75990234 -0.020625 1.51980469 -0.04125 2.30273438 -0.0625 C6.94518233 -0.09476723 9.89365425 0.28311107 13.6875 3.25 C15.61613839 5.79229606 15.69652291 7.03345018 15.5625 10.25 C14.49553962 13.90814989 13.78707085 15.0184977 10.6875 17.25 C7.36747944 17.87441455 4.11974682 17.85362397 0.75 17.8125 C-0.14396484 17.83634766 -1.03792969 17.86019531 -1.95898438 17.88476562 C-6.54215088 17.87455813 -8.662071 17.74357049 -12.40625 14.90234375 C-14.3125 12.25 -14.3125 12.25 -14.875 9.25 C-14.18892343 5.59092496 -12.88515686 3.89832324 -10.3125 1.25 C-7.0732886 -0.3696057 -3.55545619 0.02376245 0 0 Z " fill="#000000" transform="translate(227.3125,455.75)"/>
<path d="M0 0 C0.75990234 -0.020625 1.51980469 -0.04125 2.30273438 -0.0625 C6.92803535 -0.09464805 9.92784757 0.25391335 13.6875 3.25 C15.25221233 6.37942465 15.38451958 9.86082223 14.6875 13.25 C13.2890625 15.4765625 13.2890625 15.4765625 10.6875 17.25 C7.36496682 17.84214976 4.11660542 17.80800325 0.75 17.75 C-0.14396484 17.76546875 -1.03792969 17.7809375 -1.95898438 17.796875 C-6.17070774 17.77186105 -8.70110332 17.60201627 -12.40625 15.46875 C-14.97838415 12.47495451 -14.97902307 10.94273908 -14.74609375 7.15234375 C-14.08907726 4.26975787 -12.64712725 2.96663768 -10.3125 1.25 C-7.0732886 -0.3696057 -3.55545619 0.02376245 0 0 Z " fill="#000000" transform="translate(298.3125,455.75)"/>
</svg>
