<?xml version="1.0" encoding="UTF-8"?>
<svg version="1.1" xmlns="http://www.w3.org/2000/svg" width="512" height="512">
<path d="M0 0 C1.1074054 -0.0033284 2.21481079 -0.0066568 3.35577393 -0.01008606 C5.68200264 -0.01512221 8.0082385 -0.01749542 10.33447266 -0.01733398 C13.8936741 -0.01953313 17.4525715 -0.03775856 21.01171875 -0.05664062 C23.27864478 -0.0595727 25.54557227 -0.06155874 27.8125 -0.0625 C29.40478424 -0.07327827 29.40478424 -0.07327827 31.02923584 -0.08427429 C32.02086731 -0.08119766 33.01249878 -0.07812103 34.03417969 -0.07495117 C34.90194031 -0.07637619 35.76970093 -0.07780121 36.66375732 -0.07926941 C39.51081434 0.20492064 41.5914496 0.87194056 44.140625 2.16796875 C46.62101407 5.88855235 46.60399703 7.76593446 46.140625 12.16796875 C44.13402684 14.75907901 42.93664439 16.00592846 39.69030762 16.66676331 C38.77608032 16.66659714 37.86185303 16.66643097 36.91992188 16.66625977 C35.3567926 16.6813131 35.3567926 16.6813131 33.76208496 16.69667053 C32.63919067 16.68848801 31.51629639 16.68030548 30.359375 16.671875 C29.19490845 16.68129623 28.03044189 16.69071747 26.83068848 16.70042419 C23.1004897 16.72912499 19.37092531 16.73215253 15.640625 16.73046875 C11.9389809 16.73409024 8.23780323 16.74382611 4.53625488 16.77122498 C2.23447453 16.78784736 -0.06745796 16.79102202 -2.3692627 16.7782135 C-14.29227932 16.85510897 -24.90488874 18.89861222 -33.859375 27.16796875 C-42.19670161 37.11394966 -43.00553547 47.61032191 -43.01759338 60.07017517 C-43.02253136 61.15829752 -43.02746934 62.24641987 -43.03255695 63.36751562 C-43.04789606 67.00794837 -43.05628288 70.64836352 -43.06469727 74.28881836 C-43.0742786 76.90065668 -43.08428884 79.51249345 -43.09469604 82.12432861 C-43.11641417 87.74454457 -43.13457561 93.36476291 -43.15030098 98.9849987 C-43.17304221 107.11085137 -43.20117906 115.23667837 -43.23062026 123.3625092 C-43.27824412 136.54708136 -43.32152236 149.73166405 -43.36206055 162.91625977 C-43.401442 175.72160663 -43.44287455 188.52694416 -43.48706055 201.33227539 C-43.48978482 202.12199015 -43.49250909 202.91170492 -43.49531592 203.72535043 C-43.50899583 207.68723499 -43.52271602 211.64911941 -43.53645623 215.61100376 C-43.6503392 248.46330614 -43.75716658 281.31562794 -43.859375 314.16796875 C-42.99061485 314.16428158 -42.12185471 314.16059441 -41.22676849 314.1567955 C-20.07726018 314.06841611 1.07221625 314.00224529 22.22187042 313.96072006 C32.44973894 313.94010445 42.6774841 313.91200291 52.90527344 313.86621094 C61.8209547 313.82631261 70.73654661 313.80052866 79.65231466 313.79161477 C84.37214819 313.78640511 89.09172613 313.77418129 93.81147766 313.74504852 C98.25691938 313.71783211 102.70200103 313.70953631 107.14751816 313.71553802 C108.77608575 313.71444057 110.4046658 313.70652373 112.03316116 313.69114685 C127.35428265 313.5536152 127.35428265 313.5536152 134.140625 318.16796875 C136.09375 320.23828125 136.09375 320.23828125 137.390625 322.29296875 C139.37568929 325.38733368 140.69646776 326.82015607 144.140625 328.16796875 C147.14404444 328.47083617 147.14404444 328.47083617 150.49804688 328.42675781 C151.78618286 328.43306213 153.07431885 328.43936646 154.40148926 328.44586182 C155.80411923 328.44228192 157.20674796 328.43817993 158.609375 328.43359375 C160.05139227 328.43494153 161.49340909 328.436883 162.9354248 328.43939209 C165.95487807 328.44233807 168.97421286 328.43806271 171.99365234 328.42871094 C175.86069927 328.41731662 179.72746856 328.42387892 183.59450531 328.43585587 C186.57137131 328.44308872 189.54817168 328.44078 192.52503967 328.43560028 C193.9507704 328.43426773 195.37650711 328.43589769 196.80223083 328.44055939 C198.79588708 328.44564775 200.78956426 328.43651497 202.78320312 328.42675781 C203.91697388 328.42516663 205.05074463 328.42357544 206.21887207 328.42193604 C209.10846941 328.17076381 210.73181761 327.73747373 213.140625 326.16796875 C214.92269511 323.9788057 216.47897666 321.69247369 218.06640625 319.359375 C221.61594747 315.60929473 225.6639803 314.32230295 230.67253017 313.79882526 C231.92709043 313.80159064 233.18165068 313.80435602 234.47422791 313.8072052 C235.17849633 313.80464193 235.88276476 313.80207865 236.60837466 313.7994377 C238.95001127 313.79452671 241.29099193 313.81094742 243.63256836 313.82739258 C245.31830836 313.82823943 247.00404946 313.82776256 248.68978882 313.82606506 C253.2533759 313.82520597 257.81672539 313.84281779 262.38025737 313.86378694 C267.15417313 313.88256808 271.92809462 313.88430531 276.70204163 313.88786316 C285.73647417 313.8971794 294.77079753 313.9217875 303.80518204 313.95191163 C314.09292041 313.98546873 324.38066406 314.00194495 334.66844356 314.01699793 C355.82589826 314.04833741 376.98325475 314.10108974 398.140625 314.16796875 C398.05879654 280.72313017 397.96660314 247.27833835 397.86057339 213.83356802 C397.84805502 209.88212826 397.83562217 205.93068824 397.82324219 201.97924805 C397.8195432 200.79929272 397.8195432 200.79929272 397.81576948 199.59549991 C397.77608175 186.87035204 397.7433168 174.14519533 397.71312518 161.42002179 C397.68197465 148.35586883 397.64334992 135.29175325 397.59783494 122.22764236 C397.57000013 114.17104868 397.54794547 106.11448224 397.53336249 98.0578535 C397.52154114 91.87257337 397.49930412 85.68736991 397.47324181 79.50213432 C397.46418901 76.9702121 397.45848118 74.4382753 397.45641136 71.90633774 C397.45307263 68.44186618 397.43755134 64.97764878 397.4190979 61.51322937 C397.422 60.02047573 397.422 60.02047573 397.42496073 58.49756545 C397.32371373 45.72870021 395.3253628 34.56145059 386.140625 25.16796875 C376.24584162 17.04917213 363.79546764 16.74319941 351.546875 16.83203125 C350.18354553 16.82786671 348.82022092 16.82167246 347.45690918 16.81356812 C341.7286883 16.78292914 336.00071273 16.78760848 330.27246094 16.80761719 C326.74407999 16.81853087 323.2164347 16.80537531 319.68815613 16.77772141 C317.70505518 16.76966603 315.7219041 16.78957929 313.7388916 16.80996704 C311.93551331 16.79502701 311.93551331 16.79502701 310.09570312 16.77978516 C309.03935669 16.78217194 307.98301025 16.78455872 306.89465332 16.78701782 C304.140625 16.16796875 304.140625 16.16796875 301.76452637 13.85629272 C300.140625 11.16796875 300.140625 11.16796875 300.203125 7.54296875 C301.45808532 3.02511161 301.45808532 3.02511161 304.140625 1.16796875 C307.25704349 0.12916259 309.43773316 0.0351007 312.70678711 0.02270508 C313.84905258 0.01632523 314.99131805 0.00994537 316.16819763 0.00337219 C318.02433434 0.00170296 318.02433434 0.00170296 319.91796875 0 C321.83326134 -0.0049926 321.83326134 -0.0049926 323.7872467 -0.01008606 C326.49660078 -0.01607745 329.20592297 -0.0179263 331.9152832 -0.01733398 C335.3544589 -0.01723316 338.79342438 -0.03080135 342.23255062 -0.04810619 C345.54435885 -0.06204867 348.85613168 -0.06131946 352.16796875 -0.0625 C353.99677834 -0.07327827 353.99677834 -0.07327827 355.86253357 -0.08427429 C372.66872577 -0.04010473 387.82462677 2.97637454 400.140625 15.16796875 C415.46656053 32.88029562 414.43486083 52.80487041 414.36767578 74.9699707 C414.36711101 77.58269242 414.36742951 80.19541445 414.36856079 82.80813599 C414.36960433 88.41190325 414.36338369 94.01562358 414.35208511 99.61937904 C414.33576045 107.72124249 414.33061502 115.82308348 414.32810913 123.92496159 C414.3237429 137.07295272 414.31046303 150.22091889 414.29150391 163.36889648 C414.27311726 176.13321814 414.25897442 188.89753299 414.25048828 201.66186523 C414.24996283 202.45000366 414.24943739 203.23814208 414.24889602 204.05016349 C414.24628575 208.00442408 414.24375838 211.95868472 414.24127221 215.91294539 C414.22057313 248.66463801 414.18537697 281.41630003 414.140625 314.16796875 C415.09324219 314.1215625 416.04585938 314.07515625 417.02734375 314.02734375 C418.28160156 313.99125 419.53585937 313.95515625 420.828125 313.91796875 C422.06949219 313.8715625 423.31085938 313.82515625 424.58984375 313.77734375 C428.72024003 314.23173278 430.29299359 315.19649824 433.140625 318.16796875 C433.77172852 321.18554687 433.77172852 321.18554687 433.76953125 324.69921875 C433.77243164 326.62894531 433.77243164 326.62894531 433.77539062 328.59765625 C433.76290283 329.26764648 433.75041504 329.93763672 433.73754883 330.62792969 C433.70371206 332.63317812 433.71958309 334.63906726 433.73632812 336.64453125 C433.62501891 351.57480718 428.90853917 363.85869565 419.140625 375.16796875 C403.30166956 388.72221263 387.02613501 390.48146326 366.94775391 390.42193604 C365.23813049 390.42424459 363.52850808 390.42742376 361.81888771 390.43139052 C357.15307831 390.43969286 352.48735137 390.43563412 347.82154179 390.42941809 C342.77716086 390.42487583 337.73279369 390.43188613 332.68841553 390.43737793 C322.81913496 390.44625468 312.94988487 390.44435758 303.08060312 390.43855265 C295.05708981 390.4340294 287.03358502 390.43342612 279.0100708 390.43560028 C277.29484362 390.43605998 277.29484362 390.43605998 275.54496539 390.43652897 C273.22174183 390.43716844 270.89851828 390.43781687 268.57529473 390.43847415 C246.80848635 390.44417241 225.04169484 390.43762746 203.27488923 390.42687342 C184.6122875 390.41793837 165.94971066 390.41949055 147.28710938 390.42871094 C125.59630359 390.43942247 103.90551257 390.44362313 82.21470451 390.43748641 C79.90019608 390.43684934 77.58568764 390.43622059 75.2711792 390.43560028 C74.13250165 390.43529173 72.99382409 390.43498318 71.82064116 390.43466528 C63.81005029 390.43294099 55.79946881 390.4358477 47.78887939 390.44055939 C38.02196692 390.44617802 28.25508658 390.4446311 18.48817778 390.4339979 C13.50835369 390.42875443 8.52858311 390.42666182 3.54875946 390.4332962 C-1.01581596 390.43928524 -5.5802886 390.43593208 -10.14485478 390.4253411 C-11.79004225 390.42311955 -13.43523852 390.42421514 -15.08042026 390.42909268 C-27.58231867 390.46329464 -40.06980577 390.48247159 -51.296875 384.35546875 C-51.95107422 384.02482422 -52.60527344 383.69417969 -53.27929688 383.35351562 C-66.01764727 376.71019175 -73.23301938 365.53078993 -77.859375 352.16796875 C-79.54936112 346.72500578 -79.16039995 340.91589479 -79.20947266 335.26855469 C-79.22607622 333.86799555 -79.25342479 332.46752265 -79.29150391 331.06738281 C-79.34631428 329.03796933 -79.36814067 327.01052273 -79.3828125 324.98046875 C-79.40263184 323.77003906 -79.42245117 322.55960937 -79.44287109 321.3125 C-78.859375 318.16796875 -78.859375 318.16796875 -76.77993774 315.98706055 C-73.10652492 313.69905111 -70.83688886 313.7575944 -66.546875 313.91796875 C-65.29261719 313.9540625 -64.03835937 313.99015625 -62.74609375 314.02734375 C-61.79347656 314.07375 -60.84085938 314.12015625 -59.859375 314.16796875 C-59.86013444 313.61217315 -59.86089388 313.05637756 -59.86167634 312.48373967 C-59.90648004 279.50700391 -59.94077212 246.53027581 -59.96150566 213.55351641 C-59.96400693 209.58963263 -59.96659558 205.62574892 -59.96923828 201.66186523 C-59.9697629 200.87276236 -59.97028752 200.08365948 -59.97082804 199.27064439 C-59.97951906 186.51126064 -59.99528182 173.751895 -60.01368059 160.99252198 C-60.03241596 147.88996655 -60.0434994 134.78742058 -60.04755199 121.6848523 C-60.05028951 113.60674287 -60.05892047 105.52868465 -60.07520793 97.45059099 C-60.08707831 91.24530142 -60.08827718 85.0400505 -60.08559036 78.83475113 C-60.08613888 76.29720559 -60.09009438 73.75965804 -60.09778595 71.2221241 C-60.21732773 29.73594477 -60.21732773 29.73594477 -44.859375 14.16796875 C-31.42344467 2.24122249 -17.25683543 0.01822986 0 0 Z M-62.859375 330.16796875 C-62.89837008 332.72280558 -62.92679188 335.2770392 -62.94921875 337.83203125 C-62.96126343 338.55011963 -62.97330811 339.26820801 -62.98571777 340.00805664 C-63.05297147 350.23646726 -59.25296949 356.66321137 -52.20703125 363.97265625 C-41.06488266 374.39177024 -27.28640091 374.61327975 -12.7800293 374.54891968 C-11.07055456 374.55238165 -9.36108207 374.55714982 -7.65161419 374.56310141 C-2.9815807 374.57556697 1.68826769 374.56946135 6.35830164 374.56014276 C11.40541462 374.55333432 16.45249653 374.56384237 21.49960327 374.57208252 C31.37605025 374.58540292 41.25242872 374.58254965 51.12887836 374.5738446 C59.15767143 374.5670618 67.18644535 374.56615391 75.21524048 374.56941605 C76.93110398 374.57010559 76.93110398 374.57010559 78.68163139 374.57080907 C81.00566221 374.57176828 83.32969303 374.57274092 85.65372384 374.57372685 C107.4319511 374.58227578 129.21014044 374.57245439 150.98836148 374.55632575 C169.66380945 374.54292303 188.33920147 374.54525126 207.01464844 374.55908203 C228.71642954 374.5751466 250.41817743 374.58145186 272.11996365 374.57224524 C274.43531227 374.57128962 276.75066089 374.57034651 279.06600952 374.56941605 C280.20512277 374.56895322 281.34423603 374.56849039 282.51786786 374.56801354 C290.53443184 374.56542629 298.5509747 374.56978895 306.5675354 374.57685471 C316.34073724 374.58527964 326.11386681 374.58296865 335.8870604 374.56701247 C340.87082663 374.55914317 345.8544725 374.55601531 350.83823776 374.56595993 C355.40531469 374.57493507 359.97216029 374.56992769 364.5392164 374.55402727 C366.18643351 374.55069139 367.83367038 374.55234653 369.48087466 374.55965464 C383.98662636 374.61904746 396.31706857 373.37812286 407.33203125 363.12890625 C414.75371683 355.3928583 417.41955229 348.40044243 417.234375 337.828125 C417.22422363 336.72023621 417.22422363 336.72023621 417.21386719 335.58996582 C417.19632659 333.78255369 417.1694282 331.97523649 417.140625 330.16796875 C392.87994471 329.95772025 368.61940096 329.79901592 344.35799313 329.7016592 C333.09292585 329.65525291 321.82842464 329.59198646 310.5637207 329.48901367 C300.745279 329.39930423 290.92724723 329.34124385 281.10840708 329.3211723 C275.90921282 329.3094392 270.71119129 329.28187117 265.51237297 329.21639824 C260.61762868 329.15525485 255.72453862 329.13647444 250.8294487 329.14999962 C249.03429608 329.14752588 247.23908753 329.12965122 245.44426537 329.09511948 C235.97848939 328.59140406 235.97848939 328.59140406 227.611269 332.15239143 C225.71582673 334.49626609 225.71582673 334.49626609 224.4005518 336.99099827 C222.15818521 340.86548199 218.54914892 342.37785128 214.36138916 343.75164795 C211.32029577 344.32175371 208.39002519 344.31190154 205.29589844 344.32910156 C204.27554253 344.33654892 204.27554253 344.33654892 203.23457336 344.34414673 C200.98970517 344.35872082 198.74490769 344.36556313 196.5 344.37109375 C194.93304443 344.37685004 193.36608886 344.38260771 191.7991333 344.3883667 C188.51403476 344.39886382 185.2289606 344.4047146 181.94384766 344.40820312 C177.74981532 344.41367876 173.5561091 344.43769211 169.3621788 344.46617508 C166.12438032 344.4848706 162.88665922 344.49001077 159.64881134 344.491539 C158.10356111 344.49455154 156.55831179 344.50253245 155.01311493 344.51572418 C143.88686207 344.60391577 135.52462654 344.3614248 127.140625 336.16796875 C126.57946613 335.13742056 126.01830727 334.10687237 125.44014359 333.04509544 C123.37875017 329.8457447 123.37875017 329.8457447 119.74360275 329.42968178 C118.36206224 329.40451804 116.97968129 329.41253746 115.59832764 329.44644165 C114.8353692 329.4413151 114.07241076 329.43618855 113.28633237 329.43090665 C110.72746539 329.4210161 108.1709544 329.45403038 105.61230469 329.48681641 C103.77922623 329.48850869 101.94614371 329.48755918 100.11306763 329.48416138 C95.13376921 329.48243751 90.15533528 329.51775094 85.17623806 329.55960512 C79.97392072 329.59707386 74.77158428 329.60063444 69.56915283 329.60775757 C59.71637247 329.62641775 49.86399082 329.67567075 40.01138616 329.73585451 C28.79511817 329.80288309 17.57883129 329.83589947 6.36241293 329.86602712 C-16.71173756 329.92876867 -39.78553396 330.0343266 -62.859375 330.16796875 Z " fill="#000000" transform="translate(78.859375,106.83203125)"/>
<path d="M0 0 C1.11183151 -0.00960754 2.22366302 -0.01921509 3.3691864 -0.02911377 C4.56711319 -0.03336365 5.76503998 -0.03761353 6.99926758 -0.04199219 C8.23743729 -0.04769226 9.47560699 -0.05339233 10.751297 -0.05926514 C13.37308905 -0.06871255 15.99489297 -0.07524809 18.61669922 -0.07910156 C21.29261942 -0.08348353 23.96821669 -0.09736579 26.64404297 -0.12011719 C30.51255017 -0.15068506 34.38065282 -0.16116207 38.24926758 -0.16699219 C39.43707321 -0.17933899 40.62487885 -0.19168579 41.84867859 -0.20440674 C49.04144107 -0.18526313 56.59630958 -0.12727477 62.33244324 4.75946045 C68.68484469 11.22503491 68.75277839 19.61162867 68.71699524 28.18739319 C68.72082079 29.16934219 68.72464633 30.1512912 68.72858781 31.16299623 C68.73886961 34.4385533 68.73493484 37.71393351 68.73095703 40.98950195 C68.73530608 43.34382794 68.74048988 45.69815251 68.7464447 48.05247498 C68.75982292 54.43658115 68.76041483 60.82062808 68.7578814 67.20474553 C68.75667576 73.21025457 68.76289135 79.21575533 68.76831486 85.22126108 C68.7791791 97.83915205 68.77703282 110.45701626 68.77093001 123.07490873 C68.76575821 134.61245458 68.77702522 146.14991607 68.79602823 157.68744523 C68.81540811 169.54496041 68.82366261 181.40243567 68.81990498 193.25996679 C68.81799363 199.91284354 68.82073953 206.56565744 68.83461952 213.21852303 C68.84717905 219.47219919 68.8452714 225.72570613 68.83220863 231.97937965 C68.82983949 234.27434089 68.83258957 236.56931397 68.84083176 238.86426163 C68.85127172 241.99699024 68.84322034 245.12914808 68.83052063 248.26185608 C68.83789491 249.16983682 68.8452692 250.07781757 68.85286695 251.01331288 C68.80633266 256.46979117 68.07959832 260.33945277 65.45629883 265.16113281 C62.59805524 266.59025461 60.17130607 266.29063689 56.97442818 266.29535389 C55.95974001 266.29888223 55.95974001 266.29888223 54.9245531 266.30248186 C52.63540605 266.30919116 50.3463155 266.30871306 48.05715942 266.30830383 C46.40836305 266.31160125 44.75956749 266.31532655 43.11077297 266.31944531 C38.56238338 266.32948716 34.01400699 266.3331856 29.46560788 266.33583462 C24.56708287 266.33973114 19.66856837 266.34930983 14.77005005 266.35804749 C2.93242605 266.37782902 -8.90519883 266.38787965 -20.74283522 266.39677528 C-26.31205882 266.40115488 -31.88128146 266.40652248 -37.4505043 266.41176414 C-55.95409638 266.42877711 -74.45768785 266.44327293 -92.96128654 266.45051289 C-97.76528804 266.4524229 -102.56928954 266.45434321 -107.37329102 266.45629883 C-109.16438951 266.45702444 -109.16438951 266.45702444 -110.99167182 266.45776471 C-130.34965215 266.46607113 -149.70757082 266.49141806 -169.06552421 266.52387951 C-188.92218599 266.5569069 -208.77881639 266.57495768 -228.6355058 266.57815713 C-239.79155686 266.58032609 -250.94751796 266.58913123 -262.10354233 266.6146183 C-271.60127105 266.63626626 -281.09888795 266.6444049 -290.59663855 266.63465152 C-295.44572345 266.63008979 -300.29457738 266.63210118 -305.14363098 266.65141296 C-309.57874003 266.66892429 -314.01344754 266.66814575 -318.44856013 266.65251567 C-320.05691026 266.65012118 -321.66528732 266.6545575 -323.27359603 266.66634432 C-325.45294166 266.68133259 -327.63084026 266.67188397 -329.81014824 266.65611744 C-331.02265027 266.65709425 -332.2351523 266.65807106 -333.48439682 266.65907747 C-337.14039322 266.06401282 -338.29381065 265.03886937 -340.54370117 262.16113281 C-342.10457141 258.45039441 -341.70561073 254.26072843 -341.71166992 250.29003906 C-341.71499832 249.53069565 -341.71832672 248.77135223 -341.72175598 247.98899841 C-341.72680867 246.38614506 -341.72916482 244.78328123 -341.72900391 243.18041992 C-341.73119041 240.73566277 -341.74936337 238.29135709 -341.76831055 235.84667969 C-341.77124486 234.28613435 -341.7732294 232.72558688 -341.77416992 231.16503906 C-341.78135544 230.43781143 -341.78854095 229.7105838 -341.79594421 228.96131897 C-341.77340005 223.92408134 -341.285448 220.09640706 -337.85620117 216.28613281 C-334.44225732 214.62529526 -332.15612894 215.24160574 -328.54370117 216.16113281 C-325.49702565 218.29380568 -325.49955899 219.33770155 -324.54370117 223.16113281 C-324.54370117 232.07113281 -324.54370117 240.98113281 -324.54370117 250.16113281 C-289.23370117 250.16113281 -253.92370117 250.16113281 -217.54370117 250.16113281 C-217.54370117 239.93113281 -217.54370117 229.70113281 -217.54370117 219.16113281 C-214.86602248 199.07854264 -210.01948558 187.8447022 -196.65698242 173.48535156 C-194.50793146 171.12179274 -192.51430688 168.67443354 -190.54370117 166.16113281 C-190.94202148 165.46890625 -191.3403418 164.77667969 -191.75073242 164.06347656 C-199.79175965 149.21398833 -201.60338662 133.24481342 -197.69995117 116.87207031 C-192.60885287 100.53239671 -182.6655323 86.64024052 -167.54370117 78.16113281 C-151.05956967 70.16493932 -132.1542766 67.87276325 -114.57104492 73.91503906 C-97.37871305 80.9916247 -84.72558649 93.47168242 -77.35620117 110.61035156 C-76.22520235 114.16103537 -76.37083238 116.64252645 -77.54370117 120.16113281 C-78.60620117 122.09863281 -78.60620117 122.09863281 -80.54370117 123.16113281 C-86.03889348 123.77170974 -86.03889348 123.77170974 -88.54370117 123.16113281 C-91.96291551 120.4142359 -93.48706733 117.50626329 -95.23120117 113.53613281 C-100.50286069 102.72923081 -107.60240835 96.02928512 -118.54370117 91.16113281 C-119.56657227 90.65259766 -119.56657227 90.65259766 -120.61010742 90.13378906 C-130.68307731 85.85622651 -144.82300538 86.8514665 -154.79760742 90.76660156 C-167.52116825 97.22792619 -175.16450525 106.09737128 -180.54370117 119.16113281 C-184.35458971 131.61003538 -182.75079475 143.75785031 -177.23120117 155.47363281 C-171.0064166 167.00237583 -161.0085236 174.26456647 -148.54370117 178.16113281 C-136.83250973 181.01705347 -124.45329287 179.54363251 -113.90698242 173.70019531 C-111.70876972 172.268632 -109.62345839 170.75824595 -107.54370117 169.16113281 C-106.67745117 168.58363281 -105.81120117 168.00613281 -104.91870117 167.41113281 C-98.19659639 161.04282302 -94.64999334 153.68436261 -91.87963867 144.94628906 C-90.27323513 141.59726647 -88.9093272 140.63973349 -85.54370117 139.16113281 C-82.07709019 139.23187998 -80.0845376 139.842178 -77.10620117 141.59863281 C-75.00077826 145.05152639 -75.23383712 147.26880431 -75.78198242 151.21191406 C-77.23991274 156.85672119 -79.89418338 161.99173725 -82.54370117 167.16113281 C-81.85405273 167.804375 -81.1644043 168.44761719 -80.45385742 169.11035156 C-65.10691108 183.86784044 -58.43307321 197.49084249 -55.54370117 219.16113281 C-55.54370117 229.39113281 -55.54370117 239.62113281 -55.54370117 250.16113281 C-20.23370117 250.16113281 15.07629883 250.16113281 51.45629883 250.16113281 C51.12629883 173.27113281 50.79629883 96.38113281 50.45629883 17.16113281 C20.75629883 16.66613281 20.75629883 16.66613281 -9.54370117 16.16113281 C-13.54370117 11.16113281 -13.54370117 11.16113281 -13.48120117 7.53613281 C-12.20279208 2.93386009 -12.20279208 2.93386009 -9.54370117 1.16113281 C-6.33312004 0.13855505 -3.35765708 0.02347612 0 0 Z M-182.27807617 181.62988281 C-202.42830084 201.93631078 -201.54370117 220.03988212 -201.54370117 250.16113281 C-158.64370117 250.16113281 -115.74370117 250.16113281 -71.54370117 250.16113281 C-70.95125466 211.48902699 -70.95125466 211.48902699 -90.16479492 182.51269531 C-90.94983398 181.73667969 -91.73487305 180.96066406 -92.54370117 180.16113281 C-95.94756207 181.41020177 -98.68394552 182.83965422 -101.60620117 184.97363281 C-115.20538182 194.21294326 -131.4194719 197.25410813 -147.59985352 194.85644531 C-158.09411191 192.83445008 -167.01105281 188.51629169 -175.60620117 182.28613281 C-179.03361824 179.58915103 -179.03361824 179.58915103 -182.27807617 181.62988281 Z " fill="#000000" transform="translate(392.543701171875,138.8388671875)"/>
<path d="M0 0 C1.61232155 -0.00271387 3.22464186 -0.00627702 4.83695984 -0.01062012 C9.19436144 -0.01969928 13.55166781 -0.01621839 17.90907097 -0.00986195 C22.48125327 -0.00477872 27.05342771 -0.00949984 31.62561035 -0.01263428 C39.30201676 -0.01626717 46.97838461 -0.01149261 54.65478516 -0.00195312 C63.51450201 0.00893011 72.37412679 0.00540406 81.23384142 -0.00560594 C88.85703838 -0.01469812 96.48020771 -0.01595465 104.10340834 -0.0107286 C108.64922055 -0.00761951 113.19498956 -0.00717028 117.74079895 -0.01380157 C122.01559038 -0.01960255 126.29026374 -0.01552802 130.5650425 -0.00401306 C132.12867347 -0.00138115 133.69231448 -0.0021063 135.25594139 -0.00653839 C148.35863015 -0.04023798 159.66776705 0.66345357 169.79882812 9.92675781 C175.67788806 16.39816635 179.08654263 23.70508398 179.11505127 32.46269226 C179.12076141 33.51536789 179.12647156 34.56804352 179.13235474 35.65261841 C179.13403152 37.37712723 179.13403152 37.37712723 179.13574219 39.13647461 C179.14070709 40.35155197 179.145672 41.56662933 179.15078735 42.81852722 C179.16288572 46.149383 179.17035179 49.48017608 179.17479801 52.81104636 C179.17773361 54.8949617 179.18183939 56.9788716 179.18630219 59.06278419 C179.19997247 65.59122398 179.20964062 72.11965126 179.21350408 78.64810437 C179.21797957 86.16831087 179.23550563 93.68833514 179.26450467 101.20848626 C179.28617339 107.03116844 179.29621117 112.85379956 179.29754519 118.6765216 C179.2985898 122.1493502 179.30442327 125.6220074 179.32236481 129.09479332 C179.34201943 132.97463127 179.33753588 136.85424447 179.33105469 140.73413086 C179.34026947 141.87368225 179.34948425 143.01323364 179.35897827 144.18731689 C179.30151012 155.19537719 176.7629867 163.29067995 168.97460938 171.25878906 C160.5993709 177.97045277 152.77569321 180.37259571 142.0697937 180.39923096 C141.06412485 180.40368764 141.06412485 180.40368764 140.03813946 180.40823436 C137.80454755 180.4168657 135.57100958 180.41842487 133.33740234 180.41992188 C131.73039131 180.42455407 130.12338136 180.42957927 128.51637268 180.43496704 C124.15862362 180.4480561 119.80088994 180.45452939 115.44312429 180.4589777 C112.71627313 180.46191463 109.98942612 180.46602064 107.26257706 180.47048187 C98.71852955 180.48414882 90.17449159 180.49381889 81.63043392 180.49768376 C71.79088537 180.50215992 61.95147606 180.51969066 52.11196983 180.54868436 C44.49133934 180.57035471 36.87074786 180.58039093 29.2500869 180.58172488 C24.70577197 180.58276926 20.16158806 180.58859825 15.61730576 180.60654449 C11.33759452 180.62311759 7.05811149 180.62513625 2.77837944 180.61640549 C1.21600289 180.61563998 -0.34638641 180.61991295 -1.90873146 180.62986374 C-16.18100083 180.71536426 -27.47314079 179.58688719 -37.96289062 169.37207031 C-45.71829172 161.14811374 -47.1219981 152.42770336 -47.18652344 141.30126953 C-47.19397079 140.31691925 -47.19397079 140.31691925 -47.2015686 139.31268311 C-47.21603629 137.1671032 -47.22296291 135.02159698 -47.22851562 132.87597656 C-47.231343 132.13842258 -47.23417038 131.40086861 -47.23708344 130.64096451 C-47.25200628 126.74485167 -47.26128179 122.84877527 -47.265625 118.95263672 C-47.27112805 114.93662992 -47.29521391 110.92095901 -47.32359695 106.90505791 C-47.34223251 103.80635599 -47.34742921 100.70773531 -47.34896088 97.60898209 C-47.35198121 96.12823761 -47.35998883 94.64749436 -47.37314606 93.16680527 C-47.39024153 91.09678202 -47.38831946 89.02758513 -47.38183594 86.95751953 C-47.38548157 85.78172333 -47.3891272 84.60592712 -47.3928833 83.39450073 C-46.982652 79.89411241 -46.13656845 78.05598555 -44.02539062 75.25878906 C-41.02539062 73.25878906 -41.02539062 73.25878906 -37.52539062 73.44628906 C-32.95264143 74.50782013 -32.95264143 74.50782013 -31.02539062 77.25878906 C-30.64685059 80.21646118 -30.64685059 80.21646118 -30.640625 83.88232422 C-30.63525223 84.5510556 -30.62987946 85.21978699 -30.62434387 85.90878296 C-30.61456399 87.36069475 -30.61162238 88.81266501 -30.61470032 90.26460648 C-30.6191828 92.56953925 -30.60516341 94.87370585 -30.58630371 97.17855835 C-30.54950161 102.08028925 -30.53582622 106.98194041 -30.52539062 111.88378906 C-30.51328004 117.54569496 -30.49149178 123.20722912 -30.44538879 128.86896896 C-30.43191253 131.12728612 -30.43597401 133.38512219 -30.4407959 135.64346313 C-30.62271523 147.44627293 -30.62271523 147.44627293 -25.71520996 157.82852173 C-20.5361519 162.54372859 -14.94609771 163.50775803 -8.16285706 163.51948547 C-7.49705043 163.52331102 -6.83124381 163.52713657 -6.14526123 163.53107804 C-3.92756966 163.54134758 -1.71013993 163.53742754 0.50756836 163.53344727 C2.10298908 163.53779708 3.6984077 163.54298113 5.29382324 163.54893494 C9.61820381 163.56230676 13.94249689 163.56290567 18.2668941 163.56037164 C21.88020976 163.55930076 25.49350781 163.56418824 29.10681969 163.56897706 C37.63250587 163.58006581 46.15814799 163.58051311 54.68383789 163.57446289 C63.4725583 163.56842184 72.26111867 163.58073889 81.04981178 163.60203296 C88.60243163 163.61965776 96.15500058 163.62564896 103.70764023 163.62239522 C108.21545615 163.62058373 112.72315787 163.62320517 117.23095512 163.63710976 C121.47044796 163.64969791 125.70969153 163.64773471 129.9491806 163.63469887 C131.50236407 163.63233574 133.05556513 163.63505832 134.60872841 163.64332199 C136.73447033 163.65381397 138.85937955 163.64567024 140.98509216 163.63301086 C142.17286475 163.63317861 143.36063734 163.63334635 144.58440304 163.63351917 C151.08916422 162.91452757 155.74028798 160.33997474 159.97460938 155.25878906 C161.63882793 151.77416982 162.22721396 149.00242445 162.24203491 145.15568542 C162.25056488 144.1506749 162.25909485 143.14566437 162.2678833 142.11019897 C162.26697693 141.01865509 162.26607056 139.92711121 162.26513672 138.80249023 C162.27185394 137.64418198 162.27857117 136.48587372 162.28549194 135.29246521 C162.30449417 131.4621858 162.30839736 127.63208143 162.31054688 123.80175781 C162.31534887 121.81108967 162.32015438 119.82042149 162.32546771 117.82975465 C162.34173717 111.57032806 162.34663804 105.31095898 162.34521484 99.05151367 C162.34401423 92.60818213 162.365103 86.16518598 162.39670217 79.72193927 C162.42291267 74.17864358 162.43358013 68.6354571 162.43230402 63.09209996 C162.43179571 59.78636738 162.43926276 56.48099886 162.45866013 53.17531395 C162.47828952 49.4843514 162.47249281 45.79424834 162.46044922 42.10327148 C162.47168823 41.01780029 162.48292725 39.9323291 162.49450684 38.81396484 C162.4423672 32.51499007 161.77303716 27.44584371 157.97460938 22.25878906 C152.44066618 17.76246022 148.32753983 17.13579596 141.35931396 17.11834717 C140.69592176 17.11537605 140.03252955 17.11240492 139.34903455 17.10934377 C137.12753365 17.10067669 134.90608677 17.09915021 132.68457031 17.09765625 C131.09106837 17.09302664 129.49756754 17.08800179 127.90406799 17.08261108 C123.57539378 17.06949825 119.24673506 17.06304422 114.91804409 17.05860043 C112.2123411 17.0556677 109.50664233 17.0515625 106.80094147 17.04709625 C98.33164641 17.03342382 89.86236101 17.02375611 81.39305568 17.01989436 C71.62362728 17.01541508 61.8543389 16.99787216 52.08495307 16.96889377 C44.52896837 16.94726059 36.97302302 16.9371892 29.41700768 16.93585324 C24.90632508 16.93480632 20.39577414 16.92892266 15.88512421 16.91103363 C11.63992383 16.8945248 7.39495368 16.89241104 3.14973259 16.90117264 C1.59535288 16.90194153 0.04096065 16.89761985 -1.51338768 16.88771439 C-14.77483076 16.57563493 -14.77483076 16.57563493 -25.90039062 23.00878906 C-30.64956707 30.27223539 -30.36726646 37.73651164 -30.41601562 46.13964844 C-30.59193987 52.6439587 -30.59193987 52.6439587 -32.84570312 55.84082031 C-36.06705447 57.9364306 -38.27153401 57.79505429 -42.02539062 57.25878906 C-44.93256135 55.04015877 -45.86520705 53.73933978 -47.02539062 50.25878906 C-47.60143507 36.95618138 -48.19232398 22.9546682 -39.26757812 12.12597656 C-28.24730529 0.41423563 -15.27162929 -0.04328734 0 0 Z " fill="#000000" transform="translate(186.025390625,14.7412109375)"/>
<path d="M0 0 C1.47678223 -0.00956978 1.47678223 -0.00956978 2.98339844 -0.01933289 C4.56169434 -0.02100212 4.56169434 -0.02100212 6.171875 -0.02270508 C7.80817871 -0.02769768 7.80817871 -0.02769768 9.47753906 -0.03279114 C11.78059468 -0.03784658 14.08365759 -0.04019989 16.38671875 -0.04003906 C19.90897655 -0.04222831 23.43092246 -0.06040649 26.953125 -0.0793457 C29.19270726 -0.08227935 31.43229101 -0.08426434 33.671875 -0.08520508 C34.72407227 -0.09239059 35.77626953 -0.09957611 36.86035156 -0.10697937 C37.84487305 -0.10390274 38.82939453 -0.10082611 39.84375 -0.09765625 C40.70581055 -0.09908127 41.56787109 -0.10050629 42.45605469 -0.10197449 C45.2976123 0.18293738 47.37709181 0.85246091 49.921875 2.14526367 C52.40226407 5.86584728 52.38524703 7.74322938 51.921875 12.14526367 C49.91461995 14.73435481 48.70532873 15.97965256 45.46673584 16.66424561 C44.55184387 16.67312805 43.6369519 16.6820105 42.69433594 16.69116211 C41.65355896 16.71088074 40.61278198 16.73059937 39.54046631 16.75091553 C37.86527924 16.75275848 37.86527924 16.75275848 36.15625 16.75463867 C34.43344818 16.77944305 34.43344818 16.77944305 32.67584229 16.80474854 C29.00779934 16.85332982 25.3401713 16.8746229 21.671875 16.89526367 C19.18487484 16.92341473 16.6978941 16.95334092 14.2109375 16.98510742 C8.11465891 17.05909164 2.01849749 17.1106748 -4.078125 17.14526367 C-4.08051335 18.04163607 -4.08290171 18.93800846 -4.08536243 19.86154366 C-4.14449195 41.66973638 -4.22002895 63.47781841 -4.31383991 85.28589058 C-4.35881027 95.83210374 -4.39822211 106.37828304 -4.42456055 116.92456055 C-4.44753054 126.11642619 -4.48091745 135.30818479 -4.52682656 144.49996555 C-4.55077219 149.36719216 -4.56949221 154.23431265 -4.57573891 159.10159683 C-4.58178367 163.68331023 -4.60176156 168.26475207 -4.63240051 172.84636497 C-4.64119048 174.52733538 -4.64490133 176.20834126 -4.64313316 177.88933372 C-4.64147982 180.18655601 -4.65818394 182.48295108 -4.67939758 184.78005981 C-4.68400655 186.06503923 -4.68861551 187.35001865 -4.69336414 188.67393684 C-5.11391763 192.46818608 -6.08665983 194.90658692 -8.078125 198.14526367 C-11.16986252 199.69113243 -13.67242052 199.43885889 -17.078125 199.14526367 C-20.2742677 196.79021116 -21.39945005 194.97672271 -22.078125 191.14526367 C-22.17263045 188.81510868 -22.20874017 186.48239819 -22.21183777 184.15032959 C-22.21410333 183.44610186 -22.21636888 182.74187413 -22.21870309 182.01630616 C-22.225033 179.65660605 -22.22421437 177.29696352 -22.22338867 174.93725586 C-22.22638084 173.24523342 -22.22978351 171.55321166 -22.23356628 169.8611908 C-22.24240585 165.26392604 -22.24474442 160.6666799 -22.24538207 156.06940746 C-22.24609275 153.1961949 -22.24822743 150.32298708 -22.25087929 147.4497757 C-22.26013345 137.42297566 -22.2642142 127.39618893 -22.26342773 117.36938477 C-22.26282733 108.02863209 -22.27337174 98.68793724 -22.2891714 89.3471992 C-22.30225775 81.32412722 -22.30761115 73.3010741 -22.30697232 65.27799153 C-22.3067176 60.48788627 -22.30955432 55.69783235 -22.32015038 50.90773773 C-22.32984944 46.39992671 -22.32989813 41.89221593 -22.32263374 37.38440132 C-22.32159006 35.73327297 -22.32393791 34.08213831 -22.3299942 32.43102074 C-22.33774814 30.16994117 -22.33304707 27.90920486 -22.32536316 25.64813232 C-22.32590793 24.38494045 -22.32645269 23.12174858 -22.32701397 21.82027817 C-21.92526581 15.88819406 -20.88805435 9.87483114 -17.078125 5.14526367 C-11.73324163 1.21949326 -6.59805506 0.02917481 0 0 Z " fill="#000000" transform="translate(73.078125,138.854736328125)"/>
<path d="M0 0 C2.61880924 1.37768308 5.18658794 2.83462622 7.75 4.3125 C8.57113281 4.78445801 9.39226562 5.25641602 10.23828125 5.74267578 C15.85526297 8.99012184 21.42848475 12.3065052 26.98583984 15.65478516 C29.64383281 17.24882969 32.31394081 18.82029759 34.98828125 20.38671875 C36.59669013 21.34057956 38.20478012 22.29497835 39.8125 23.25 C40.5437207 23.6737793 41.27494141 24.09755859 42.02832031 24.53417969 C47.6069528 27.88557146 52.46877734 31.97992564 54.75 38.3125 C55.68627841 45.21139357 55.32998832 50.80623119 51.33203125 56.59375 C47.6612879 60.58171808 43.23983635 63.32758012 38.5859375 66.03515625 C38.00009888 66.37747787 37.41426025 66.7197995 36.81066895 67.07249451 C34.91771754 68.17728336 33.02148741 69.27629409 31.125 70.375 C29.8189985 71.13511663 28.51317267 71.89553515 27.20751953 72.65625 C24.60711487 74.17041734 22.00532291 75.68215753 19.40234375 77.19189453 C16.17012141 79.06712768 12.94357551 80.95191299 9.71875 82.83984375 C8.02097403 83.83097021 6.32306874 84.82187522 4.625 85.8125 C3.47330322 86.48744507 3.47330322 86.48744507 2.29833984 87.17602539 C-4.13476553 90.91149647 -8.87581205 92.08930615 -16.25 91.3125 C-22.14671368 89.52716281 -25.87018224 86.38222664 -29.25 81.3125 C-31.86196822 74.62144224 -31.55595645 67.88978719 -31.55078125 60.78515625 C-31.55720894 58.83082924 -31.55720894 58.83082924 -31.56376648 56.83702087 C-31.57119839 54.08767612 -31.57095942 51.33845985 -31.56567383 48.58911133 C-31.55988078 45.08451937 -31.57682032 41.5804562 -31.6000185 38.07595158 C-31.61838322 34.70816534 -31.61456889 31.34049215 -31.61328125 27.97265625 C-31.622491 26.72347916 -31.63170074 25.47430206 -31.64118958 24.18727112 C-31.59893668 16.19600964 -30.79785051 10.46455268 -26.5625 3.5625 C-18.62217884 -4.16321789 -9.76828729 -4.6859803 0 0 Z M-13.91323853 14.47290039 C-15.73638395 16.98184284 -15.63065716 18.65854075 -15.63818359 21.74609375 C-15.64764008 22.85734619 -15.65709656 23.96859863 -15.6668396 25.11352539 C-15.66076691 26.31356201 -15.65469421 27.51359863 -15.6484375 28.75 C-15.65130768 29.98161865 -15.65417786 31.2132373 -15.65713501 32.48217773 C-15.65970158 35.75597957 -15.6476161 39.02935537 -15.63085938 42.30310059 C-15.62500553 44.31060385 -15.63083795 46.31771369 -15.64111328 48.32519531 C-15.6596098 52.17531695 -15.65740992 56.02485434 -15.6484375 59.875 C-15.65451019 61.07503662 -15.66058289 62.27507324 -15.6668396 63.51147461 C-15.65738312 64.62272705 -15.64792664 65.73397949 -15.63818359 66.87890625 C-15.63579681 67.85802979 -15.63341003 68.83715332 -15.63095093 69.84594727 C-15.4404574 72.35888388 -15.4404574 72.35888388 -13.87026978 74.15795898 C-12.26717646 75.54977574 -12.26717646 75.54977574 -9.9375 75.21875 C-6.70028917 74.12713239 -4.15226326 72.62641454 -1.25 70.8125 C0.05463852 70.00692241 1.36077807 69.20377338 2.66796875 68.40234375 C3.43544434 67.9316748 4.20291992 67.46100586 4.99365234 66.97607422 C8.34766106 64.95178587 11.72800501 62.97532345 15.11328125 61.00390625 C15.76311981 60.6251535 16.41295837 60.24640076 17.08248901 59.85617065 C19.74030002 58.3077516 22.39854538 56.76010829 25.05932617 55.21679688 C26.95392566 54.1173304 28.84627213 53.01407265 30.73828125 51.91015625 C31.84727783 51.26570557 32.95627441 50.62125488 34.09887695 49.95727539 C36.78289188 48.43166354 36.78289188 48.43166354 38.75 46.3125 C38.87197446 43.82987286 38.87197446 43.82987286 37.75 41.3125 C35.31972516 39.29646819 35.31972516 39.29646819 32 37.5625 C30.65596069 36.79608005 29.31224167 36.02909828 27.96875 35.26171875 C27.17597656 34.81618652 26.38320313 34.3706543 25.56640625 33.91162109 C20.17123228 30.84830716 14.83421068 27.68452044 9.48571777 24.54064941 C7.51447728 23.38349841 5.54128378 22.22975436 3.56738281 21.07714844 C2.63146301 20.53014534 2.63146301 20.53014534 1.67663574 19.97209167 C-0.04378784 18.96674406 -1.76455937 17.96199194 -3.48535156 16.95727539 C-5.43914062 15.79490548 -7.35840809 14.57356127 -9.25 13.3125 C-12.1779411 13.02640897 -12.1779411 13.02640897 -13.91323853 14.47290039 Z " fill="#000000" transform="translate(243.25,60.6875)"/>
</svg>
